0
SECTION
2
HEADER
9
$INSUNITS
70
1
0
ENDSEC
0
SECTION
2
TABLES
0
TABLE
2
LTYPE
0
LTYPE
72
65
70
64
2
CONTINUOUS
3
______
73
0
40
0
0
ENDTAB
0
TABLE
2
LAYER
0
ENDTAB
0
ENDSEC
0
SECTION
2
ENTITIES
0
LINE
8
side1_outsideCutPath
10
0.1624131
20
4.007
11
0.1624131
21
3.364
0
LINE
8
side1_outsideCutPath
10
0.1624131
20
3.364
11
0
21
3.364
0
LINE
8
side1_outsideCutPath
10
0
20
3.364
11
0
21
2.538
0
LINE
8
side1_outsideCutPath
10
0
20
2.538
11
0.1624131
21
2.538
0
LINE
8
side1_outsideCutPath
10
0.1624131
20
2.538
11
0.1624131
21
1.712
0
LINE
8
side1_outsideCutPath
10
0.1624131
20
1.712
11
0
21
1.712
0
LINE
8
side1_outsideCutPath
10
0
20
1.712
11
0
21
0.886
0
LINE
8
side1_outsideCutPath
10
0
20
0.886
11
0.1624131
21
0.886
0
LINE
8
side1_outsideCutPath
10
0.1624131
20
0.886
11
0.1624131
21
0.243
0
LINE
8
side1_outsideCutPath
10
0.1624131
20
0.243
11
0.9610725
21
0.243
0
LINE
8
side1_outsideCutPath
10
0.9610725
20
0.243
11
0.9610725
21
0.125
0
LINE
8
side1_outsideCutPath
10
0.9610725
20
0.125
11
1.7870725
21
0.125
0
LINE
8
side1_outsideCutPath
10
1.7870725
20
0.125
11
1.7870725
21
0.243
0
LINE
8
side1_outsideCutPath
10
1.7870725
20
0.243
11
2.6130725
21
0.243
0
LINE
8
side1_outsideCutPath
10
2.6130725
20
0.243
11
2.7481451
21
0.243
0
LINE
8
side1_outsideCutPath
10
2.7481451
20
0.243
11
2.7481451
21
0.886
0
LINE
8
side1_outsideCutPath
10
2.7481451
20
0.886
11
2.585732
21
0.886
0
LINE
8
side1_outsideCutPath
10
2.585732
20
0.886
11
2.585732
21
1.712
0
LINE
8
side1_outsideCutPath
10
2.585732
20
1.712
11
2.7481451
21
1.712
0
LINE
8
side1_outsideCutPath
10
2.7481451
20
1.712
11
2.7481451
21
2.538
0
LINE
8
side1_outsideCutPath
10
2.7481451
20
2.538
11
2.585732
21
2.538
0
LINE
8
side1_outsideCutPath
10
2.585732
20
2.538
11
2.585732
21
3.364
0
LINE
8
side1_outsideCutPath
10
2.585732
20
3.364
11
2.7481451
21
3.364
0
LINE
8
side1_outsideCutPath
10
2.7481451
20
3.364
11
2.7481451
21
4.007
0
LINE
8
side1_outsideCutPath
10
2.7481451
20
4.007
11
1.7870725
21
4.007
0
LINE
8
side1_outsideCutPath
10
1.7870725
20
4.007
11
1.7870725
21
4.125
0
LINE
8
side1_outsideCutPath
10
1.7870725
20
4.125
11
0.9610725
21
4.125
0
LINE
8
side1_outsideCutPath
10
0.9610725
20
4.125
11
0.9610725
21
4.007
0
LINE
8
side1_outsideCutPath
10
0.9610725
20
4.007
11
0.1624131
21
4.007
0
LINE
8
side1_labelLayer
10
0.7699671
20
1.9320429
11
0.7699671
21
1.9733724
0
LINE
8
side1_labelLayer
10
0.9715156
20
2.1990746
11
0.9556816
21
2.1628442
0
ARC
8
side1_labelLayer
10
0.8899876
20
1.9981302
40
0.0877064
50
342.01457
51
0.6572312
0
ARC
8
side1_labelLayer
10
0.9063314
20
1.9936777
40
0.0707911
50
305.156445
51
341.3577126
0
ARC
8
side1_labelLayer
10
0.8865415
20
2.0208613
40
0.1044124
50
286.1576139
51
305.4457705
0
ARC
8
side1_labelLayer
10
0.8695406
20
2.0768887
40
0.1629595
50
275.2025048
51
286.4170765
0
ARC
8
side1_labelLayer
10
0.8617722
20
2.1502377
40
0.2367132
50
269.8648969
51
275.465222
0
ARC
8
side1_labelLayer
10
0.8600529
20
2.2131581
40
0.2996352
50
263.6983703
51
270.2220396
0
ARC
8
side1_labelLayer
10
0.8477442
20
2.1053077
40
0.1910857
50
254.2789772
51
263.8172152
0
ARC
8
side1_labelLayer
10
0.8284769
20
2.0375783
40
0.1206695
50
240.9956086
51
254.3716022
0
ARC
8
side1_labelLayer
10
0.8690947
20
2.1704315
40
0.2205868
50
243.2959863
51
255.8759431
0
LINE
8
side1_labelLayer
10
0.8152667
20
1.9565132
11
0.8154564
21
1.9564649
0
ARC
8
side1_labelLayer
10
0.8653993
20
2.1504177
40
0.2002798
50
255.5600269
51
264.8167378
0
ARC
8
side1_labelLayer
10
0.862396
20
2.1219361
40
0.1716439
50
264.9562552
51
269.96382
0
ARC
8
side1_labelLayer
10
0.862992
20
2.1260999
40
0.175809
50
269.7704147
51
276.3008527
0
ARC
8
side1_labelLayer
10
0.8703439
20
2.0613871
40
0.1106804
50
276.194599
51
285.5360901
0
ARC
8
side1_labelLayer
10
0.882131
20
2.0198967
40
0.0675494
50
285.3296289
51
300.0554081
0
ARC
8
side1_labelLayer
10
0.8969446
20
1.9947007
40
0.0383227
50
299.7523732
51
325.7934927
0
ARC
8
side1_labelLayer
10
0.8972999
20
1.9934608
40
0.037341
50
327.0604943
51
355.6581874
0
ARC
8
side1_labelLayer
10
0.8835957
20
1.9953193
40
0.051153
50
354.7445554
51
0.0669477
0
ARC
8
side1_labelLayer
10
0.8991873
20
1.9955113
40
0.0355614
50
359.786988
51
46.0942812
0
ARC
8
side1_labelLayer
10
0.8875878
20
1.9852819
40
0.0509909
50
44.6744824
51
50.7446986
0
ARC
8
side1_labelLayer
10
0.8696633
20
1.9621325
40
0.0802623
50
51.293608
51
59.3031565
0
ARC
8
side1_labelLayer
10
0.8227794
20
1.8846389
40
0.170833
50
59.0501194
51
63.5836012
0
ARC
8
side1_labelLayer
10
0.7573217
20
1.7536716
40
0.3172471
50
63.5191858
51
66.7162086
0
ARC
8
side1_labelLayer
10
0.6679628
20
1.5471542
40
0.5422678
50
66.6688776
51
68.8998348
0
ARC
8
side1_labelLayer
10
0.6016644
20
1.3783216
40
0.7236489
50
68.8148312
51
68.936052
0
ARC
8
side1_labelLayer
10
1.0949927
20
2.6816773
40
0.6699721
50
247.8789385
51
249.6266136
0
ARC
8
side1_labelLayer
10
0.9978228
20
2.4434702
40
0.4127089
50
245.320022
51
247.9229158
0
ARC
8
side1_labelLayer
10
0.9201387
20
2.2750842
40
0.2272674
50
241.5029471
51
245.3902294
0
ARC
8
side1_labelLayer
10
0.8691018
20
2.1810303
40
0.1202585
50
236.8722361
51
241.4929187
0
ARC
8
side1_labelLayer
10
0.8562938
20
2.1614941
40
0.0968982
50
226.7724748
51
236.9014896
0
ARC
8
side1_labelLayer
10
0.8374047
20
2.1416427
40
0.0694969
50
210.7686126
51
226.9102669
0
LINE
8
side1_labelLayer
10
0.7776902
20
2.10609
11
0.7776157
21
2.1062173
0
ARC
8
side1_labelLayer
10
0.8304253
20
2.1365586
40
0.0609052
50
189.4735748
51
209.8791253
0
ARC
8
side1_labelLayer
10
0.8516476
20
2.140492
40
0.0824864
50
179.7600023
51
189.7421952
0
ARC
8
side1_labelLayer
10
0.8398374
20
2.1418147
40
0.0706822
50
157.026828
51
180.7921414
0
ARC
8
side1_labelLayer
10
0.8356507
20
2.1421863
40
0.0666951
50
126.584263
51
155.9168626
0
ARC
8
side1_labelLayer
10
0.8480886
20
2.1277177
40
0.085737
50
125.4066826
51
127.4958962
0
ARC
8
side1_labelLayer
10
0.8568344
20
2.1136727
40
0.1022566
50
105.5693498
51
124.8413024
0
ARC
8
side1_labelLayer
10
0.8718661
20
2.062395
40
0.1556889
50
94.8664841
51
105.8331909
0
ARC
8
side1_labelLayer
10
0.8782278
20
1.9991303
40
0.2192674
50
89.8874906
51
95.1204188
0
ARC
8
side1_labelLayer
10
0.8782395
20
1.9836092
40
0.2347887
50
66.5919531
51
89.8977767
0
ARC
8
side1_labelLayer
10
0.8484546
20
1.9054534
40
0.2788326
50
67.3837628
51
74.7672118
0
ARC
8
side1_labelLayer
10
0.8709382
20
1.9890589
40
0.1922571
50
74.6858902
51
84.9550426
0
ARC
8
side1_labelLayer
10
0.8753087
20
2.0304324
40
0.1506612
50
85.2270505
51
89.950876
0
ARC
8
side1_labelLayer
10
0.874869
20
2.0176647
40
0.1634298
50
89.8005604
51
95.6229672
0
ARC
8
side1_labelLayer
10
0.8686687
20
2.078303
40
0.102476
50
95.4949026
51
104.2268619
0
ARC
8
side1_labelLayer
10
0.85816
20
2.1187996
40
0.0606391
50
104.0059275
51
117.8906418
0
ARC
8
side1_labelLayer
10
0.8512438
20
2.1328933
40
0.0449497
50
118.5024703
51
121.6350416
0
ARC
8
side1_labelLayer
10
0.8471641
20
2.1386906
40
0.0378765
50
120.9803273
51
139.1816003
0
ARC
8
side1_labelLayer
10
0.8410303
20
2.1444489
40
0.0294726
50
139.858928
51
181.2816622
0
ARC
8
side1_labelLayer
10
0.8500928
20
2.143504
40
0.0385289
50
179.5752387
51
194.5807483
0
ARC
8
side1_labelLayer
10
0.8423419
20
2.1415719
40
0.0305413
50
194.7333571
51
215.903873
0
ARC
8
side1_labelLayer
10
0.8505788
20
2.1480138
40
0.0409928
50
216.4457554
51
228.5575886
0
ARC
8
side1_labelLayer
10
0.866184
20
2.1654037
40
0.0643574
50
228.3900124
51
236.2513602
0
ARC
8
side1_labelLayer
10
0.8826392
20
2.1896314
40
0.0936444
50
236.115187
51
240.8746748
0
ARC
8
side1_labelLayer
10
0.8996516
20
2.2213216
40
0.1296092
50
241.1235688
51
245.0643553
0
ARC
8
side1_labelLayer
10
0.9740382
20
2.3795007
40
0.3044056
50
244.920535
51
247.0987784
0
ARC
8
side1_labelLayer
10
1.0830147
20
2.63613
40
0.5832144
50
247.0475914
51
248.4056012
0
ARC
8
side1_labelLayer
10
1.227822
20
3.0009557
40
0.975728
50
248.3835549
51
249.3131754
0
ARC
8
side1_labelLayer
10
1.3579428
20
3.3436282
40
1.3422734
50
249.2841931
51
249.5327798
0
ARC
8
side1_labelLayer
10
0.7462655
20
1.6924697
40
0.4185596
50
66.5795382
51
70.1213258
0
ARC
8
side1_labelLayer
10
0.8115219
20
1.8423117
40
0.255125
50
61.5697207
51
66.6517461
0
ARC
8
side1_labelLayer
10
0.8662929
20
1.9426115
40
0.1408463
50
53.6805233
51
61.7380609
0
ARC
8
side1_labelLayer
10
0.9045383
20
1.9947364
40
0.0761957
50
44.0477702
51
53.6372565
0
ARC
8
side1_labelLayer
10
0.9114014
20
2.0021061
40
0.0661408
50
3.250205
51
43.5926066
0
ARC
8
side1_labelLayer
10
0.8898072
20
1.9991974
40
0.0878812
50
359.9601464
51
4.3453727
0
LINE
8
side1_labelLayer
10
1.0946991
20
2.21303
11
1.0946991
21
1.9188926
0
LINE
8
side1_labelLayer
10
1.0946991
20
1.9188926
11
1.0501491
21
1.9188926
0
LINE
8
side1_labelLayer
10
1.0501491
20
1.9188926
11
1.0501491
21
2.21303
0
LINE
8
side1_labelLayer
10
1.0501491
20
2.21303
11
1.0946991
21
2.21303
0
ARC
8
side1_labelLayer
10
1.0957508
20
2.2930423
40
0.0493599
50
170.8437952
51
180.3543949
0
ARC
8
side1_labelLayer
10
1.0772818
20
2.2961304
40
0.0306351
50
155.9683148
51
171.0493948
0
ARC
8
side1_labelLayer
10
1.068325
20
2.3001038
40
0.0208367
50
133.7873832
51
155.917132
0
ARC
8
side1_labelLayer
10
1.0716307
20
2.2964494
40
0.0257629
50
92.6455235
51
133.4708247
0
ARC
8
side1_labelLayer
10
1.0726773
20
2.2881741
40
0.034084
50
89.9745415
51
93.7608885
0
ARC
8
side1_labelLayer
10
1.073099
20
2.2960129
40
0.0262482
50
46.3705138
51
90.8875903
0
ARC
8
side1_labelLayer
10
1.0757119
20
2.2987096
40
0.0224936
50
17.7258401
51
46.4483532
0
ARC
8
side1_labelLayer
10
1.0635332
20
2.2945151
40
0.0353722
50
4.9428108
51
18.1914672
0
ARC
8
side1_labelLayer
10
1.0480151
20
2.2928394
40
0.050978
50
359.8848403
51
5.316391
0
ARC
8
side1_labelLayer
10
1.0528928
20
2.292424
40
0.0461013
50
349.8361354
51
0.3889989
0
ARC
8
side1_labelLayer
10
1.0696817
20
2.2892932
40
0.0290235
50
332.632378
51
350.071119
0
ARC
8
side1_labelLayer
10
1.076212
20
2.286069
40
0.0217423
50
313.6153334
51
332.2670366
0
ARC
8
side1_labelLayer
10
1.0730652
20
2.2889338
40
0.0259889
50
269.1780874
51
314.281214
0
ARC
8
side1_labelLayer
10
1.0723971
20
2.2912453
40
0.0282994
50
250.5003529
51
270.5978619
0
ARC
8
side1_labelLayer
10
1.0715412
20
2.2880435
40
0.0249968
50
225.1309853
51
249.9000055
0
ARC
8
side1_labelLayer
10
1.0701989
20
2.2865605
40
0.0229989
50
197.7922051
51
224.8945146
0
ARC
8
side1_labelLayer
10
1.0827495
20
2.2908625
40
0.0362648
50
184.9934392
51
198.2049323
0
ARC
8
side1_labelLayer
10
1.0989511
20
2.2926253
40
0.0525593
50
179.8782638
51
185.3704755
0
LINE
8
side1_labelLayer
10
1.3952774
20
1.9188926
11
1.3893732
21
1.9583435
0
LINE
8
side1_labelLayer
10
1.3893732
20
1.9583435
11
1.3869579
21
1.9583435
0
LINE
8
side1_labelLayer
10
1.3864211
20
2.174921
11
1.38991
21
2.174921
0
LINE
8
side1_labelLayer
10
1.38991
20
2.174921
11
1.3880313
21
2.1961225
0
LINE
8
side1_labelLayer
10
1.3880313
20
2.1961225
11
1.3869579
21
2.2167872
0
LINE
8
side1_labelLayer
10
1.3869579
20
2.2167872
11
1.3869579
21
2.3364818
0
LINE
8
side1_labelLayer
10
1.3869579
20
2.3364818
11
1.4315079
21
2.3364818
0
LINE
8
side1_labelLayer
10
1.4315079
20
2.3364818
11
1.4315079
21
1.9188926
0
LINE
8
side1_labelLayer
10
1.4315079
20
1.9188926
11
1.3952774
21
1.9188926
0
LINE
8
side1_labelLayer
10
1.3869579
20
2.0557631
11
1.3869579
21
2.0651562
0
ARC
8
side1_labelLayer
10
1.3038447
20
2.014511
40
0.1003124
50
275.418509
51
325.9493733
0
ARC
8
side1_labelLayer
10
1.2949847
20
2.0638523
40
0.1503274
50
269.8675962
51
277.0046567
0
ARC
8
side1_labelLayer
10
1.2932662
20
2.048531
40
0.1350128
50
253.8531811
51
270.5818704
0
ARC
8
side1_labelLayer
10
1.2844674
20
2.0166246
40
0.1019189
50
218.6456387
51
253.6162772
0
ARC
8
side1_labelLayer
10
1.3068545
20
2.0340868
40
0.1303093
50
196.606925
51
218.4951066
0
ARC
8
side1_labelLayer
10
1.3753071
20
2.0555975
40
0.2020573
50
184.8789805
51
196.904496
0
ARC
8
side1_labelLayer
10
1.4619252
20
2.064582
40
0.28913
50
179.886217
51
185.193068
0
ARC
8
side1_labelLayer
10
1.4371443
20
2.0666953
40
0.264353
50
170.759275
51
180.3335988
0
ARC
8
side1_labelLayer
10
1.3446211
20
2.0822769
40
0.1705292
50
156.0194785
51
170.9345678
0
ARC
8
side1_labelLayer
10
1.3035001
20
2.0998838
40
0.1258031
50
141.5329198
51
155.7345828
0
ARC
8
side1_labelLayer
10
1.2872895
20
2.113003
40
0.1049499
50
94.0774908
51
141.6354932
0
ARC
8
side1_labelLayer
10
1.2944342
20
2.0678527
40
0.150545
50
89.9226675
51
95.5680925
0
ARC
8
side1_labelLayer
10
1.2960509
20
2.0872034
40
0.1312017
50
73.1655197
51
90.6172925
0
ARC
8
side1_labelLayer
10
1.304002
20
2.116066
40
0.101276
50
35.5304069
51
72.7421056
0
ARC
8
side1_labelLayer
10
1.3011978
20
2.0831318
40
0.1323059
50
269.5996045
51
280.1671917
0
ARC
8
side1_labelLayer
10
1.3104513
20
2.0336054
40
0.0819248
50
279.9113635
51
297.5415737
0
ARC
8
side1_labelLayer
10
1.3203178
20
2.013964
40
0.059948
50
297.8604518
51
320.278215
0
ARC
8
side1_labelLayer
10
1.3089074
20
2.0218794
40
0.0737926
50
321.2129237
51
340.6509385
0
ARC
8
side1_labelLayer
10
1.2591856
20
2.0400883
40
0.1267411
50
340.3315532
51
351.639813
0
ARC
8
side1_labelLayer
10
1.1758133
20
2.0529721
40
0.2111016
50
351.4702054
51
358.8760949
0
ARC
8
side1_labelLayer
10
1.1046038
20
2.0557103
40
0.2823543
50
358.6039912
51
0.0107167
0
ARC
8
side1_labelLayer
10
1.0897132
20
2.0663255
40
0.2972469
50
359.7746062
51
5.6999826
0
ARC
8
side1_labelLayer
10
1.2076691
20
2.0784672
40
0.1786686
50
5.5825064
51
14.2112588
0
ARC
8
side1_labelLayer
10
1.2830116
20
2.0980358
40
0.100829
50
13.942264
51
28.1044883
0
ARC
8
side1_labelLayer
10
1.3133421
20
2.1135177
40
0.0667847
50
28.6464469
51
37.7347464
0
ARC
8
side1_labelLayer
10
1.315122
20
2.1140247
40
0.0650704
50
38.3408646
51
73.8125747
0
ARC
8
side1_labelLayer
10
1.3032065
20
2.0772227
40
0.103742
50
73.158965
51
86.845111
0
ARC
8
side1_labelLayer
10
1.2998604
20
2.0377161
40
0.1433776
50
86.3788488
51
90.0495151
0
ARC
8
side1_labelLayer
10
1.2987647
20
2.1011737
40
0.0799258
50
89.303402
51
108.831175
0
ARC
8
side1_labelLayer
10
1.2953727
20
2.1142528
40
0.0664595
50
109.7030045
51
146.8107063
0
ARC
8
side1_labelLayer
10
1.3270654
20
2.0923523
40
0.1049751
50
146.2763615
51
163.7412484
0
ARC
8
side1_labelLayer
10
1.3849679
20
2.074772
40
0.1654854
50
163.510682
51
174.0981689
0
ARC
8
side1_labelLayer
10
1.4674306
20
2.0654049
40
0.2484757
50
173.9048827
51
180.1811229
0
ARC
8
side1_labelLayer
10
1.4651674
20
2.0635064
40
0.2462139
50
179.740992
51
186.9783395
0
ARC
8
side1_labelLayer
10
1.3736828
20
2.0519546
40
0.1540041
50
186.8476001
51
197.4722014
0
ARC
8
side1_labelLayer
10
1.3165153
20
2.0334949
40
0.0939327
50
197.2014431
51
215.053832
0
ARC
8
side1_labelLayer
10
1.294374
20
2.0183738
40
0.0671237
50
215.342766
51
264.7643862
0
ARC
8
side1_labelLayer
10
1.3000571
20
2.0506002
40
0.0997713
50
263.2029262
51
270.1241168
0
LINE
8
side1_labelLayer
10
1.7583868
20
2.0860893
11
1.7583868
21
2.0579101
0
LINE
8
side1_labelLayer
10
1.7583868
20
2.0579101
11
1.5557648
21
2.0579101
0
LINE
8
side1_labelLayer
10
1.7457733
20
1.9722989
11
1.7457733
21
1.9325797
0
LINE
8
side1_labelLayer
10
1.5568383
20
2.0941405
11
1.7106163
21
2.0941405
0
ARC
8
side1_labelLayer
10
1.6487667
20
2.0866303
40
0.1731113
50
256.0084037
51
270.4850894
0
ARC
8
side1_labelLayer
10
1.6361608
20
2.0376967
40
0.1225824
50
223.5464298
51
256.1956907
0
ARC
8
side1_labelLayer
10
1.6431172
20
2.0427529
40
0.1311129
50
194.0879926
51
223.0536068
0
ARC
8
side1_labelLayer
10
1.7068475
20
2.0601785
40
0.1971728
50
181.3577575
51
194.4915802
0
ARC
8
side1_labelLayer
10
1.7645556
20
2.063502
40
0.254951
50
179.9901316
51
181.7971505
0
ARC
8
side1_labelLayer
10
1.7435254
20
2.065115
40
0.2339261
50
168.953664
51
180.3843264
0
ARC
8
side1_labelLayer
10
1.6671312
20
2.0806712
40
0.1559681
50
149.4072465
51
169.1853086
0
ARC
8
side1_labelLayer
10
1.6458401
20
2.0919206
40
0.1319203
50
140.1054759
51
148.9068383
0
ARC
8
side1_labelLayer
10
1.6327649
20
2.1039762
40
0.1141599
50
92.4760968
51
140.5387427
0
ARC
8
side1_labelLayer
10
1.6385927
20
2.0609278
40
0.1574697
50
89.9637998
51
93.9180377
0
ARC
8
side1_labelLayer
10
1.6399839
20
2.0826824
40
0.1357212
50
74.2122013
51
90.5452997
0
ARC
8
side1_labelLayer
10
1.6484839
20
2.1139972
40
0.1032757
50
41.2067013
51
74.0231944
0
ARC
8
side1_labelLayer
10
1.6323848
20
2.1000649
40
0.1245659
50
11.599634
51
41.1497211
0
ARC
8
side1_labelLayer
10
1.5770685
20
2.0873093
40
0.1813222
50
359.6145075
51
12.0333654
0
ARC
8
side1_labelLayer
10
1.7345376
20
2.0614818
40
0.1788084
50
181.1445572
51
190.8004989
0
ARC
8
side1_labelLayer
10
1.671449
20
2.0490387
40
0.1145064
50
190.60008
51
206.0279049
0
ARC
8
side1_labelLayer
10
1.6435489
20
2.0358489
40
0.0836489
50
206.2955473
51
222.555577
0
ARC
8
side1_labelLayer
10
1.6410726
20
2.0345514
40
0.0809506
50
223.064451
51
258.1402539
0
ARC
8
side1_labelLayer
10
1.6509179
20
2.075085
40
0.1226493
50
257.530707
51
270.431956
0
ARC
8
side1_labelLayer
10
1.6510283
20
2.1877303
40
0.2352925
50
270.1982622
51
292.2089766
0
ARC
8
side1_labelLayer
10
1.6398717
20
2.2198448
40
0.2692474
50
291.8238389
51
293.1615263
0
ARC
8
side1_labelLayer
10
1.639184
20
2.1778852
40
0.2674623
50
287.9021582
51
293.4857438
0
ARC
8
side1_labelLayer
10
1.6585994
20
2.1179733
40
0.2044832
50
281.9929185
51
287.8856579
0
ARC
8
side1_labelLayer
10
1.6632909
20
2.101114
40
0.1870202
50
275.905312
51
281.6602395
0
ARC
8
side1_labelLayer
10
1.6538719
20
2.1890525
40
0.2754614
50
271.9126248
51
275.9721757
0
ARC
8
side1_labelLayer
10
1.6504473
20
2.2763853
40
0.3628601
50
269.966048
51
271.9928199
0
ARC
8
side1_labelLayer
10
1.6372999
20
2.0932842
40
0.0878135
50
89.4417442
51
106.2094223
0
ARC
8
side1_labelLayer
10
1.6320179
20
2.1125421
40
0.0678474
50
106.4659902
51
137.9175184
0
ARC
8
side1_labelLayer
10
1.6471649
20
2.0992409
40
0.0880042
50
138.0995713
51
160.5866388
0
ARC
8
side1_labelLayer
10
1.6861009
20
2.0849165
40
0.1294889
50
160.3351337
51
172.5312696
0
ARC
8
side1_labelLayer
10
1.7245422
20
2.0787629
40
0.1684074
50
172.1554604
51
174.7609071
0
ARC
8
side1_labelLayer
10
1.558823
20
2.095004
40
0.1517958
50
359.6740914
51
8.9229284
0
ARC
8
side1_labelLayer
10
1.613053
20
2.1038413
40
0.0968519
50
8.7342413
51
23.277122
0
ARC
8
side1_labelLayer
10
1.6388102
20
2.1146539
40
0.0689188
50
23.4817673
51
39.7079464
0
ARC
8
side1_labelLayer
10
1.6451317
20
2.1193849
40
0.0610344
50
40.0825524
51
80.6243933
0
ARC
8
side1_labelLayer
10
1.6386205
20
2.0895455
40
0.0915493
50
79.6460164
51
90.2910513
0
LINE
8
side1_labelLayer
10
1.9789899
20
2.3112547
11
1.9789899
21
1.9188926
0
LINE
8
side1_labelLayer
10
1.9789899
20
1.9188926
11
1.9355134
21
1.9188926
0
LINE
8
side1_labelLayer
10
1.9355134
20
1.9188926
11
1.9355134
21
2.1985378
0
LINE
8
side1_labelLayer
10
1.8611739
20
2.2004164
11
1.837557
21
2.231011
0
LINE
8
side1_labelLayer
10
1.837557
20
2.231011
11
1.9414176
21
2.3112547
0
LINE
8
side1_labelLayer
10
1.9414176
20
2.3112547
11
1.9789899
21
2.3112547
0
ARC
8
side1_labelLayer
10
2.9485642
20
2.1993973
40
1.0130512
50
177.4350238
51
180.0486113
0
ARC
8
side1_labelLayer
10
2.7905063
20
2.2059051
40
0.8548604
50
176.0658034
51
177.3966733
0
ARC
8
side1_labelLayer
10
1.75932
20
2.4431481
40
0.2523882
50
313.0747487
51
314.9598713
0
ARC
8
side1_labelLayer
10
1.7138697
20
2.4917151
40
0.3189051
50
311.4674413
51
313.0802911
0
ARC
8
side1_labelLayer
10
1.8206856
20
2.3717128
40
0.1582516
50
310.0541878
51
311.2589647
0
ARC
8
side1_labelLayer
10
1.4203968
20
2.8463462
40
0.7791444
50
309.580889
51
310.1250321
0
ARC
8
side1_labelLayer
10
0.2795497
20
4.2244283
40
2.5681782
50
309.3424139
51
309.6079271
0
ARC
8
side1_labelLayer
10
-1.7496539
20
6.6978482
40
5.7674708
50
309.2402567
51
309.3552709
0
ARC
8
side1_labelLayer
10
-4.7420065
20
10.3622761
40
10.4984545
50
309.1360861
51
309.2378406
0
ARC
8
side1_labelLayer
10
-9.7813644
20
16.5550743
40
18.4825559
50
309.0691635
51
309.1363932
0
ARC
8
side1_labelLayer
10
-12.5016096
20
19.9047879
40
22.7976821
50
309.050911
51
309.0711125
0
LINE
8
side3_outsideCutPath
10
3.0355582
20
4.007
11
3.0355582
21
3.364
0
LINE
8
side3_outsideCutPath
10
3.0355582
20
3.364
11
2.8731451
21
3.364
0
LINE
8
side3_outsideCutPath
10
2.8731451
20
3.364
11
2.8731451
21
2.538
0
LINE
8
side3_outsideCutPath
10
2.8731451
20
2.538
11
3.0355582
21
2.538
0
LINE
8
side3_outsideCutPath
10
3.0355582
20
2.538
11
3.0355582
21
1.712
0
LINE
8
side3_outsideCutPath
10
3.0355582
20
1.712
11
2.8731451
21
1.712
0
LINE
8
side3_outsideCutPath
10
2.8731451
20
1.712
11
2.8731451
21
0.886
0
LINE
8
side3_outsideCutPath
10
2.8731451
20
0.886
11
3.0355582
21
0.886
0
LINE
8
side3_outsideCutPath
10
3.0355582
20
0.886
11
3.0355582
21
0.243
0
LINE
8
side3_outsideCutPath
10
3.0355582
20
0.243
11
3.8342176
21
0.243
0
LINE
8
side3_outsideCutPath
10
3.8342176
20
0.243
11
3.8342176
21
0.125
0
LINE
8
side3_outsideCutPath
10
3.8342176
20
0.125
11
4.6602176
21
0.125
0
LINE
8
side3_outsideCutPath
10
4.6602176
20
0.125
11
4.6602176
21
0.243
0
LINE
8
side3_outsideCutPath
10
4.6602176
20
0.243
11
5.4862176
21
0.243
0
LINE
8
side3_outsideCutPath
10
5.4862176
20
0.243
11
5.6212902
21
0.243
0
LINE
8
side3_outsideCutPath
10
5.6212902
20
0.243
11
5.6212902
21
0.886
0
LINE
8
side3_outsideCutPath
10
5.6212902
20
0.886
11
5.4588771
21
0.886
0
LINE
8
side3_outsideCutPath
10
5.4588771
20
0.886
11
5.4588771
21
1.712
0
LINE
8
side3_outsideCutPath
10
5.4588771
20
1.712
11
5.6212902
21
1.712
0
LINE
8
side3_outsideCutPath
10
5.6212902
20
1.712
11
5.6212902
21
2.538
0
LINE
8
side3_outsideCutPath
10
5.6212902
20
2.538
11
5.4588771
21
2.538
0
LINE
8
side3_outsideCutPath
10
5.4588771
20
2.538
11
5.4588771
21
3.364
0
LINE
8
side3_outsideCutPath
10
5.4588771
20
3.364
11
5.6212902
21
3.364
0
LINE
8
side3_outsideCutPath
10
5.6212902
20
3.364
11
5.6212902
21
4.007
0
LINE
8
side3_outsideCutPath
10
5.6212902
20
4.007
11
4.6602176
21
4.007
0
LINE
8
side3_outsideCutPath
10
4.6602176
20
4.007
11
4.6602176
21
4.125
0
LINE
8
side3_outsideCutPath
10
4.6602176
20
4.125
11
3.8342176
21
4.125
0
LINE
8
side3_outsideCutPath
10
3.8342176
20
4.125
11
3.8342176
21
4.007
0
LINE
8
side3_outsideCutPath
10
3.8342176
20
4.007
11
3.0355582
21
4.007
0
LINE
8
side3_labelLayer
10
3.598022
20
1.9320429
11
3.598022
21
1.9733724
0
LINE
8
side3_labelLayer
10
3.7995705
20
2.1990746
11
3.7837365
21
2.1628442
0
ARC
8
side3_labelLayer
10
3.7180425
20
1.9981302
40
0.0877064
50
342.01457
51
0.6572312
0
ARC
8
side3_labelLayer
10
3.7343863
20
1.9936777
40
0.0707911
50
305.156445
51
341.3577126
0
ARC
8
side3_labelLayer
10
3.7145964
20
2.0208613
40
0.1044124
50
286.1576139
51
305.4457705
0
ARC
8
side3_labelLayer
10
3.6975956
20
2.0768887
40
0.1629595
50
275.2025048
51
286.4170765
0
ARC
8
side3_labelLayer
10
3.6898272
20
2.1502377
40
0.2367132
50
269.8648969
51
275.465222
0
ARC
8
side3_labelLayer
10
3.6881078
20
2.2131581
40
0.2996352
50
263.6983703
51
270.2220396
0
ARC
8
side3_labelLayer
10
3.6757992
20
2.1053077
40
0.1910857
50
254.2789772
51
263.8172152
0
ARC
8
side3_labelLayer
10
3.6565318
20
2.0375783
40
0.1206695
50
240.9956086
51
254.3716022
0
ARC
8
side3_labelLayer
10
3.6971497
20
2.1704315
40
0.2205868
50
243.2959863
51
255.8759431
0
LINE
8
side3_labelLayer
10
3.6433216
20
1.9565132
11
3.6435113
21
1.9564649
0
ARC
8
side3_labelLayer
10
3.6934542
20
2.1504177
40
0.2002798
50
255.5600269
51
264.8167378
0
ARC
8
side3_labelLayer
10
3.6904509
20
2.1219361
40
0.1716439
50
264.9562552
51
269.96382
0
ARC
8
side3_labelLayer
10
3.691047
20
2.1260999
40
0.175809
50
269.7704147
51
276.3008527
0
ARC
8
side3_labelLayer
10
3.6983988
20
2.0613871
40
0.1106804
50
276.194599
51
285.5360901
0
ARC
8
side3_labelLayer
10
3.7101859
20
2.0198967
40
0.0675494
50
285.3296289
51
300.0554081
0
ARC
8
side3_labelLayer
10
3.7249995
20
1.9947007
40
0.0383227
50
299.7523732
51
325.7934927
0
ARC
8
side3_labelLayer
10
3.7253548
20
1.9934608
40
0.037341
50
327.0604943
51
355.6581874
0
ARC
8
side3_labelLayer
10
3.7116506
20
1.9953193
40
0.051153
50
354.7445554
51
0.0669477
0
ARC
8
side3_labelLayer
10
3.7272422
20
1.9955113
40
0.0355614
50
359.786988
51
46.0942812
0
ARC
8
side3_labelLayer
10
3.7156427
20
1.9852819
40
0.0509909
50
44.6744824
51
50.7446986
0
ARC
8
side3_labelLayer
10
3.6977183
20
1.9621325
40
0.0802623
50
51.293608
51
59.3031565
0
ARC
8
side3_labelLayer
10
3.6508343
20
1.8846389
40
0.170833
50
59.0501194
51
63.5836012
0
ARC
8
side3_labelLayer
10
3.5853766
20
1.7536716
40
0.3172471
50
63.5191858
51
66.7162086
0
ARC
8
side3_labelLayer
10
3.4960177
20
1.5471542
40
0.5422678
50
66.6688776
51
68.8998348
0
ARC
8
side3_labelLayer
10
3.4297194
20
1.3783216
40
0.7236489
50
68.8148312
51
68.936052
0
ARC
8
side3_labelLayer
10
3.9230476
20
2.6816773
40
0.6699721
50
247.8789385
51
249.6266136
0
ARC
8
side3_labelLayer
10
3.8258778
20
2.4434702
40
0.4127089
50
245.320022
51
247.9229158
0
ARC
8
side3_labelLayer
10
3.7481937
20
2.2750842
40
0.2272674
50
241.5029471
51
245.3902294
0
ARC
8
side3_labelLayer
10
3.6971568
20
2.1810303
40
0.1202585
50
236.8722361
51
241.4929187
0
ARC
8
side3_labelLayer
10
3.6843487
20
2.1614941
40
0.0968982
50
226.7724748
51
236.9014896
0
ARC
8
side3_labelLayer
10
3.6654597
20
2.1416427
40
0.0694969
50
210.7686126
51
226.9102669
0
LINE
8
side3_labelLayer
10
3.6057451
20
2.10609
11
3.6056707
21
2.1062173
0
ARC
8
side3_labelLayer
10
3.6584803
20
2.1365586
40
0.0609052
50
189.4735748
51
209.8791253
0
ARC
8
side3_labelLayer
10
3.6797026
20
2.140492
40
0.0824864
50
179.7600023
51
189.7421952
0
ARC
8
side3_labelLayer
10
3.6678924
20
2.1418147
40
0.0706822
50
157.026828
51
180.7921414
0
ARC
8
side3_labelLayer
10
3.6637057
20
2.1421863
40
0.0666951
50
126.584263
51
155.9168626
0
ARC
8
side3_labelLayer
10
3.6761436
20
2.1277177
40
0.085737
50
125.4066826
51
127.4958962
0
ARC
8
side3_labelLayer
10
3.6848894
20
2.1136727
40
0.1022566
50
105.5693498
51
124.8413024
0
ARC
8
side3_labelLayer
10
3.699921
20
2.062395
40
0.1556889
50
94.8664841
51
105.8331909
0
ARC
8
side3_labelLayer
10
3.7062827
20
1.9991303
40
0.2192674
50
89.8874906
51
95.1204188
0
ARC
8
side3_labelLayer
10
3.7062944
20
1.9836092
40
0.2347887
50
66.5919531
51
89.8977767
0
ARC
8
side3_labelLayer
10
3.6765095
20
1.9054534
40
0.2788326
50
67.3837628
51
74.7672118
0
ARC
8
side3_labelLayer
10
3.6989932
20
1.9890589
40
0.1922571
50
74.6858902
51
84.9550426
0
ARC
8
side3_labelLayer
10
3.7033636
20
2.0304324
40
0.1506612
50
85.2270505
51
89.950876
0
ARC
8
side3_labelLayer
10
3.7029239
20
2.0176647
40
0.1634298
50
89.8005604
51
95.6229672
0
ARC
8
side3_labelLayer
10
3.6967236
20
2.078303
40
0.102476
50
95.4949026
51
104.2268619
0
ARC
8
side3_labelLayer
10
3.686215
20
2.1187996
40
0.0606391
50
104.0059275
51
117.8906418
0
ARC
8
side3_labelLayer
10
3.6792987
20
2.1328933
40
0.0449497
50
118.5024703
51
121.6350416
0
ARC
8
side3_labelLayer
10
3.675219
20
2.1386906
40
0.0378765
50
120.9803273
51
139.1816003
0
ARC
8
side3_labelLayer
10
3.6690853
20
2.1444489
40
0.0294726
50
139.858928
51
181.2816622
0
ARC
8
side3_labelLayer
10
3.6781478
20
2.143504
40
0.0385289
50
179.5752387
51
194.5807483
0
ARC
8
side3_labelLayer
10
3.6703969
20
2.1415719
40
0.0305413
50
194.7333571
51
215.903873
0
ARC
8
side3_labelLayer
10
3.6786337
20
2.1480138
40
0.0409928
50
216.4457554
51
228.5575886
0
ARC
8
side3_labelLayer
10
3.6942389
20
2.1654037
40
0.0643574
50
228.3900124
51
236.2513602
0
ARC
8
side3_labelLayer
10
3.7106942
20
2.1896314
40
0.0936444
50
236.115187
51
240.8746748
0
ARC
8
side3_labelLayer
10
3.7277066
20
2.2213216
40
0.1296092
50
241.1235688
51
245.0643553
0
ARC
8
side3_labelLayer
10
3.8020932
20
2.3795007
40
0.3044056
50
244.920535
51
247.0987784
0
ARC
8
side3_labelLayer
10
3.9110697
20
2.63613
40
0.5832144
50
247.0475914
51
248.4056012
0
ARC
8
side3_labelLayer
10
4.0558769
20
3.0009557
40
0.975728
50
248.3835549
51
249.3131754
0
ARC
8
side3_labelLayer
10
4.1859978
20
3.3436282
40
1.3422734
50
249.2841931
51
249.5327798
0
ARC
8
side3_labelLayer
10
3.5743205
20
1.6924697
40
0.4185596
50
66.5795382
51
70.1213258
0
ARC
8
side3_labelLayer
10
3.6395769
20
1.8423117
40
0.255125
50
61.5697207
51
66.6517461
0
ARC
8
side3_labelLayer
10
3.6943479
20
1.9426115
40
0.1408463
50
53.6805233
51
61.7380609
0
ARC
8
side3_labelLayer
10
3.7325932
20
1.9947364
40
0.0761957
50
44.0477702
51
53.6372565
0
ARC
8
side3_labelLayer
10
3.7394564
20
2.0021061
40
0.0661408
50
3.250205
51
43.5926066
0
ARC
8
side3_labelLayer
10
3.7178622
20
1.9991974
40
0.0878812
50
359.9601464
51
4.3453727
0
LINE
8
side3_labelLayer
10
3.922754
20
2.21303
11
3.922754
21
1.9188926
0
LINE
8
side3_labelLayer
10
3.922754
20
1.9188926
11
3.878204
21
1.9188926
0
LINE
8
side3_labelLayer
10
3.878204
20
1.9188926
11
3.878204
21
2.21303
0
LINE
8
side3_labelLayer
10
3.878204
20
2.21303
11
3.922754
21
2.21303
0
ARC
8
side3_labelLayer
10
3.9238057
20
2.2930423
40
0.0493599
50
170.8437952
51
180.3543949
0
ARC
8
side3_labelLayer
10
3.9053367
20
2.2961304
40
0.0306351
50
155.9683148
51
171.0493948
0
ARC
8
side3_labelLayer
10
3.8963799
20
2.3001038
40
0.0208367
50
133.7873832
51
155.917132
0
ARC
8
side3_labelLayer
10
3.8996857
20
2.2964494
40
0.0257629
50
92.6455235
51
133.4708247
0
ARC
8
side3_labelLayer
10
3.9007322
20
2.2881741
40
0.034084
50
89.9745415
51
93.7608885
0
ARC
8
side3_labelLayer
10
3.901154
20
2.2960129
40
0.0262482
50
46.3705138
51
90.8875903
0
ARC
8
side3_labelLayer
10
3.9037669
20
2.2987096
40
0.0224936
50
17.7258401
51
46.4483532
0
ARC
8
side3_labelLayer
10
3.8915882
20
2.2945151
40
0.0353722
50
4.9428108
51
18.1914672
0
ARC
8
side3_labelLayer
10
3.8760701
20
2.2928394
40
0.050978
50
359.8848403
51
5.316391
0
ARC
8
side3_labelLayer
10
3.8809478
20
2.292424
40
0.0461013
50
349.8361354
51
0.3889989
0
ARC
8
side3_labelLayer
10
3.8977367
20
2.2892932
40
0.0290235
50
332.632378
51
350.071119
0
ARC
8
side3_labelLayer
10
3.904267
20
2.286069
40
0.0217423
50
313.6153334
51
332.2670366
0
ARC
8
side3_labelLayer
10
3.9011202
20
2.2889338
40
0.0259889
50
269.1780874
51
314.281214
0
ARC
8
side3_labelLayer
10
3.9004521
20
2.2912453
40
0.0282994
50
250.5003529
51
270.5978619
0
ARC
8
side3_labelLayer
10
3.8995961
20
2.2880435
40
0.0249968
50
225.1309853
51
249.9000055
0
ARC
8
side3_labelLayer
10
3.8982538
20
2.2865605
40
0.0229989
50
197.7922051
51
224.8945146
0
ARC
8
side3_labelLayer
10
3.9108044
20
2.2908625
40
0.0362648
50
184.9934392
51
198.2049323
0
ARC
8
side3_labelLayer
10
3.927006
20
2.2926253
40
0.0525593
50
179.8782638
51
185.3704755
0
LINE
8
side3_labelLayer
10
4.2233324
20
1.9188926
11
4.2174282
21
1.9583435
0
LINE
8
side3_labelLayer
10
4.2174282
20
1.9583435
11
4.2150128
21
1.9583435
0
LINE
8
side3_labelLayer
10
4.214476
20
2.174921
11
4.2179649
21
2.174921
0
LINE
8
side3_labelLayer
10
4.2179649
20
2.174921
11
4.2160863
21
2.1961225
0
LINE
8
side3_labelLayer
10
4.2160863
20
2.1961225
11
4.2150128
21
2.2167872
0
LINE
8
side3_labelLayer
10
4.2150128
20
2.2167872
11
4.2150128
21
2.3364818
0
LINE
8
side3_labelLayer
10
4.2150128
20
2.3364818
11
4.2595628
21
2.3364818
0
LINE
8
side3_labelLayer
10
4.2595628
20
2.3364818
11
4.2595628
21
1.9188926
0
LINE
8
side3_labelLayer
10
4.2595628
20
1.9188926
11
4.2233324
21
1.9188926
0
LINE
8
side3_labelLayer
10
4.2150128
20
2.0557631
11
4.2150128
21
2.0651562
0
ARC
8
side3_labelLayer
10
4.1318996
20
2.014511
40
0.1003124
50
275.418509
51
325.9493733
0
ARC
8
side3_labelLayer
10
4.1230397
20
2.0638523
40
0.1503274
50
269.8675962
51
277.0046567
0
ARC
8
side3_labelLayer
10
4.1213212
20
2.048531
40
0.1350128
50
253.8531811
51
270.5818704
0
ARC
8
side3_labelLayer
10
4.1125223
20
2.0166246
40
0.1019189
50
218.6456387
51
253.6162772
0
ARC
8
side3_labelLayer
10
4.1349094
20
2.0340868
40
0.1303093
50
196.606925
51
218.4951066
0
ARC
8
side3_labelLayer
10
4.203362
20
2.0555975
40
0.2020573
50
184.8789805
51
196.904496
0
ARC
8
side3_labelLayer
10
4.2899802
20
2.064582
40
0.28913
50
179.886217
51
185.193068
0
ARC
8
side3_labelLayer
10
4.2651992
20
2.0666953
40
0.264353
50
170.759275
51
180.3335988
0
ARC
8
side3_labelLayer
10
4.172676
20
2.0822769
40
0.1705292
50
156.0194785
51
170.9345678
0
ARC
8
side3_labelLayer
10
4.131555
20
2.0998838
40
0.1258031
50
141.5329198
51
155.7345828
0
ARC
8
side3_labelLayer
10
4.1153445
20
2.113003
40
0.1049499
50
94.0774908
51
141.6354932
0
ARC
8
side3_labelLayer
10
4.1224891
20
2.0678527
40
0.150545
50
89.9226675
51
95.5680925
0
ARC
8
side3_labelLayer
10
4.1241058
20
2.0872034
40
0.1312017
50
73.1655197
51
90.6172925
0
ARC
8
side3_labelLayer
10
4.132057
20
2.116066
40
0.101276
50
35.5304069
51
72.7421056
0
ARC
8
side3_labelLayer
10
4.1292527
20
2.0831318
40
0.1323059
50
269.5996045
51
280.1671917
0
ARC
8
side3_labelLayer
10
4.1385063
20
2.0336054
40
0.0819248
50
279.9113635
51
297.5415737
0
ARC
8
side3_labelLayer
10
4.1483728
20
2.013964
40
0.059948
50
297.8604518
51
320.278215
0
ARC
8
side3_labelLayer
10
4.1369624
20
2.0218794
40
0.0737926
50
321.2129237
51
340.6509385
0
ARC
8
side3_labelLayer
10
4.0872405
20
2.0400883
40
0.1267411
50
340.3315532
51
351.639813
0
ARC
8
side3_labelLayer
10
4.0038683
20
2.0529721
40
0.2111016
50
351.4702054
51
358.8760949
0
ARC
8
side3_labelLayer
10
3.9326587
20
2.0557103
40
0.2823543
50
358.6039912
51
0.0107167
0
ARC
8
side3_labelLayer
10
3.9177682
20
2.0663255
40
0.2972469
50
359.7746062
51
5.6999826
0
ARC
8
side3_labelLayer
10
4.0357241
20
2.0784672
40
0.1786686
50
5.5825064
51
14.2112588
0
ARC
8
side3_labelLayer
10
4.1110665
20
2.0980358
40
0.100829
50
13.942264
51
28.1044883
0
ARC
8
side3_labelLayer
10
4.141397
20
2.1135177
40
0.0667847
50
28.6464469
51
37.7347464
0
ARC
8
side3_labelLayer
10
4.1431769
20
2.1140247
40
0.0650704
50
38.3408646
51
73.8125747
0
ARC
8
side3_labelLayer
10
4.1312614
20
2.0772227
40
0.103742
50
73.158965
51
86.845111
0
ARC
8
side3_labelLayer
10
4.1279153
20
2.0377161
40
0.1433776
50
86.3788488
51
90.0495151
0
ARC
8
side3_labelLayer
10
4.1268197
20
2.1011737
40
0.0799258
50
89.303402
51
108.831175
0
ARC
8
side3_labelLayer
10
4.1234277
20
2.1142528
40
0.0664595
50
109.7030045
51
146.8107063
0
ARC
8
side3_labelLayer
10
4.1551204
20
2.0923523
40
0.1049751
50
146.2763615
51
163.7412484
0
ARC
8
side3_labelLayer
10
4.2130228
20
2.074772
40
0.1654854
50
163.510682
51
174.0981689
0
ARC
8
side3_labelLayer
10
4.2954855
20
2.0654049
40
0.2484757
50
173.9048827
51
180.1811229
0
ARC
8
side3_labelLayer
10
4.2932223
20
2.0635064
40
0.2462139
50
179.740992
51
186.9783395
0
ARC
8
side3_labelLayer
10
4.2017378
20
2.0519546
40
0.1540041
50
186.8476001
51
197.4722014
0
ARC
8
side3_labelLayer
10
4.1445702
20
2.0334949
40
0.0939327
50
197.2014431
51
215.053832
0
ARC
8
side3_labelLayer
10
4.1224289
20
2.0183738
40
0.0671237
50
215.342766
51
264.7643862
0
ARC
8
side3_labelLayer
10
4.128112
20
2.0506002
40
0.0997713
50
263.2029262
51
270.1241168
0
LINE
8
side3_labelLayer
10
4.5864418
20
2.0860893
11
4.5864418
21
2.0579101
0
LINE
8
side3_labelLayer
10
4.5864418
20
2.0579101
11
4.3838198
21
2.0579101
0
LINE
8
side3_labelLayer
10
4.5738282
20
1.9722989
11
4.5738282
21
1.9325797
0
LINE
8
side3_labelLayer
10
4.3848932
20
2.0941405
11
4.5386713
21
2.0941405
0
ARC
8
side3_labelLayer
10
4.4768216
20
2.0866303
40
0.1731113
50
256.0084037
51
270.4850894
0
ARC
8
side3_labelLayer
10
4.4642158
20
2.0376967
40
0.1225824
50
223.5464298
51
256.1956907
0
ARC
8
side3_labelLayer
10
4.4711722
20
2.0427529
40
0.1311129
50
194.0879926
51
223.0536068
0
ARC
8
side3_labelLayer
10
4.5349024
20
2.0601785
40
0.1971728
50
181.3577575
51
194.4915802
0
ARC
8
side3_labelLayer
10
4.5926105
20
2.063502
40
0.254951
50
179.9901316
51
181.7971505
0
ARC
8
side3_labelLayer
10
4.5715803
20
2.065115
40
0.2339261
50
168.953664
51
180.3843264
0
ARC
8
side3_labelLayer
10
4.4951862
20
2.0806712
40
0.1559681
50
149.4072465
51
169.1853086
0
ARC
8
side3_labelLayer
10
4.473895
20
2.0919206
40
0.1319203
50
140.1054759
51
148.9068383
0
ARC
8
side3_labelLayer
10
4.4608199
20
2.1039762
40
0.1141599
50
92.4760968
51
140.5387427
0
ARC
8
side3_labelLayer
10
4.4666477
20
2.0609278
40
0.1574697
50
89.9637998
51
93.9180377
0
ARC
8
side3_labelLayer
10
4.4680389
20
2.0826824
40
0.1357212
50
74.2122013
51
90.5452997
0
ARC
8
side3_labelLayer
10
4.4765388
20
2.1139972
40
0.1032757
50
41.2067013
51
74.0231944
0
ARC
8
side3_labelLayer
10
4.4604398
20
2.1000649
40
0.1245659
50
11.599634
51
41.1497211
0
ARC
8
side3_labelLayer
10
4.4051235
20
2.0873093
40
0.1813222
50
359.6145075
51
12.0333654
0
ARC
8
side3_labelLayer
10
4.5625925
20
2.0614818
40
0.1788084
50
181.1445572
51
190.8004989
0
ARC
8
side3_labelLayer
10
4.499504
20
2.0490387
40
0.1145064
50
190.60008
51
206.0279049
0
ARC
8
side3_labelLayer
10
4.4716038
20
2.0358489
40
0.0836489
50
206.2955473
51
222.555577
0
ARC
8
side3_labelLayer
10
4.4691276
20
2.0345514
40
0.0809506
50
223.064451
51
258.1402539
0
ARC
8
side3_labelLayer
10
4.4789728
20
2.075085
40
0.1226493
50
257.530707
51
270.431956
0
ARC
8
side3_labelLayer
10
4.4790833
20
2.1877303
40
0.2352925
50
270.1982622
51
292.2089766
0
ARC
8
side3_labelLayer
10
4.4679266
20
2.2198448
40
0.2692474
50
291.8238389
51
293.1615263
0
ARC
8
side3_labelLayer
10
4.4672389
20
2.1778852
40
0.2674623
50
287.9021582
51
293.4857438
0
ARC
8
side3_labelLayer
10
4.4866543
20
2.1179733
40
0.2044832
50
281.9929185
51
287.8856579
0
ARC
8
side3_labelLayer
10
4.4913458
20
2.101114
40
0.1870202
50
275.905312
51
281.6602395
0
ARC
8
side3_labelLayer
10
4.4819268
20
2.1890525
40
0.2754614
50
271.9126248
51
275.9721757
0
ARC
8
side3_labelLayer
10
4.4785023
20
2.2763853
40
0.3628601
50
269.966048
51
271.9928199
0
ARC
8
side3_labelLayer
10
4.4653548
20
2.0932842
40
0.0878135
50
89.4417442
51
106.2094223
0
ARC
8
side3_labelLayer
10
4.4600729
20
2.1125421
40
0.0678474
50
106.4659902
51
137.9175184
0
ARC
8
side3_labelLayer
10
4.4752199
20
2.0992409
40
0.0880042
50
138.0995713
51
160.5866388
0
ARC
8
side3_labelLayer
10
4.5141558
20
2.0849165
40
0.1294889
50
160.3351337
51
172.5312696
0
ARC
8
side3_labelLayer
10
4.5525971
20
2.0787629
40
0.1684074
50
172.1554604
51
174.7609071
0
ARC
8
side3_labelLayer
10
4.3868779
20
2.095004
40
0.1517958
50
359.6740914
51
8.9229284
0
ARC
8
side3_labelLayer
10
4.441108
20
2.1038413
40
0.0968519
50
8.7342413
51
23.277122
0
ARC
8
side3_labelLayer
10
4.4668651
20
2.1146539
40
0.0689188
50
23.4817673
51
39.7079464
0
ARC
8
side3_labelLayer
10
4.4731867
20
2.1193849
40
0.0610344
50
40.0825524
51
80.6243933
0
ARC
8
side3_labelLayer
10
4.4666755
20
2.0895455
40
0.0915493
50
79.6460164
51
90.2910513
0
LINE
8
side3_labelLayer
10
4.8043611
20
2.1255402
11
4.8043611
21
2.1233932
0
LINE
8
side3_labelLayer
10
4.6403849
20
1.9347266
11
4.6403849
21
1.9771297
0
LINE
8
side3_labelLayer
10
4.738878
20
2.1024601
11
4.7002322
21
2.1024601
0
LINE
8
side3_labelLayer
10
4.7002322
20
2.1024601
11
4.7002322
21
2.1408375
0
LINE
8
side3_labelLayer
10
4.7002322
20
2.1408375
11
4.7394147
21
2.1408375
0
LINE
8
side3_labelLayer
10
4.6650752
20
2.2460399
11
4.6425318
21
2.2760978
0
ARC
8
side3_labelLayer
10
4.7755625
20
2.2180478
40
0.1095826
50
345.8001757
51
0.4634873
0
ARC
8
side3_labelLayer
10
4.8031151
20
2.2110511
40
0.0811556
50
318.6891179
51
345.8172335
0
ARC
8
side3_labelLayer
10
4.7949513
20
2.2193693
40
0.0927829
50
293.5313162
51
318.1587476
0
ARC
8
side3_labelLayer
10
4.7779742
20
2.2567268
40
0.1338135
50
281.3986406
51
293.8097695
0
ARC
8
side3_labelLayer
10
4.7838843
20
1.9518318
40
0.1727792
50
74.0039616
51
83.1936513
0
ARC
8
side3_labelLayer
10
4.8012613
20
2.0111523
40
0.1109673
50
59.7479054
51
74.1883703
0
ARC
8
side3_labelLayer
10
4.8169015
20
2.0385325
40
0.0794369
50
43.6217371
51
59.5430522
0
ARC
8
side3_labelLayer
10
4.8145023
20
2.0372617
40
0.0820535
50
9.14551
51
43.1082577
0
ARC
8
side3_labelLayer
10
4.781329
20
2.0304881
40
0.1158904
50
359.7583347
51
9.8450661
0
ARC
8
side3_labelLayer
10
4.768393
20
2.0286785
40
0.1288321
50
344.0205769
51
0.5873721
0
ARC
8
side3_labelLayer
10
4.8003065
20
2.0198771
40
0.0957293
50
307.2901844
51
343.826555
0
ARC
8
side3_labelLayer
10
4.7799903
20
2.0469353
40
0.1295649
50
286.6683217
51
307.1884007
0
ARC
8
side3_labelLayer
10
4.7582537
20
2.1162101
40
0.2021658
50
275.2319979
51
286.938438
0
ARC
8
side3_labelLayer
10
4.7484208
20
2.2075112
40
0.2939869
50
269.8661952
51
275.5177612
0
ARC
8
side3_labelLayer
10
4.7470025
20
2.2729456
40
0.3594212
50
264.9316089
51
270.1166534
0
ARC
8
side3_labelLayer
10
4.7400435
20
2.1929523
40
0.279126
50
259.8188375
51
264.9038575
0
ARC
8
side3_labelLayer
10
4.7258129
20
2.1102175
40
0.1951794
50
244.0434365
51
259.6374985
0
ARC
8
side3_labelLayer
10
4.7484561
20
2.1966519
40
0.2446822
50
243.7888925
51
257.3160552
0
ARC
8
side3_labelLayer
10
4.7550083
20
2.2192007
40
0.2681232
50
257.0080807
51
264.1977076
0
ARC
8
side3_labelLayer
10
4.7496228
20
2.169289
40
0.2179232
50
264.279736
51
269.9268364
0
ARC
8
side3_labelLayer
10
4.7511849
20
2.1417683
40
0.1904114
50
269.4462093
51
280.6788752
0
ARC
8
side3_labelLayer
10
4.769122
20
2.0513342
40
0.0982236
50
280.172186
51
301.0225834
0
ARC
8
side3_labelLayer
10
4.7844575
20
2.0230516
40
0.0660985
50
302.2658916
51
356.5895366
0
ARC
8
side3_labelLayer
10
4.7396953
20
2.0308488
40
0.111363
50
353.9541123
51
0.1152207
0
ARC
8
side3_labelLayer
10
4.7914759
20
2.0341415
40
0.0596612
50
357.0516131
51
64.6420382
0
ARC
8
side3_labelLayer
10
4.7644343
20
1.9822316
40
0.1181713
50
63.5730848
51
80.062536
0
ARC
8
side3_labelLayer
10
4.7431861
20
1.8702661
40
0.2321294
50
79.6658448
51
89.0953581
0
ARC
8
side3_labelLayer
10
4.73895
20
1.768966
40
0.3334942
50
88.6424333
51
90.0123731
0
ARC
8
side3_labelLayer
10
4.740411
20
2.3091155
40
0.168281
50
269.6607655
51
279.6824572
0
ARC
8
side3_labelLayer
10
4.750451
20
2.2522961
40
0.1105828
50
279.5059949
51
295.3410205
0
ARC
8
side3_labelLayer
10
4.7604637
20
2.2298077
40
0.0859746
50
295.7248116
51
306.9494793
0
ARC
8
side3_labelLayer
10
4.7737567
20
2.2135482
40
0.0649955
50
306.2005249
51
355.6150407
0
ARC
8
side3_labelLayer
10
4.7499918
20
2.2172091
40
0.0889896
50
354.4346409
51
0.0739717
0
ARC
8
side3_labelLayer
10
4.7717894
20
2.2180062
40
0.0671953
50
359.418312
51
16.5304869
0
ARC
8
side3_labelLayer
10
4.7863125
20
2.2220009
40
0.0521367
50
16.8630351
51
50.8121031
0
ARC
8
side3_labelLayer
10
4.7768576
20
2.2103997
40
0.0671026
50
50.8138835
51
75.2915127
0
ARC
8
side3_labelLayer
10
4.7680435
20
2.1789158
40
0.099794
50
74.9863634
51
87.5030147
0
ARC
8
side3_labelLayer
10
4.7657843
20
2.1475452
40
0.1312363
50
87.114285
51
90.0301043
0
ARC
8
side3_labelLayer
10
4.7650187
20
2.1093025
40
0.1694805
50
89.7645034
51
102.80908
0
ARC
8
side3_labelLayer
10
4.7618648
20
2.1255097
40
0.1529781
50
103.0030011
51
106.9994615
0
ARC
8
side3_labelLayer
10
4.7621912
20
2.1270927
40
0.1515617
50
107.292408
51
114.5891247
0
ARC
8
side3_labelLayer
10
4.7961289
20
2.052307
40
0.2336873
50
114.5256618
51
119.9350122
0
ARC
8
side3_labelLayer
10
4.8427985
20
1.9699744
40
0.3283256
50
119.8229893
51
122.7722946
0
ARC
8
side3_labelLayer
10
4.7560578
20
2.1310563
40
0.1841879
50
111.5024942
51
128.0507539
0
ARC
8
side3_labelLayer
10
4.7675101
20
2.1048218
40
0.2127968
50
109.0030952
51
111.7823177
0
ARC
8
side3_labelLayer
10
4.7636594
20
2.1144999
40
0.2023929
50
89.7218793
51
108.8645212
0
ARC
8
side3_labelLayer
10
4.7658586
20
2.1159649
40
0.2009293
50
80.3875625
51
90.3469859
0
ARC
8
side3_labelLayer
10
4.7781242
20
2.1858438
40
0.1299843
50
64.7981806
51
80.5748115
0
ARC
8
side3_labelLayer
10
4.7911525
20
2.2148931
40
0.0981544
50
50.585298
51
64.458894
0
ARC
8
side3_labelLayer
10
4.7992818
20
2.2245409
40
0.0855392
50
3.739905
51
50.6889647
0
ARC
8
side3_labelLayer
10
4.763633
20
2.2190792
40
0.1215086
50
359.9316193
51
5.2135134
0
LINE
8
side0_outsideCutPath
10
0.1624131
20
8.132
11
0.1624131
21
7.489
0
LINE
8
side0_outsideCutPath
10
0.1624131
20
7.489
11
0
21
7.489
0
LINE
8
side0_outsideCutPath
10
0
20
7.489
11
0
21
6.663
0
LINE
8
side0_outsideCutPath
10
0
20
6.663
11
0.1624131
21
6.663
0
LINE
8
side0_outsideCutPath
10
0.1624131
20
6.663
11
0.1624131
21
5.837
0
LINE
8
side0_outsideCutPath
10
0.1624131
20
5.837
11
0
21
5.837
0
LINE
8
side0_outsideCutPath
10
0
20
5.837
11
0
21
5.011
0
LINE
8
side0_outsideCutPath
10
0
20
5.011
11
0.1624131
21
5.011
0
LINE
8
side0_outsideCutPath
10
0.1624131
20
5.011
11
0.1624131
21
4.368
0
LINE
8
side0_outsideCutPath
10
0.1624131
20
4.368
11
0.9610725
21
4.368
0
LINE
8
side0_outsideCutPath
10
0.9610725
20
4.368
11
0.9610725
21
4.25
0
LINE
8
side0_outsideCutPath
10
0.9610725
20
4.25
11
1.7870725
21
4.25
0
LINE
8
side0_outsideCutPath
10
1.7870725
20
4.25
11
1.7870725
21
4.368
0
LINE
8
side0_outsideCutPath
10
1.7870725
20
4.368
11
2.6130725
21
4.368
0
LINE
8
side0_outsideCutPath
10
2.6130725
20
4.368
11
2.7481451
21
4.368
0
LINE
8
side0_outsideCutPath
10
2.7481451
20
4.368
11
2.7481451
21
5.011
0
LINE
8
side0_outsideCutPath
10
2.7481451
20
5.011
11
2.585732
21
5.011
0
LINE
8
side0_outsideCutPath
10
2.585732
20
5.011
11
2.585732
21
5.837
0
LINE
8
side0_outsideCutPath
10
2.585732
20
5.837
11
2.7481451
21
5.837
0
LINE
8
side0_outsideCutPath
10
2.7481451
20
5.837
11
2.7481451
21
6.663
0
LINE
8
side0_outsideCutPath
10
2.7481451
20
6.663
11
2.585732
21
6.663
0
LINE
8
side0_outsideCutPath
10
2.585732
20
6.663
11
2.585732
21
7.489
0
LINE
8
side0_outsideCutPath
10
2.585732
20
7.489
11
2.7481451
21
7.489
0
LINE
8
side0_outsideCutPath
10
2.7481451
20
7.489
11
2.7481451
21
8.132
0
LINE
8
side0_outsideCutPath
10
2.7481451
20
8.132
11
1.7870725
21
8.132
0
LINE
8
side0_outsideCutPath
10
1.7870725
20
8.132
11
1.7870725
21
8.25
0
LINE
8
side0_outsideCutPath
10
1.7870725
20
8.25
11
0.9610725
21
8.25
0
LINE
8
side0_outsideCutPath
10
0.9610725
20
8.25
11
0.9610725
21
8.132
0
LINE
8
side0_outsideCutPath
10
0.9610725
20
8.132
11
0.1624131
21
8.132
0
LINE
8
side0_labelLayer
10
0.7224629
20
6.0570445
11
0.7224629
21
6.098374
0
LINE
8
side0_labelLayer
10
0.9240114
20
6.3240761
11
0.9081774
21
6.2878457
0
ARC
8
side0_labelLayer
10
0.8424834
20
6.1231318
40
0.0877064
50
342.01457
51
0.6572312
0
ARC
8
side0_labelLayer
10
0.8588272
20
6.1186792
40
0.0707911
50
305.156445
51
341.3577126
0
ARC
8
side0_labelLayer
10
0.8390373
20
6.1458628
40
0.1044124
50
286.1576139
51
305.4457705
0
ARC
8
side0_labelLayer
10
0.8220365
20
6.2018902
40
0.1629595
50
275.2025048
51
286.4170765
0
ARC
8
side0_labelLayer
10
0.8142681
20
6.2752393
40
0.2367132
50
269.8648969
51
275.465222
0
ARC
8
side0_labelLayer
10
0.8125487
20
6.3381596
40
0.2996352
50
263.6983703
51
270.2220396
0
ARC
8
side0_labelLayer
10
0.8002401
20
6.2303093
40
0.1910857
50
254.2789772
51
263.8172152
0
ARC
8
side0_labelLayer
10
0.7809727
20
6.1625799
40
0.1206695
50
240.9956086
51
254.3716022
0
ARC
8
side0_labelLayer
10
0.8215906
20
6.295433
40
0.2205868
50
243.2959863
51
255.8759431
0
LINE
8
side0_labelLayer
10
0.7677625
20
6.0815147
11
0.7679522
21
6.0814664
0
ARC
8
side0_labelLayer
10
0.8178951
20
6.2754193
40
0.2002798
50
255.5600269
51
264.8167378
0
ARC
8
side0_labelLayer
10
0.8148918
20
6.2469377
40
0.1716439
50
264.9562552
51
269.96382
0
ARC
8
side0_labelLayer
10
0.8154879
20
6.2511015
40
0.175809
50
269.7704147
51
276.3008527
0
ARC
8
side0_labelLayer
10
0.8228397
20
6.1863886
40
0.1106804
50
276.194599
51
285.5360901
0
ARC
8
side0_labelLayer
10
0.8346268
20
6.1448983
40
0.0675494
50
285.3296289
51
300.0554081
0
ARC
8
side0_labelLayer
10
0.8494404
20
6.1197023
40
0.0383227
50
299.7523732
51
325.7934927
0
ARC
8
side0_labelLayer
10
0.8497957
20
6.1184624
40
0.037341
50
327.0604943
51
355.6581874
0
ARC
8
side0_labelLayer
10
0.8360915
20
6.1203208
40
0.051153
50
354.7445554
51
0.0669477
0
ARC
8
side0_labelLayer
10
0.8516831
20
6.1205128
40
0.0355614
50
359.786988
51
46.0942812
0
ARC
8
side0_labelLayer
10
0.8400836
20
6.1102835
40
0.0509909
50
44.6744824
51
50.7446986
0
ARC
8
side0_labelLayer
10
0.8221592
20
6.087134
40
0.0802623
50
51.293608
51
59.3031565
0
ARC
8
side0_labelLayer
10
0.7752752
20
6.0096404
40
0.170833
50
59.0501194
51
63.5836012
0
ARC
8
side0_labelLayer
10
0.7098175
20
5.8786731
40
0.3172471
50
63.5191858
51
66.7162086
0
ARC
8
side0_labelLayer
10
0.6204586
20
5.6721557
40
0.5422678
50
66.6688776
51
68.8998348
0
ARC
8
side0_labelLayer
10
0.5541603
20
5.5033231
40
0.7236489
50
68.8148312
51
68.936052
0
ARC
8
side0_labelLayer
10
1.0474885
20
6.8066789
40
0.6699721
50
247.8789385
51
249.6266136
0
ARC
8
side0_labelLayer
10
0.9503187
20
6.5684718
40
0.4127089
50
245.320022
51
247.9229158
0
ARC
8
side0_labelLayer
10
0.8726346
20
6.4000858
40
0.2272674
50
241.5029471
51
245.3902294
0
ARC
8
side0_labelLayer
10
0.8215977
20
6.3060319
40
0.1202585
50
236.8722361
51
241.4929187
0
ARC
8
side0_labelLayer
10
0.8087896
20
6.2864956
40
0.0968982
50
226.7724748
51
236.9014896
0
ARC
8
side0_labelLayer
10
0.7899006
20
6.2666443
40
0.0694969
50
210.7686126
51
226.9102669
0
LINE
8
side0_labelLayer
10
0.730186
20
6.2310916
11
0.7301116
21
6.2312189
0
ARC
8
side0_labelLayer
10
0.7829212
20
6.2615601
40
0.0609052
50
189.4735748
51
209.8791253
0
ARC
8
side0_labelLayer
10
0.8041435
20
6.2654936
40
0.0824864
50
179.7600023
51
189.7421952
0
ARC
8
side0_labelLayer
10
0.7923333
20
6.2668163
40
0.0706822
50
157.026828
51
180.7921414
0
ARC
8
side0_labelLayer
10
0.7881465
20
6.2671878
40
0.0666951
50
126.584263
51
155.9168626
0
ARC
8
side0_labelLayer
10
0.8005845
20
6.2527193
40
0.085737
50
125.4066826
51
127.4958962
0
ARC
8
side0_labelLayer
10
0.8093303
20
6.2386742
40
0.1022566
50
105.5693498
51
124.8413024
0
ARC
8
side0_labelLayer
10
0.8243619
20
6.1873966
40
0.1556889
50
94.8664841
51
105.8331909
0
ARC
8
side0_labelLayer
10
0.8307236
20
6.1241319
40
0.2192674
50
89.8874906
51
95.1204188
0
ARC
8
side0_labelLayer
10
0.8307353
20
6.1086107
40
0.2347887
50
66.5919531
51
89.8977767
0
ARC
8
side0_labelLayer
10
0.8009504
20
6.030455
40
0.2788326
50
67.3837628
51
74.7672118
0
ARC
8
side0_labelLayer
10
0.8234341
20
6.1140605
40
0.1922571
50
74.6858902
51
84.9550426
0
ARC
8
side0_labelLayer
10
0.8278045
20
6.155434
40
0.1506612
50
85.2270505
51
89.950876
0
ARC
8
side0_labelLayer
10
0.8273648
20
6.1426663
40
0.1634298
50
89.8005604
51
95.6229672
0
ARC
8
side0_labelLayer
10
0.8211645
20
6.2033045
40
0.102476
50
95.4949026
51
104.2268619
0
ARC
8
side0_labelLayer
10
0.8106559
20
6.2438011
40
0.0606391
50
104.0059275
51
117.8906418
0
ARC
8
side0_labelLayer
10
0.8037396
20
6.2578949
40
0.0449497
50
118.5024703
51
121.6350416
0
ARC
8
side0_labelLayer
10
0.7996599
20
6.2636921
40
0.0378765
50
120.9803273
51
139.1816003
0
ARC
8
side0_labelLayer
10
0.7935262
20
6.2694504
40
0.0294726
50
139.858928
51
181.2816622
0
ARC
8
side0_labelLayer
10
0.8025886
20
6.2685055
40
0.0385289
50
179.5752387
51
194.5807483
0
ARC
8
side0_labelLayer
10
0.7948377
20
6.2665734
40
0.0305413
50
194.7333571
51
215.903873
0
ARC
8
side0_labelLayer
10
0.8030746
20
6.2730154
40
0.0409928
50
216.4457554
51
228.5575886
0
ARC
8
side0_labelLayer
10
0.8186798
20
6.2904053
40
0.0643574
50
228.3900124
51
236.2513602
0
ARC
8
side0_labelLayer
10
0.8351351
20
6.3146329
40
0.0936444
50
236.115187
51
240.8746748
0
ARC
8
side0_labelLayer
10
0.8521475
20
6.3463231
40
0.1296092
50
241.1235688
51
245.0643553
0
ARC
8
side0_labelLayer
10
0.9265341
20
6.5045023
40
0.3044056
50
244.920535
51
247.0987784
0
ARC
8
side0_labelLayer
10
1.0355106
20
6.7611315
40
0.5832144
50
247.0475914
51
248.4056012
0
ARC
8
side0_labelLayer
10
1.1803178
20
7.1259573
40
0.975728
50
248.3835549
51
249.3131754
0
ARC
8
side0_labelLayer
10
1.3104387
20
7.4686297
40
1.3422734
50
249.2841931
51
249.5327798
0
ARC
8
side0_labelLayer
10
0.6987614
20
5.8174712
40
0.4185596
50
66.5795382
51
70.1213258
0
ARC
8
side0_labelLayer
10
0.7640178
20
5.9673133
40
0.255125
50
61.5697207
51
66.6517461
0
ARC
8
side0_labelLayer
10
0.8187887
20
6.0676131
40
0.1408463
50
53.6805233
51
61.7380609
0
ARC
8
side0_labelLayer
10
0.8570341
20
6.1197379
40
0.0761957
50
44.0477702
51
53.6372565
0
ARC
8
side0_labelLayer
10
0.8638973
20
6.1271076
40
0.0661408
50
3.250205
51
43.5926066
0
ARC
8
side0_labelLayer
10
0.842303
20
6.124199
40
0.0878812
50
359.9601464
51
4.3453727
0
LINE
8
side0_labelLayer
10
1.0471949
20
6.3380316
11
1.0471949
21
6.0438941
0
LINE
8
side0_labelLayer
10
1.0471949
20
6.0438941
11
1.0026449
21
6.0438941
0
LINE
8
side0_labelLayer
10
1.0026449
20
6.0438941
11
1.0026449
21
6.3380316
0
LINE
8
side0_labelLayer
10
1.0026449
20
6.3380316
11
1.0471949
21
6.3380316
0
ARC
8
side0_labelLayer
10
1.0482466
20
6.4180438
40
0.0493599
50
170.8437952
51
180.3543949
0
ARC
8
side0_labelLayer
10
1.0297776
20
6.421132
40
0.0306351
50
155.9683148
51
171.0493948
0
ARC
8
side0_labelLayer
10
1.0208208
20
6.4251054
40
0.0208367
50
133.7873832
51
155.917132
0
ARC
8
side0_labelLayer
10
1.0241266
20
6.4214509
40
0.0257629
50
92.6455235
51
133.4708247
0
ARC
8
side0_labelLayer
10
1.0251731
20
6.4131757
40
0.034084
50
89.9745415
51
93.7608885
0
ARC
8
side0_labelLayer
10
1.0255949
20
6.4210145
40
0.0262482
50
46.3705138
51
90.8875903
0
ARC
8
side0_labelLayer
10
1.0282078
20
6.4237112
40
0.0224936
50
17.7258401
51
46.4483532
0
ARC
8
side0_labelLayer
10
1.0160291
20
6.4195166
40
0.0353722
50
4.9428108
51
18.1914672
0
ARC
8
side0_labelLayer
10
1.000511
20
6.417841
40
0.050978
50
359.8848403
51
5.316391
0
ARC
8
side0_labelLayer
10
1.0053887
20
6.4174255
40
0.0461013
50
349.8361354
51
0.3889989
0
ARC
8
side0_labelLayer
10
1.0221776
20
6.4142947
40
0.0290235
50
332.632378
51
350.071119
0
ARC
8
side0_labelLayer
10
1.0287079
20
6.4110705
40
0.0217423
50
313.6153334
51
332.2670366
0
ARC
8
side0_labelLayer
10
1.0255611
20
6.4139353
40
0.0259889
50
269.1780874
51
314.281214
0
ARC
8
side0_labelLayer
10
1.024893
20
6.4162469
40
0.0282994
50
250.5003529
51
270.5978619
0
ARC
8
side0_labelLayer
10
1.024037
20
6.413045
40
0.0249968
50
225.1309853
51
249.9000055
0
ARC
8
side0_labelLayer
10
1.0226947
20
6.411562
40
0.0229989
50
197.7922051
51
224.8945146
0
ARC
8
side0_labelLayer
10
1.0352453
20
6.4158641
40
0.0362648
50
184.9934392
51
198.2049323
0
ARC
8
side0_labelLayer
10
1.0514469
20
6.4176268
40
0.0525593
50
179.8782638
51
185.3704755
0
LINE
8
side0_labelLayer
10
1.3477733
20
6.0438941
11
1.341869
21
6.0833451
0
LINE
8
side0_labelLayer
10
1.341869
20
6.0833451
11
1.3394537
21
6.0833451
0
LINE
8
side0_labelLayer
10
1.3389169
20
6.2999225
11
1.3424058
21
6.2999225
0
LINE
8
side0_labelLayer
10
1.3424058
20
6.2999225
11
1.3405272
21
6.321124
0
LINE
8
side0_labelLayer
10
1.3405272
20
6.321124
11
1.3394537
21
6.3417888
0
LINE
8
side0_labelLayer
10
1.3394537
20
6.3417888
11
1.3394537
21
6.4614834
0
LINE
8
side0_labelLayer
10
1.3394537
20
6.4614834
11
1.3840037
21
6.4614834
0
LINE
8
side0_labelLayer
10
1.3840037
20
6.4614834
11
1.3840037
21
6.0438941
0
LINE
8
side0_labelLayer
10
1.3840037
20
6.0438941
11
1.3477733
21
6.0438941
0
LINE
8
side0_labelLayer
10
1.3394537
20
6.1807647
11
1.3394537
21
6.1901577
0
ARC
8
side0_labelLayer
10
1.2563405
20
6.1395125
40
0.1003124
50
275.418509
51
325.9493733
0
ARC
8
side0_labelLayer
10
1.2474806
20
6.1888538
40
0.1503274
50
269.8675962
51
277.0046567
0
ARC
8
side0_labelLayer
10
1.2457621
20
6.1735325
40
0.1350128
50
253.8531811
51
270.5818704
0
ARC
8
side0_labelLayer
10
1.2369632
20
6.1416261
40
0.1019189
50
218.6456387
51
253.6162772
0
ARC
8
side0_labelLayer
10
1.2593503
20
6.1590883
40
0.1303093
50
196.606925
51
218.4951066
0
ARC
8
side0_labelLayer
10
1.3278029
20
6.180599
40
0.2020573
50
184.8789805
51
196.904496
0
ARC
8
side0_labelLayer
10
1.4144211
20
6.1895836
40
0.28913
50
179.886217
51
185.193068
0
ARC
8
side0_labelLayer
10
1.3896401
20
6.1916969
40
0.264353
50
170.759275
51
180.3335988
0
ARC
8
side0_labelLayer
10
1.2971169
20
6.2072785
40
0.1705292
50
156.0194785
51
170.9345678
0
ARC
8
side0_labelLayer
10
1.2559959
20
6.2248853
40
0.1258031
50
141.5329198
51
155.7345828
0
ARC
8
side0_labelLayer
10
1.2397853
20
6.2380046
40
0.1049499
50
94.0774908
51
141.6354932
0
ARC
8
side0_labelLayer
10
1.24693
20
6.1928542
40
0.150545
50
89.9226675
51
95.5680925
0
ARC
8
side0_labelLayer
10
1.2485467
20
6.2122049
40
0.1312017
50
73.1655197
51
90.6172925
0
ARC
8
side0_labelLayer
10
1.2564979
20
6.2410675
40
0.101276
50
35.5304069
51
72.7421056
0
ARC
8
side0_labelLayer
10
1.2536936
20
6.2081333
40
0.1323059
50
269.5996045
51
280.1671917
0
ARC
8
side0_labelLayer
10
1.2629472
20
6.158607
40
0.0819248
50
279.9113635
51
297.5415737
0
ARC
8
side0_labelLayer
10
1.2728137
20
6.1389656
40
0.059948
50
297.8604518
51
320.278215
0
ARC
8
side0_labelLayer
10
1.2614033
20
6.1468809
40
0.0737926
50
321.2129237
51
340.6509385
0
ARC
8
side0_labelLayer
10
1.2116814
20
6.1650899
40
0.1267411
50
340.3315532
51
351.639813
0
ARC
8
side0_labelLayer
10
1.1283092
20
6.1779736
40
0.2111016
50
351.4702054
51
358.8760949
0
ARC
8
side0_labelLayer
10
1.0570996
20
6.1807118
40
0.2823543
50
358.6039912
51
0.0107167
0
ARC
8
side0_labelLayer
10
1.042209
20
6.1913271
40
0.2972469
50
359.7746062
51
5.6999826
0
ARC
8
side0_labelLayer
10
1.160165
20
6.2034687
40
0.1786686
50
5.5825064
51
14.2112588
0
ARC
8
side0_labelLayer
10
1.2355074
20
6.2230374
40
0.100829
50
13.942264
51
28.1044883
0
ARC
8
side0_labelLayer
10
1.2658379
20
6.2385193
40
0.0667847
50
28.6464469
51
37.7347464
0
ARC
8
side0_labelLayer
10
1.2676178
20
6.2390262
40
0.0650704
50
38.3408646
51
73.8125747
0
ARC
8
side0_labelLayer
10
1.2557023
20
6.2022242
40
0.103742
50
73.158965
51
86.845111
0
ARC
8
side0_labelLayer
10
1.2523562
20
6.1627176
40
0.1433776
50
86.3788488
51
90.0495151
0
ARC
8
side0_labelLayer
10
1.2512606
20
6.2261752
40
0.0799258
50
89.303402
51
108.831175
0
ARC
8
side0_labelLayer
10
1.2478686
20
6.2392543
40
0.0664595
50
109.7030045
51
146.8107063
0
ARC
8
side0_labelLayer
10
1.2795613
20
6.2173538
40
0.1049751
50
146.2763615
51
163.7412484
0
ARC
8
side0_labelLayer
10
1.3374637
20
6.1997735
40
0.1654854
50
163.510682
51
174.0981689
0
ARC
8
side0_labelLayer
10
1.4199264
20
6.1904065
40
0.2484757
50
173.9048827
51
180.1811229
0
ARC
8
side0_labelLayer
10
1.4176632
20
6.188508
40
0.2462139
50
179.740992
51
186.9783395
0
ARC
8
side0_labelLayer
10
1.3261786
20
6.1769561
40
0.1540041
50
186.8476001
51
197.4722014
0
ARC
8
side0_labelLayer
10
1.2690111
20
6.1584964
40
0.0939327
50
197.2014431
51
215.053832
0
ARC
8
side0_labelLayer
10
1.2468698
20
6.1433754
40
0.0671237
50
215.342766
51
264.7643862
0
ARC
8
side0_labelLayer
10
1.2525529
20
6.1756018
40
0.0997713
50
263.2029262
51
270.1241168
0
LINE
8
side0_labelLayer
10
1.7108827
20
6.2110909
11
1.7108827
21
6.1829116
0
LINE
8
side0_labelLayer
10
1.7108827
20
6.1829116
11
1.5082606
21
6.1829116
0
LINE
8
side0_labelLayer
10
1.6982691
20
6.0973005
11
1.6982691
21
6.0575812
0
LINE
8
side0_labelLayer
10
1.5093341
20
6.2191421
11
1.6631122
21
6.2191421
0
ARC
8
side0_labelLayer
10
1.6012625
20
6.2116318
40
0.1731113
50
256.0084037
51
270.4850894
0
ARC
8
side0_labelLayer
10
1.5886567
20
6.1626982
40
0.1225824
50
223.5464298
51
256.1956907
0
ARC
8
side0_labelLayer
10
1.5956131
20
6.1677544
40
0.1311129
50
194.0879926
51
223.0536068
0
ARC
8
side0_labelLayer
10
1.6593433
20
6.1851801
40
0.1971728
50
181.3577575
51
194.4915802
0
ARC
8
side0_labelLayer
10
1.7170514
20
6.1885036
40
0.254951
50
179.9901316
51
181.7971505
0
ARC
8
side0_labelLayer
10
1.6960212
20
6.1901166
40
0.2339261
50
168.953664
51
180.3843264
0
ARC
8
side0_labelLayer
10
1.6196271
20
6.2056727
40
0.1559681
50
149.4072465
51
169.1853086
0
ARC
8
side0_labelLayer
10
1.5983359
20
6.2169222
40
0.1319203
50
140.1054759
51
148.9068383
0
ARC
8
side0_labelLayer
10
1.5852608
20
6.2289777
40
0.1141599
50
92.4760968
51
140.5387427
0
ARC
8
side0_labelLayer
10
1.5910886
20
6.1859294
40
0.1574697
50
89.9637998
51
93.9180377
0
ARC
8
side0_labelLayer
10
1.5924797
20
6.207684
40
0.1357212
50
74.2122013
51
90.5452997
0
ARC
8
side0_labelLayer
10
1.6009797
20
6.2389988
40
0.1032757
50
41.2067013
51
74.0231944
0
ARC
8
side0_labelLayer
10
1.5848807
20
6.2250665
40
0.1245659
50
11.599634
51
41.1497211
0
ARC
8
side0_labelLayer
10
1.5295644
20
6.2123108
40
0.1813222
50
359.6145075
51
12.0333654
0
ARC
8
side0_labelLayer
10
1.6870334
20
6.1864833
40
0.1788084
50
181.1445572
51
190.8004989
0
ARC
8
side0_labelLayer
10
1.6239449
20
6.1740402
40
0.1145064
50
190.60008
51
206.0279049
0
ARC
8
side0_labelLayer
10
1.5960447
20
6.1608504
40
0.0836489
50
206.2955473
51
222.555577
0
ARC
8
side0_labelLayer
10
1.5935684
20
6.1595529
40
0.0809506
50
223.064451
51
258.1402539
0
ARC
8
side0_labelLayer
10
1.6034137
20
6.2000865
40
0.1226493
50
257.530707
51
270.431956
0
ARC
8
side0_labelLayer
10
1.6035242
20
6.3127319
40
0.2352925
50
270.1982622
51
292.2089766
0
ARC
8
side0_labelLayer
10
1.5923675
20
6.3448463
40
0.2692474
50
291.8238389
51
293.1615263
0
ARC
8
side0_labelLayer
10
1.5916798
20
6.3028867
40
0.2674623
50
287.9021582
51
293.4857438
0
ARC
8
side0_labelLayer
10
1.6110952
20
6.2429748
40
0.2044832
50
281.9929185
51
287.8856579
0
ARC
8
side0_labelLayer
10
1.6157867
20
6.2261156
40
0.1870202
50
275.905312
51
281.6602395
0
ARC
8
side0_labelLayer
10
1.6063677
20
6.3140541
40
0.2754614
50
271.9126248
51
275.9721757
0
ARC
8
side0_labelLayer
10
1.6029432
20
6.4013869
40
0.3628601
50
269.966048
51
271.9928199
0
ARC
8
side0_labelLayer
10
1.5897957
20
6.2182858
40
0.0878135
50
89.4417442
51
106.2094223
0
ARC
8
side0_labelLayer
10
1.5845138
20
6.2375436
40
0.0678474
50
106.4659902
51
137.9175184
0
ARC
8
side0_labelLayer
10
1.5996608
20
6.2242424
40
0.0880042
50
138.0995713
51
160.5866388
0
ARC
8
side0_labelLayer
10
1.6385967
20
6.209918
40
0.1294889
50
160.3351337
51
172.5312696
0
ARC
8
side0_labelLayer
10
1.677038
20
6.2037644
40
0.1684074
50
172.1554604
51
174.7609071
0
ARC
8
side0_labelLayer
10
1.5113188
20
6.2200055
40
0.1517958
50
359.6740914
51
8.9229284
0
ARC
8
side0_labelLayer
10
1.5655489
20
6.2288428
40
0.0968519
50
8.7342413
51
23.277122
0
ARC
8
side0_labelLayer
10
1.591306
20
6.2396554
40
0.0689188
50
23.4817673
51
39.7079464
0
ARC
8
side0_labelLayer
10
1.5976276
20
6.2443865
40
0.0610344
50
40.0825524
51
80.6243933
0
ARC
8
side0_labelLayer
10
1.5911164
20
6.2145471
40
0.0915493
50
79.6460164
51
90.2910513
0
ARC
8
side0_labelLayer
10
1.5082099
20
6.238725
40
0.5182835
50
354.3249671
51
0.2085975
0
ARC
8
side0_labelLayer
10
1.7043877
20
6.2185256
40
0.3210704
50
345.7175259
51
354.4500972
0
ARC
8
side0_labelLayer
10
1.8333058
20
6.1849391
40
0.1878528
50
332.033816
51
345.9444457
0
ARC
8
side0_labelLayer
10
1.8793361
20
6.1621562
40
0.1365216
50
327.4548403
51
331.4195658
0
ARC
8
side0_labelLayer
10
1.9059881
20
6.1432086
40
0.1038744
50
277.1730212
51
328.3563849
0
ARC
8
side0_labelLayer
10
1.8968177
20
6.1905453
40
0.1520192
50
269.8157151
51
278.3746188
0
ARC
8
side0_labelLayer
10
1.8947523
20
6.1620457
40
0.123529
50
250.2901444
51
270.7312143
0
ARC
8
side0_labelLayer
10
1.890395
20
6.1444121
40
0.1054752
50
213.0480204
51
249.287852
0
ARC
8
side0_labelLayer
10
1.9153426
20
6.163996
40
0.1370953
50
212.7056453
51
214.2227017
0
ARC
8
side0_labelLayer
10
1.9487496
20
6.1830618
40
0.1755191
50
196.1905973
51
212.0502997
0
ARC
8
side0_labelLayer
10
2.0595653
20
6.2165283
40
0.2912741
50
186.6949423
51
196.4345322
0
ARC
8
side0_labelLayer
10
2.2328666
20
6.237867
40
0.4658824
50
180.1431118
51
186.8166001
0
ARC
8
side0_labelLayer
10
2.3608859
20
6.2406026
40
0.5939131
50
179.9990987
51
180.3761694
0
ARC
8
side0_labelLayer
10
2.2934782
20
6.2425459
40
0.526509
50
174.3811416
51
180.2104576
0
ARC
8
side0_labelLayer
10
2.0935341
20
6.2628014
40
0.3255429
50
166.1419103
51
174.4834953
0
ARC
8
side0_labelLayer
10
1.9621141
20
6.2960446
40
0.1899875
50
152.86877
51
166.382609
0
ARC
8
side0_labelLayer
10
1.912282
20
6.3200183
40
0.1347131
50
147.3080764
51
152.2778845
0
ARC
8
side0_labelLayer
10
1.8867872
20
6.3381953
40
0.1034505
50
96.9083974
51
148.1539826
0
ARC
8
side0_labelLayer
10
1.8958676
20
6.2907518
40
0.1516778
50
89.8257798
51
98.1580221
0
ARC
8
side0_labelLayer
10
1.8979274
20
6.3179593
40
0.1244798
50
70.288617
51
90.7358324
0
ARC
8
side0_labelLayer
10
1.902437
20
6.3360398
40
0.105954
50
32.9205906
51
69.286627
0
ARC
8
side0_labelLayer
10
1.877148
20
6.3162949
40
0.1379421
50
32.6091861
51
34.0962873
0
ARC
8
side0_labelLayer
10
1.8415019
20
6.2958632
40
0.1789912
50
16.0189253
51
31.9693182
0
ARC
8
side0_labelLayer
10
1.7312799
20
6.2629607
40
0.2940155
50
6.4185547
51
16.2544573
0
ARC
8
side0_labelLayer
10
1.5586531
20
6.2425672
40
0.4678409
50
359.7605443
51
6.5370499
0
ARC
8
side0_labelLayer
10
2.3938605
20
6.2390723
40
0.581803
50
179.8483722
51
184.0070488
0
ARC
8
side0_labelLayer
10
2.1663558
20
6.2226033
40
0.3537041
50
183.9210523
51
189.9303291
0
ARC
8
side0_labelLayer
10
2.0130601
20
6.1951944
40
0.1979791
50
189.7676013
51
198.989256
0
ARC
8
side0_labelLayer
10
1.9383143
20
6.1700598
40
0.1191238
50
199.2560827
51
207.014148
0
ARC
8
side0_labelLayer
10
1.9009517
20
6.1501606
40
0.0768031
50
206.4490203
51
227.9546985
0
ARC
8
side0_labelLayer
10
1.8924155
20
6.1426601
40
0.0655293
50
229.1052534
51
265.8787063
0
ARC
8
side0_labelLayer
10
1.8962167
20
6.1685405
40
0.0916364
50
264.6710147
51
270.0700661
0
ARC
8
side0_labelLayer
10
1.8974393
20
6.1547444
40
0.0778482
50
269.1826519
51
290.3235092
0
ARC
8
side0_labelLayer
10
1.900574
20
6.1425825
40
0.0653674
50
291.4494945
51
329.3052809
0
ARC
8
side0_labelLayer
10
1.8791163
20
6.1576629
40
0.0915389
50
328.0443886
51
333.2694717
0
ARC
8
side0_labelLayer
10
1.8320098
20
6.1795792
40
0.1434781
50
333.9140663
51
346.1369029
0
ARC
8
side0_labelLayer
10
1.7140275
20
6.2099784
40
0.2653104
50
345.868076
51
353.2465219
0
ARC
8
side0_labelLayer
10
1.5382253
20
6.2318278
40
0.4424633
50
353.1139445
51
357.9044799
0
ARC
8
side0_labelLayer
10
1.3503011
20
6.2400941
40
0.6305656
50
357.7782493
51
0.0470569
0
ARC
8
side0_labelLayer
10
1.4112226
20
6.2421891
40
0.5696461
50
359.8413695
51
4.1549669
0
ARC
8
side0_labelLayer
10
1.632448
20
6.2586781
40
0.3478077
50
4.086287
51
10.0601554
0
ARC
8
side0_labelLayer
10
1.7814738
20
6.2857664
40
0.1963425
50
9.8734769
51
19.3309186
0
ARC
8
side0_labelLayer
10
1.8532356
20
6.3102212
40
0.1205332
50
19.6535813
51
26.7464505
0
ARC
8
side0_labelLayer
10
1.8925008
20
6.330955
40
0.0761427
50
26.1110612
51
48.1208698
0
ARC
8
side0_labelLayer
10
1.9005165
20
6.3378519
40
0.0656707
50
49.3109755
51
85.3488139
0
ARC
8
side0_labelLayer
10
1.8964637
20
6.311299
40
0.0924841
50
84.1801174
51
90.0835502
0
ARC
8
side0_labelLayer
10
1.8952363
20
6.3260124
40
0.0777784
50
89.1951548
51
110.2356905
0
ARC
8
side0_labelLayer
10
1.8921653
20
6.3380053
40
0.0654756
50
111.3442562
51
148.9741943
0
ARC
8
side0_labelLayer
10
1.9129759
20
6.3231757
40
0.0909741
50
147.7259567
51
152.6275625
0
ARC
8
side0_labelLayer
10
1.9529353
20
6.3042628
40
0.1351643
50
153.2960432
51
165.6117402
0
ARC
8
side0_labelLayer
10
2.0639052
20
6.2744786
40
0.2500579
50
165.319616
51
172.5706201
0
ARC
8
side0_labelLayer
10
2.2398229
20
6.2509719
40
0.4275386
50
172.4952377
51
177.7723798
0
ARC
8
side0_labelLayer
10
2.4462842
20
6.2412238
40
0.634225
50
177.6173862
51
180.0552775
0
LINE
8
side2_outsideCutPath
10
3.0355582
20
8.132
11
3.0355582
21
7.489
0
LINE
8
side2_outsideCutPath
10
3.0355582
20
7.489
11
2.8731451
21
7.489
0
LINE
8
side2_outsideCutPath
10
2.8731451
20
7.489
11
2.8731451
21
6.663
0
LINE
8
side2_outsideCutPath
10
2.8731451
20
6.663
11
3.0355582
21
6.663
0
LINE
8
side2_outsideCutPath
10
3.0355582
20
6.663
11
3.0355582
21
5.837
0
LINE
8
side2_outsideCutPath
10
3.0355582
20
5.837
11
2.8731451
21
5.837
0
LINE
8
side2_outsideCutPath
10
2.8731451
20
5.837
11
2.8731451
21
5.011
0
LINE
8
side2_outsideCutPath
10
2.8731451
20
5.011
11
3.0355582
21
5.011
0
LINE
8
side2_outsideCutPath
10
3.0355582
20
5.011
11
3.0355582
21
4.368
0
LINE
8
side2_outsideCutPath
10
3.0355582
20
4.368
11
3.8342176
21
4.368
0
LINE
8
side2_outsideCutPath
10
3.8342176
20
4.368
11
3.8342176
21
4.25
0
LINE
8
side2_outsideCutPath
10
3.8342176
20
4.25
11
4.6602176
21
4.25
0
LINE
8
side2_outsideCutPath
10
4.6602176
20
4.25
11
4.6602176
21
4.368
0
LINE
8
side2_outsideCutPath
10
4.6602176
20
4.368
11
5.4862176
21
4.368
0
LINE
8
side2_outsideCutPath
10
5.4862176
20
4.368
11
5.6212902
21
4.368
0
LINE
8
side2_outsideCutPath
10
5.6212902
20
4.368
11
5.6212902
21
5.011
0
LINE
8
side2_outsideCutPath
10
5.6212902
20
5.011
11
5.4588771
21
5.011
0
LINE
8
side2_outsideCutPath
10
5.4588771
20
5.011
11
5.4588771
21
5.837
0
LINE
8
side2_outsideCutPath
10
5.4588771
20
5.837
11
5.6212902
21
5.837
0
LINE
8
side2_outsideCutPath
10
5.6212902
20
5.837
11
5.6212902
21
6.663
0
LINE
8
side2_outsideCutPath
10
5.6212902
20
6.663
11
5.4588771
21
6.663
0
LINE
8
side2_outsideCutPath
10
5.4588771
20
6.663
11
5.4588771
21
7.489
0
LINE
8
side2_outsideCutPath
10
5.4588771
20
7.489
11
5.6212902
21
7.489
0
LINE
8
side2_outsideCutPath
10
5.6212902
20
7.489
11
5.6212902
21
8.132
0
LINE
8
side2_outsideCutPath
10
5.6212902
20
8.132
11
4.6602176
21
8.132
0
LINE
8
side2_outsideCutPath
10
4.6602176
20
8.132
11
4.6602176
21
8.25
0
LINE
8
side2_outsideCutPath
10
4.6602176
20
8.25
11
3.8342176
21
8.25
0
LINE
8
side2_outsideCutPath
10
3.8342176
20
8.25
11
3.8342176
21
8.132
0
LINE
8
side2_outsideCutPath
10
3.8342176
20
8.132
11
3.0355582
21
8.132
0
LINE
8
side2_labelLayer
10
3.5966835
20
6.0570429
11
3.5966835
21
6.0983724
0
LINE
8
side2_labelLayer
10
3.7982321
20
6.3240746
11
3.782398
21
6.2878442
0
ARC
8
side2_labelLayer
10
3.716704
20
6.1231302
40
0.0877064
50
342.01457
51
0.6572312
0
ARC
8
side2_labelLayer
10
3.7330478
20
6.1186777
40
0.0707911
50
305.156445
51
341.3577126
0
ARC
8
side2_labelLayer
10
3.7132579
20
6.1458613
40
0.1044124
50
286.1576139
51
305.4457705
0
ARC
8
side2_labelLayer
10
3.6962571
20
6.2018887
40
0.1629595
50
275.2025048
51
286.4170765
0
ARC
8
side2_labelLayer
10
3.6884887
20
6.2752377
40
0.2367132
50
269.8648969
51
275.465222
0
ARC
8
side2_labelLayer
10
3.6867694
20
6.3381581
40
0.2996352
50
263.6983703
51
270.2220396
0
ARC
8
side2_labelLayer
10
3.6744607
20
6.2303077
40
0.1910857
50
254.2789772
51
263.8172152
0
ARC
8
side2_labelLayer
10
3.6551934
20
6.1625783
40
0.1206695
50
240.9956086
51
254.3716022
0
ARC
8
side2_labelLayer
10
3.6958112
20
6.2954315
40
0.2205868
50
243.2959863
51
255.8759431
0
LINE
8
side2_labelLayer
10
3.6419831
20
6.0815132
11
3.6421729
21
6.0814649
0
ARC
8
side2_labelLayer
10
3.6921157
20
6.2754177
40
0.2002798
50
255.5600269
51
264.8167378
0
ARC
8
side2_labelLayer
10
3.6891124
20
6.2469361
40
0.1716439
50
264.9562552
51
269.96382
0
ARC
8
side2_labelLayer
10
3.6897085
20
6.2510999
40
0.175809
50
269.7704147
51
276.3008527
0
ARC
8
side2_labelLayer
10
3.6970603
20
6.1863871
40
0.1106804
50
276.194599
51
285.5360901
0
ARC
8
side2_labelLayer
10
3.7088474
20
6.1448967
40
0.0675494
50
285.3296289
51
300.0554081
0
ARC
8
side2_labelLayer
10
3.723661
20
6.1197007
40
0.0383227
50
299.7523732
51
325.7934927
0
ARC
8
side2_labelLayer
10
3.7240163
20
6.1184608
40
0.037341
50
327.0604943
51
355.6581874
0
ARC
8
side2_labelLayer
10
3.7103121
20
6.1203193
40
0.051153
50
354.7445554
51
0.0669477
0
ARC
8
side2_labelLayer
10
3.7259037
20
6.1205113
40
0.0355614
50
359.786988
51
46.0942812
0
ARC
8
side2_labelLayer
10
3.7143043
20
6.1102819
40
0.0509909
50
44.6744824
51
50.7446986
0
ARC
8
side2_labelLayer
10
3.6963798
20
6.0871325
40
0.0802623
50
51.293608
51
59.3031565
0
ARC
8
side2_labelLayer
10
3.6494958
20
6.0096389
40
0.170833
50
59.0501194
51
63.5836012
0
ARC
8
side2_labelLayer
10
3.5840381
20
5.8786716
40
0.3172471
50
63.5191858
51
66.7162086
0
ARC
8
side2_labelLayer
10
3.4946793
20
5.6721542
40
0.5422678
50
66.6688776
51
68.8998348
0
ARC
8
side2_labelLayer
10
3.4283809
20
5.5033216
40
0.7236489
50
68.8148312
51
68.936052
0
ARC
8
side2_labelLayer
10
3.9217091
20
6.8066773
40
0.6699721
50
247.8789385
51
249.6266136
0
ARC
8
side2_labelLayer
10
3.8245393
20
6.5684702
40
0.4127089
50
245.320022
51
247.9229158
0
ARC
8
side2_labelLayer
10
3.7468552
20
6.4000842
40
0.2272674
50
241.5029471
51
245.3902294
0
ARC
8
side2_labelLayer
10
3.6958183
20
6.3060303
40
0.1202585
50
236.8722361
51
241.4929187
0
ARC
8
side2_labelLayer
10
3.6830102
20
6.2864941
40
0.0968982
50
226.7724748
51
236.9014896
0
ARC
8
side2_labelLayer
10
3.6641212
20
6.2666427
40
0.0694969
50
210.7686126
51
226.9102669
0
LINE
8
side2_labelLayer
10
3.6044067
20
6.23109
11
3.6043322
21
6.2312173
0
ARC
8
side2_labelLayer
10
3.6571418
20
6.2615586
40
0.0609052
50
189.4735748
51
209.8791253
0
ARC
8
side2_labelLayer
10
3.6783641
20
6.265492
40
0.0824864
50
179.7600023
51
189.7421952
0
ARC
8
side2_labelLayer
10
3.6665539
20
6.2668147
40
0.0706822
50
157.026828
51
180.7921414
0
ARC
8
side2_labelLayer
10
3.6623672
20
6.2671863
40
0.0666951
50
126.584263
51
155.9168626
0
ARC
8
side2_labelLayer
10
3.6748051
20
6.2527177
40
0.085737
50
125.4066826
51
127.4958962
0
ARC
8
side2_labelLayer
10
3.6835509
20
6.2386727
40
0.1022566
50
105.5693498
51
124.8413024
0
ARC
8
side2_labelLayer
10
3.6985825
20
6.187395
40
0.1556889
50
94.8664841
51
105.8331909
0
ARC
8
side2_labelLayer
10
3.7049443
20
6.1241303
40
0.2192674
50
89.8874906
51
95.1204188
0
ARC
8
side2_labelLayer
10
3.7049559
20
6.1086092
40
0.2347887
50
66.5919531
51
89.8977767
0
ARC
8
side2_labelLayer
10
3.675171
20
6.0304534
40
0.2788326
50
67.3837628
51
74.7672118
0
ARC
8
side2_labelLayer
10
3.6976547
20
6.1140589
40
0.1922571
50
74.6858902
51
84.9550426
0
ARC
8
side2_labelLayer
10
3.7020252
20
6.1554324
40
0.1506612
50
85.2270505
51
89.950876
0
ARC
8
side2_labelLayer
10
3.7015855
20
6.1426647
40
0.1634298
50
89.8005604
51
95.6229672
0
ARC
8
side2_labelLayer
10
3.6953851
20
6.203303
40
0.102476
50
95.4949026
51
104.2268619
0
ARC
8
side2_labelLayer
10
3.6848765
20
6.2437996
40
0.0606391
50
104.0059275
51
117.8906418
0
ARC
8
side2_labelLayer
10
3.6779602
20
6.2578933
40
0.0449497
50
118.5024703
51
121.6350416
0
ARC
8
side2_labelLayer
10
3.6738805
20
6.2636906
40
0.0378765
50
120.9803273
51
139.1816003
0
ARC
8
side2_labelLayer
10
3.6677468
20
6.2694489
40
0.0294726
50
139.858928
51
181.2816622
0
ARC
8
side2_labelLayer
10
3.6768093
20
6.268504
40
0.0385289
50
179.5752387
51
194.5807483
0
ARC
8
side2_labelLayer
10
3.6690584
20
6.2665719
40
0.0305413
50
194.7333571
51
215.903873
0
ARC
8
side2_labelLayer
10
3.6772952
20
6.2730138
40
0.0409928
50
216.4457554
51
228.5575886
0
ARC
8
side2_labelLayer
10
3.6929005
20
6.2904037
40
0.0643574
50
228.3900124
51
236.2513602
0
ARC
8
side2_labelLayer
10
3.7093557
20
6.3146314
40
0.0936444
50
236.115187
51
240.8746748
0
ARC
8
side2_labelLayer
10
3.7263681
20
6.3463216
40
0.1296092
50
241.1235688
51
245.0643553
0
ARC
8
side2_labelLayer
10
3.8007547
20
6.5045007
40
0.3044056
50
244.920535
51
247.0987784
0
ARC
8
side2_labelLayer
10
3.9097312
20
6.76113
40
0.5832144
50
247.0475914
51
248.4056012
0
ARC
8
side2_labelLayer
10
4.0545385
20
7.1259557
40
0.975728
50
248.3835549
51
249.3131754
0
ARC
8
side2_labelLayer
10
4.1846593
20
7.4686282
40
1.3422734
50
249.2841931
51
249.5327798
0
ARC
8
side2_labelLayer
10
3.572982
20
5.8174697
40
0.4185596
50
66.5795382
51
70.1213258
0
ARC
8
side2_labelLayer
10
3.6382384
20
5.9673117
40
0.255125
50
61.5697207
51
66.6517461
0
ARC
8
side2_labelLayer
10
3.6930094
20
6.0676115
40
0.1408463
50
53.6805233
51
61.7380609
0
ARC
8
side2_labelLayer
10
3.7312548
20
6.1197364
40
0.0761957
50
44.0477702
51
53.6372565
0
ARC
8
side2_labelLayer
10
3.7381179
20
6.1271061
40
0.0661408
50
3.250205
51
43.5926066
0
ARC
8
side2_labelLayer
10
3.7165237
20
6.1241974
40
0.0878812
50
359.9601464
51
4.3453727
0
LINE
8
side2_labelLayer
10
3.9214155
20
6.33803
11
3.9214155
21
6.0438926
0
LINE
8
side2_labelLayer
10
3.9214155
20
6.0438926
11
3.8768655
21
6.0438926
0
LINE
8
side2_labelLayer
10
3.8768655
20
6.0438926
11
3.8768655
21
6.33803
0
LINE
8
side2_labelLayer
10
3.8768655
20
6.33803
11
3.9214155
21
6.33803
0
ARC
8
side2_labelLayer
10
3.9224673
20
6.4180423
40
0.0493599
50
170.8437952
51
180.3543949
0
ARC
8
side2_labelLayer
10
3.9039983
20
6.4211304
40
0.0306351
50
155.9683148
51
171.0493948
0
ARC
8
side2_labelLayer
10
3.8950414
20
6.4251038
40
0.0208367
50
133.7873832
51
155.917132
0
ARC
8
side2_labelLayer
10
3.8983472
20
6.4214494
40
0.0257629
50
92.6455235
51
133.4708247
0
ARC
8
side2_labelLayer
10
3.8993937
20
6.4131741
40
0.034084
50
89.9745415
51
93.7608885
0
ARC
8
side2_labelLayer
10
3.8998155
20
6.4210129
40
0.0262482
50
46.3705138
51
90.8875903
0
ARC
8
side2_labelLayer
10
3.9024284
20
6.4237096
40
0.0224936
50
17.7258401
51
46.4483532
0
ARC
8
side2_labelLayer
10
3.8902497
20
6.4195151
40
0.0353722
50
4.9428108
51
18.1914672
0
ARC
8
side2_labelLayer
10
3.8747316
20
6.4178394
40
0.050978
50
359.8848403
51
5.316391
0
ARC
8
side2_labelLayer
10
3.8796093
20
6.417424
40
0.0461013
50
349.8361354
51
0.3889989
0
ARC
8
side2_labelLayer
10
3.8963982
20
6.4142932
40
0.0290235
50
332.632378
51
350.071119
0
ARC
8
side2_labelLayer
10
3.9029285
20
6.411069
40
0.0217423
50
313.6153334
51
332.2670366
0
ARC
8
side2_labelLayer
10
3.8997817
20
6.4139338
40
0.0259889
50
269.1780874
51
314.281214
0
ARC
8
side2_labelLayer
10
3.8991136
20
6.4162453
40
0.0282994
50
250.5003529
51
270.5978619
0
ARC
8
side2_labelLayer
10
3.8982576
20
6.4130435
40
0.0249968
50
225.1309853
51
249.9000055
0
ARC
8
side2_labelLayer
10
3.8969153
20
6.4115605
40
0.0229989
50
197.7922051
51
224.8945146
0
ARC
8
side2_labelLayer
10
3.909466
20
6.4158625
40
0.0362648
50
184.9934392
51
198.2049323
0
ARC
8
side2_labelLayer
10
3.9256675
20
6.4176253
40
0.0525593
50
179.8782638
51
185.3704755
0
LINE
8
side2_labelLayer
10
4.2219939
20
6.0438926
11
4.2160897
21
6.0833435
0
LINE
8
side2_labelLayer
10
4.2160897
20
6.0833435
11
4.2136743
21
6.0833435
0
LINE
8
side2_labelLayer
10
4.2131376
20
6.299921
11
4.2166264
21
6.299921
0
LINE
8
side2_labelLayer
10
4.2166264
20
6.299921
11
4.2147478
21
6.3211225
0
LINE
8
side2_labelLayer
10
4.2147478
20
6.3211225
11
4.2136743
21
6.3417872
0
LINE
8
side2_labelLayer
10
4.2136743
20
6.3417872
11
4.2136743
21
6.4614818
0
LINE
8
side2_labelLayer
10
4.2136743
20
6.4614818
11
4.2582243
21
6.4614818
0
LINE
8
side2_labelLayer
10
4.2582243
20
6.4614818
11
4.2582243
21
6.0438926
0
LINE
8
side2_labelLayer
10
4.2582243
20
6.0438926
11
4.2219939
21
6.0438926
0
LINE
8
side2_labelLayer
10
4.2136743
20
6.1807631
11
4.2136743
21
6.1901562
0
ARC
8
side2_labelLayer
10
4.1305611
20
6.139511
40
0.1003124
50
275.418509
51
325.9493733
0
ARC
8
side2_labelLayer
10
4.1217012
20
6.1888523
40
0.1503274
50
269.8675962
51
277.0046567
0
ARC
8
side2_labelLayer
10
4.1199827
20
6.173531
40
0.1350128
50
253.8531811
51
270.5818704
0
ARC
8
side2_labelLayer
10
4.1111839
20
6.1416246
40
0.1019189
50
218.6456387
51
253.6162772
0
ARC
8
side2_labelLayer
10
4.1335709
20
6.1590868
40
0.1303093
50
196.606925
51
218.4951066
0
ARC
8
side2_labelLayer
10
4.2020235
20
6.1805975
40
0.2020573
50
184.8789805
51
196.904496
0
ARC
8
side2_labelLayer
10
4.2886417
20
6.189582
40
0.28913
50
179.886217
51
185.193068
0
ARC
8
side2_labelLayer
10
4.2638607
20
6.1916953
40
0.264353
50
170.759275
51
180.3335988
0
ARC
8
side2_labelLayer
10
4.1713375
20
6.2072769
40
0.1705292
50
156.0194785
51
170.9345678
0
ARC
8
side2_labelLayer
10
4.1302165
20
6.2248838
40
0.1258031
50
141.5329198
51
155.7345828
0
ARC
8
side2_labelLayer
10
4.114006
20
6.238003
40
0.1049499
50
94.0774908
51
141.6354932
0
ARC
8
side2_labelLayer
10
4.1211506
20
6.1928527
40
0.150545
50
89.9226675
51
95.5680925
0
ARC
8
side2_labelLayer
10
4.1227673
20
6.2122034
40
0.1312017
50
73.1655197
51
90.6172925
0
ARC
8
side2_labelLayer
10
4.1307185
20
6.241066
40
0.101276
50
35.5304069
51
72.7421056
0
ARC
8
side2_labelLayer
10
4.1279142
20
6.2081318
40
0.1323059
50
269.5996045
51
280.1671917
0
ARC
8
side2_labelLayer
10
4.1371678
20
6.1586054
40
0.0819248
50
279.9113635
51
297.5415737
0
ARC
8
side2_labelLayer
10
4.1470343
20
6.138964
40
0.059948
50
297.8604518
51
320.278215
0
ARC
8
side2_labelLayer
10
4.1356239
20
6.1468794
40
0.0737926
50
321.2129237
51
340.6509385
0
ARC
8
side2_labelLayer
10
4.085902
20
6.1650883
40
0.1267411
50
340.3315532
51
351.639813
0
ARC
8
side2_labelLayer
10
4.0025298
20
6.1779721
40
0.2111016
50
351.4702054
51
358.8760949
0
ARC
8
side2_labelLayer
10
3.9313202
20
6.1807103
40
0.2823543
50
358.6039912
51
0.0107167
0
ARC
8
side2_labelLayer
10
3.9164297
20
6.1913255
40
0.2972469
50
359.7746062
51
5.6999826
0
ARC
8
side2_labelLayer
10
4.0343856
20
6.2034672
40
0.1786686
50
5.5825064
51
14.2112588
0
ARC
8
side2_labelLayer
10
4.1097281
20
6.2230358
40
0.100829
50
13.942264
51
28.1044883
0
ARC
8
side2_labelLayer
10
4.1400585
20
6.2385177
40
0.0667847
50
28.6464469
51
37.7347464
0
ARC
8
side2_labelLayer
10
4.1418384
20
6.2390247
40
0.0650704
50
38.3408646
51
73.8125747
0
ARC
8
side2_labelLayer
10
4.1299229
20
6.2022227
40
0.103742
50
73.158965
51
86.845111
0
ARC
8
side2_labelLayer
10
4.1265768
20
6.1627161
40
0.1433776
50
86.3788488
51
90.0495151
0
ARC
8
side2_labelLayer
10
4.1254812
20
6.2261737
40
0.0799258
50
89.303402
51
108.831175
0
ARC
8
side2_labelLayer
10
4.1220892
20
6.2392528
40
0.0664595
50
109.7030045
51
146.8107063
0
ARC
8
side2_labelLayer
10
4.1537819
20
6.2173523
40
0.1049751
50
146.2763615
51
163.7412484
0
ARC
8
side2_labelLayer
10
4.2116844
20
6.199772
40
0.1654854
50
163.510682
51
174.0981689
0
ARC
8
side2_labelLayer
10
4.294147
20
6.1904049
40
0.2484757
50
173.9048827
51
180.1811229
0
ARC
8
side2_labelLayer
10
4.2918838
20
6.1885064
40
0.2462139
50
179.740992
51
186.9783395
0
ARC
8
side2_labelLayer
10
4.2003993
20
6.1769546
40
0.1540041
50
186.8476001
51
197.4722014
0
ARC
8
side2_labelLayer
10
4.1432318
20
6.1584949
40
0.0939327
50
197.2014431
51
215.053832
0
ARC
8
side2_labelLayer
10
4.1210904
20
6.1433738
40
0.0671237
50
215.342766
51
264.7643862
0
ARC
8
side2_labelLayer
10
4.1267735
20
6.1756002
40
0.0997713
50
263.2029262
51
270.1241168
0
LINE
8
side2_labelLayer
10
4.5851033
20
6.2110893
11
4.5851033
21
6.1829101
0
LINE
8
side2_labelLayer
10
4.5851033
20
6.1829101
11
4.3824813
21
6.1829101
0
LINE
8
side2_labelLayer
10
4.5724897
20
6.0972989
11
4.5724897
21
6.0575797
0
LINE
8
side2_labelLayer
10
4.3835548
20
6.2191405
11
4.5373328
21
6.2191405
0
ARC
8
side2_labelLayer
10
4.4754831
20
6.2116303
40
0.1731113
50
256.0084037
51
270.4850894
0
ARC
8
side2_labelLayer
10
4.4628773
20
6.1626967
40
0.1225824
50
223.5464298
51
256.1956907
0
ARC
8
side2_labelLayer
10
4.4698337
20
6.1677529
40
0.1311129
50
194.0879926
51
223.0536068
0
ARC
8
side2_labelLayer
10
4.5335639
20
6.1851785
40
0.1971728
50
181.3577575
51
194.4915802
0
ARC
8
side2_labelLayer
10
4.591272
20
6.188502
40
0.254951
50
179.9901316
51
181.7971505
0
ARC
8
side2_labelLayer
10
4.5702418
20
6.190115
40
0.2339261
50
168.953664
51
180.3843264
0
ARC
8
side2_labelLayer
10
4.4938477
20
6.2056712
40
0.1559681
50
149.4072465
51
169.1853086
0
ARC
8
side2_labelLayer
10
4.4725565
20
6.2169206
40
0.1319203
50
140.1054759
51
148.9068383
0
ARC
8
side2_labelLayer
10
4.4594814
20
6.2289762
40
0.1141599
50
92.4760968
51
140.5387427
0
ARC
8
side2_labelLayer
10
4.4653092
20
6.1859278
40
0.1574697
50
89.9637998
51
93.9180377
0
ARC
8
side2_labelLayer
10
4.4667004
20
6.2076824
40
0.1357212
50
74.2122013
51
90.5452997
0
ARC
8
side2_labelLayer
10
4.4752003
20
6.2389972
40
0.1032757
50
41.2067013
51
74.0231944
0
ARC
8
side2_labelLayer
10
4.4591013
20
6.2250649
40
0.1245659
50
11.599634
51
41.1497211
0
ARC
8
side2_labelLayer
10
4.403785
20
6.2123093
40
0.1813222
50
359.6145075
51
12.0333654
0
ARC
8
side2_labelLayer
10
4.561254
20
6.1864818
40
0.1788084
50
181.1445572
51
190.8004989
0
ARC
8
side2_labelLayer
10
4.4981655
20
6.1740387
40
0.1145064
50
190.60008
51
206.0279049
0
ARC
8
side2_labelLayer
10
4.4702653
20
6.1608489
40
0.0836489
50
206.2955473
51
222.555577
0
ARC
8
side2_labelLayer
10
4.4677891
20
6.1595514
40
0.0809506
50
223.064451
51
258.1402539
0
ARC
8
side2_labelLayer
10
4.4776343
20
6.200085
40
0.1226493
50
257.530707
51
270.431956
0
ARC
8
side2_labelLayer
10
4.4777448
20
6.3127303
40
0.2352925
50
270.1982622
51
292.2089766
0
ARC
8
side2_labelLayer
10
4.4665882
20
6.3448448
40
0.2692474
50
291.8238389
51
293.1615263
0
ARC
8
side2_labelLayer
10
4.4659004
20
6.3028852
40
0.2674623
50
287.9021582
51
293.4857438
0
ARC
8
side2_labelLayer
10
4.4853158
20
6.2429733
40
0.2044832
50
281.9929185
51
287.8856579
0
ARC
8
side2_labelLayer
10
4.4900073
20
6.226114
40
0.1870202
50
275.905312
51
281.6602395
0
ARC
8
side2_labelLayer
10
4.4805883
20
6.3140525
40
0.2754614
50
271.9126248
51
275.9721757
0
ARC
8
side2_labelLayer
10
4.4771638
20
6.4013853
40
0.3628601
50
269.966048
51
271.9928199
0
ARC
8
side2_labelLayer
10
4.4640164
20
6.2182842
40
0.0878135
50
89.4417442
51
106.2094223
0
ARC
8
side2_labelLayer
10
4.4587344
20
6.2375421
40
0.0678474
50
106.4659902
51
137.9175184
0
ARC
8
side2_labelLayer
10
4.4738814
20
6.2242409
40
0.0880042
50
138.0995713
51
160.5866388
0
ARC
8
side2_labelLayer
10
4.5128174
20
6.2099165
40
0.1294889
50
160.3351337
51
172.5312696
0
ARC
8
side2_labelLayer
10
4.5512586
20
6.2037629
40
0.1684074
50
172.1554604
51
174.7609071
0
ARC
8
side2_labelLayer
10
4.3855394
20
6.220004
40
0.1517958
50
359.6740914
51
8.9229284
0
ARC
8
side2_labelLayer
10
4.4397695
20
6.2288413
40
0.0968519
50
8.7342413
51
23.277122
0
ARC
8
side2_labelLayer
10
4.4655267
20
6.2396539
40
0.0689188
50
23.4817673
51
39.7079464
0
ARC
8
side2_labelLayer
10
4.4718482
20
6.2443849
40
0.0610344
50
40.0825524
51
80.6243933
0
ARC
8
side2_labelLayer
10
4.465337
20
6.2145455
40
0.0915493
50
79.6460164
51
90.2910513
0
LINE
8
side2_labelLayer
10
4.8985636
20
6.0852221
11
4.8985636
21
6.0438926
0
LINE
8
side2_labelLayer
10
4.8985636
20
6.0438926
11
4.6406566
21
6.0438926
0
LINE
8
side2_labelLayer
10
4.6406566
20
6.0438926
11
4.6406566
21
6.08227
0
LINE
8
side2_labelLayer
10
4.6406566
20
6.08227
11
4.7439804
21
6.1861306
0
LINE
8
side2_labelLayer
10
4.6693726
20
6.3664776
11
4.6457557
21
6.3968038
0
LINE
8
side2_labelLayer
10
4.7826262
20
6.17137
11
4.6967467
21
6.0873691
0
LINE
8
side2_labelLayer
10
4.6967467
20
6.0873691
11
4.6967467
21
6.0852221
0
LINE
8
side2_labelLayer
10
4.6967467
20
6.0852221
11
4.8985636
21
6.0852221
0
ARC
8
side2_labelLayer
10
3.3506047
20
7.5654114
40
1.9605896
50
315.291264
51
316.1439579
0
ARC
8
side2_labelLayer
10
3.9271876
20
7.0119644
40
1.1613704
50
316.1240455
51
317.3584661
0
ARC
8
side2_labelLayer
10
4.3247623
20
6.6462965
40
0.6212052
50
317.3277301
51
319.1307061
0
ARC
8
side2_labelLayer
10
4.5825259
20
6.4239653
40
0.2808046
50
319.0213065
51
322.2233238
0
ARC
8
side2_labelLayer
10
4.6842783
20
6.3442557
40
0.1515517
50
322.4769115
51
323.5884092
0
ARC
8
side2_labelLayer
10
4.6429883
20
6.3753294
40
0.2032261
50
323.4479212
51
330.1297084
0
ARC
8
side2_labelLayer
10
4.689146
20
6.3489107
40
0.1500426
50
330.0994824
51
338.5397532
0
ARC
8
side2_labelLayer
10
4.7239855
20
6.3343137
40
0.1122813
50
338.9677545
51
358.1951004
0
ARC
8
side2_labelLayer
10
4.7071659
20
6.3355924
40
0.1291349
50
357.8630774
51
0.009849
0
ARC
8
side2_labelLayer
10
4.7528259
20
6.3363485
40
0.0834783
50
359.496315
51
14.4127312
0
ARC
8
side2_labelLayer
10
4.775672
20
6.3423257
40
0.0598635
50
14.314592
51
46.013788
0
ARC
8
side2_labelLayer
10
4.7739337
20
6.3398116
40
0.0628817
50
46.4650825
51
76.3609911
0
ARC
8
side2_labelLayer
10
4.7658149
20
6.3094785
40
0.0942768
50
75.9129293
51
88.868724
0
ARC
8
side2_labelLayer
10
4.7643943
20
6.2835479
40
0.1202337
50
88.4358568
51
90.0083249
0
ARC
8
side2_labelLayer
10
4.7636496
20
6.2708409
40
0.1329426
50
89.6865815
51
110.045038
0
ARC
8
side2_labelLayer
10
4.7629416
20
6.2759801
40
0.1278767
50
110.5362795
51
118.9824916
0
ARC
8
side2_labelLayer
10
4.7958485
20
6.2159131
40
0.1963666
50
118.8893726
51
124.8360057
0
ARC
8
side2_labelLayer
10
4.8425986
20
6.1478898
40
0.278905
50
124.7364088
51
128.3960552
0
ARC
8
side2_labelLayer
10
4.7765596
20
6.2422943
40
0.2024422
50
112.618457
51
130.2504185
0
ARC
8
side2_labelLayer
10
4.7634125
20
6.2709959
40
0.1708953
50
89.8566415
51
112.2504996
0
ARC
8
side2_labelLayer
10
4.7650591
20
6.2679876
40
0.1739072
50
78.7521918
51
90.4016092
0
ARC
8
side2_labelLayer
10
4.7770379
20
6.3257773
40
0.1148919
50
58.7560809
51
78.9899083
0
ARC
8
side2_labelLayer
10
4.7855413
20
6.3414709
40
0.0970678
50
47.9742512
51
58.2426278
0
ARC
8
side2_labelLayer
10
4.7880355
20
6.34414
40
0.0934153
50
5.6516614
51
48.0146865
0
ARC
8
side2_labelLayer
10
4.7505534
20
6.3377551
40
0.1313711
50
359.8858166
51
6.8130271
0
ARC
8
side2_labelLayer
10
4.7419062
20
6.3381977
40
0.14002
50
336.3327515
51
359.7117242
0
ARC
8
side2_labelLayer
10
4.7087337
20
6.3513307
40
0.1756791
50
330.0750579
51
336.7527646
0
ARC
8
side2_labelLayer
10
4.6635108
20
6.3789547
40
0.2286578
50
322.6765937
51
329.7290252
0
ARC
8
side2_labelLayer
10
4.5065272
20
6.4972549
40
0.4252237
50
318.3411155
51
322.8255941
0
ARC
8
side2_labelLayer
10
4.2883203
20
6.6903947
40
0.7166287
50
315.2194591
51
318.4005345
0
ARC
8
side2_labelLayer
10
4.0834955
20
6.8911416
40
1.0034216
50
314.1665724
51
315.3213847
0
LINE
8
side4_outsideCutPath
10
5.9087032
20
4.007
11
5.9087032
21
3.364
0
LINE
8
side4_outsideCutPath
10
5.9087032
20
3.364
11
5.7462902
21
3.364
0
LINE
8
side4_outsideCutPath
10
5.7462902
20
3.364
11
5.7462902
21
2.538
0
LINE
8
side4_outsideCutPath
10
5.7462902
20
2.538
11
5.9087032
21
2.538
0
LINE
8
side4_outsideCutPath
10
5.9087032
20
2.538
11
5.9087032
21
1.712
0
LINE
8
side4_outsideCutPath
10
5.9087032
20
1.712
11
5.7462902
21
1.712
0
LINE
8
side4_outsideCutPath
10
5.7462902
20
1.712
11
5.7462902
21
0.886
0
LINE
8
side4_outsideCutPath
10
5.7462902
20
0.886
11
5.9087032
21
0.886
0
LINE
8
side4_outsideCutPath
10
5.9087032
20
0.886
11
5.9087032
21
0.243
0
LINE
8
side4_outsideCutPath
10
5.9087032
20
0.243
11
6.7073627
21
0.243
0
LINE
8
side4_outsideCutPath
10
6.7073627
20
0.243
11
6.7073627
21
0.125
0
LINE
8
side4_outsideCutPath
10
6.7073627
20
0.125
11
7.5333627
21
0.125
0
LINE
8
side4_outsideCutPath
10
7.5333627
20
0.125
11
7.5333627
21
0.243
0
LINE
8
side4_outsideCutPath
10
7.5333627
20
0.243
11
8.3593627
21
0.243
0
LINE
8
side4_outsideCutPath
10
8.3593627
20
0.243
11
8.4944353
21
0.243
0
LINE
8
side4_outsideCutPath
10
8.4944353
20
0.243
11
8.4944353
21
0.886
0
LINE
8
side4_outsideCutPath
10
8.4944353
20
0.886
11
8.3320222
21
0.886
0
LINE
8
side4_outsideCutPath
10
8.3320222
20
0.886
11
8.3320222
21
1.712
0
LINE
8
side4_outsideCutPath
10
8.3320222
20
1.712
11
8.4944353
21
1.712
0
LINE
8
side4_outsideCutPath
10
8.4944353
20
1.712
11
8.4944353
21
2.538
0
LINE
8
side4_outsideCutPath
10
8.4944353
20
2.538
11
8.3320222
21
2.538
0
LINE
8
side4_outsideCutPath
10
8.3320222
20
2.538
11
8.3320222
21
3.364
0
LINE
8
side4_outsideCutPath
10
8.3320222
20
3.364
11
8.4944353
21
3.364
0
LINE
8
side4_outsideCutPath
10
8.4944353
20
3.364
11
8.4944353
21
4.007
0
LINE
8
side4_outsideCutPath
10
8.4944353
20
4.007
11
7.5333627
21
4.007
0
LINE
8
side4_outsideCutPath
10
7.5333627
20
4.007
11
7.5333627
21
4.125
0
LINE
8
side4_outsideCutPath
10
7.5333627
20
4.125
11
6.7073627
21
4.125
0
LINE
8
side4_outsideCutPath
10
6.7073627
20
4.125
11
6.7073627
21
4.007
0
LINE
8
side4_outsideCutPath
10
6.7073627
20
4.007
11
5.9087032
21
4.007
0
LINE
8
side4_labelLayer
10
6.4605697
20
1.9320429
11
6.4605697
21
1.9733724
0
LINE
8
side4_labelLayer
10
6.6621183
20
2.1990746
11
6.6462842
21
2.1628442
0
ARC
8
side4_labelLayer
10
6.5805902
20
1.9981302
40
0.0877064
50
342.01457
51
0.6572312
0
ARC
8
side4_labelLayer
10
6.596934
20
1.9936777
40
0.0707911
50
305.156445
51
341.3577126
0
ARC
8
side4_labelLayer
10
6.5771441
20
2.0208613
40
0.1044124
50
286.1576139
51
305.4457705
0
ARC
8
side4_labelLayer
10
6.5601433
20
2.0768887
40
0.1629595
50
275.2025048
51
286.4170765
0
ARC
8
side4_labelLayer
10
6.5523749
20
2.1502377
40
0.2367132
50
269.8648969
51
275.465222
0
ARC
8
side4_labelLayer
10
6.5506556
20
2.2131581
40
0.2996352
50
263.6983703
51
270.2220396
0
ARC
8
side4_labelLayer
10
6.5383469
20
2.1053077
40
0.1910857
50
254.2789772
51
263.8172152
0
ARC
8
side4_labelLayer
10
6.5190795
20
2.0375783
40
0.1206695
50
240.9956086
51
254.3716022
0
ARC
8
side4_labelLayer
10
6.5596974
20
2.1704315
40
0.2205868
50
243.2959863
51
255.8759431
0
LINE
8
side4_labelLayer
10
6.5058693
20
1.9565132
11
6.506059
21
1.9564649
0
ARC
8
side4_labelLayer
10
6.5560019
20
2.1504177
40
0.2002798
50
255.5600269
51
264.8167378
0
ARC
8
side4_labelLayer
10
6.5529986
20
2.1219361
40
0.1716439
50
264.9562552
51
269.96382
0
ARC
8
side4_labelLayer
10
6.5535947
20
2.1260999
40
0.175809
50
269.7704147
51
276.3008527
0
ARC
8
side4_labelLayer
10
6.5609465
20
2.0613871
40
0.1106804
50
276.194599
51
285.5360901
0
ARC
8
side4_labelLayer
10
6.5727336
20
2.0198967
40
0.0675494
50
285.3296289
51
300.0554081
0
ARC
8
side4_labelLayer
10
6.5875472
20
1.9947007
40
0.0383227
50
299.7523732
51
325.7934927
0
ARC
8
side4_labelLayer
10
6.5879025
20
1.9934608
40
0.037341
50
327.0604943
51
355.6581874
0
ARC
8
side4_labelLayer
10
6.5741983
20
1.9953193
40
0.051153
50
354.7445554
51
0.0669477
0
ARC
8
side4_labelLayer
10
6.5897899
20
1.9955113
40
0.0355614
50
359.786988
51
46.0942812
0
ARC
8
side4_labelLayer
10
6.5781905
20
1.9852819
40
0.0509909
50
44.6744824
51
50.7446986
0
ARC
8
side4_labelLayer
10
6.560266
20
1.9621325
40
0.0802623
50
51.293608
51
59.3031565
0
ARC
8
side4_labelLayer
10
6.513382
20
1.8846389
40
0.170833
50
59.0501194
51
63.5836012
0
ARC
8
side4_labelLayer
10
6.4479243
20
1.7536716
40
0.3172471
50
63.5191858
51
66.7162086
0
ARC
8
side4_labelLayer
10
6.3585655
20
1.5471542
40
0.5422678
50
66.6688776
51
68.8998348
0
ARC
8
side4_labelLayer
10
6.2922671
20
1.3783216
40
0.7236489
50
68.8148312
51
68.936052
0
ARC
8
side4_labelLayer
10
6.7855953
20
2.6816773
40
0.6699721
50
247.8789385
51
249.6266136
0
ARC
8
side4_labelLayer
10
6.6884255
20
2.4434702
40
0.4127089
50
245.320022
51
247.9229158
0
ARC
8
side4_labelLayer
10
6.6107414
20
2.2750842
40
0.2272674
50
241.5029471
51
245.3902294
0
ARC
8
side4_labelLayer
10
6.5597045
20
2.1810303
40
0.1202585
50
236.8722361
51
241.4929187
0
ARC
8
side4_labelLayer
10
6.5468964
20
2.1614941
40
0.0968982
50
226.7724748
51
236.9014896
0
ARC
8
side4_labelLayer
10
6.5280074
20
2.1416427
40
0.0694969
50
210.7686126
51
226.9102669
0
LINE
8
side4_labelLayer
10
6.4682929
20
2.10609
11
6.4682184
21
2.1062173
0
ARC
8
side4_labelLayer
10
6.521028
20
2.1365586
40
0.0609052
50
189.4735748
51
209.8791253
0
ARC
8
side4_labelLayer
10
6.5422503
20
2.140492
40
0.0824864
50
179.7600023
51
189.7421952
0
ARC
8
side4_labelLayer
10
6.5304401
20
2.1418147
40
0.0706822
50
157.026828
51
180.7921414
0
ARC
8
side4_labelLayer
10
6.5262534
20
2.1421863
40
0.0666951
50
126.584263
51
155.9168626
0
ARC
8
side4_labelLayer
10
6.5386913
20
2.1277177
40
0.085737
50
125.4066826
51
127.4958962
0
ARC
8
side4_labelLayer
10
6.5474371
20
2.1136727
40
0.1022566
50
105.5693498
51
124.8413024
0
ARC
8
side4_labelLayer
10
6.5624687
20
2.062395
40
0.1556889
50
94.8664841
51
105.8331909
0
ARC
8
side4_labelLayer
10
6.5688305
20
1.9991303
40
0.2192674
50
89.8874906
51
95.1204188
0
ARC
8
side4_labelLayer
10
6.5688421
20
1.9836092
40
0.2347887
50
66.5919531
51
89.8977767
0
ARC
8
side4_labelLayer
10
6.5390572
20
1.9054534
40
0.2788326
50
67.3837628
51
74.7672118
0
ARC
8
side4_labelLayer
10
6.5615409
20
1.9890589
40
0.1922571
50
74.6858902
51
84.9550426
0
ARC
8
side4_labelLayer
10
6.5659114
20
2.0304324
40
0.1506612
50
85.2270505
51
89.950876
0
ARC
8
side4_labelLayer
10
6.5654717
20
2.0176647
40
0.1634298
50
89.8005604
51
95.6229672
0
ARC
8
side4_labelLayer
10
6.5592713
20
2.078303
40
0.102476
50
95.4949026
51
104.2268619
0
ARC
8
side4_labelLayer
10
6.5487627
20
2.1187996
40
0.0606391
50
104.0059275
51
117.8906418
0
ARC
8
side4_labelLayer
10
6.5418464
20
2.1328933
40
0.0449497
50
118.5024703
51
121.6350416
0
ARC
8
side4_labelLayer
10
6.5377667
20
2.1386906
40
0.0378765
50
120.9803273
51
139.1816003
0
ARC
8
side4_labelLayer
10
6.531633
20
2.1444489
40
0.0294726
50
139.858928
51
181.2816622
0
ARC
8
side4_labelLayer
10
6.5406955
20
2.143504
40
0.0385289
50
179.5752387
51
194.5807483
0
ARC
8
side4_labelLayer
10
6.5329446
20
2.1415719
40
0.0305413
50
194.7333571
51
215.903873
0
ARC
8
side4_labelLayer
10
6.5411814
20
2.1480138
40
0.0409928
50
216.4457554
51
228.5575886
0
ARC
8
side4_labelLayer
10
6.5567867
20
2.1654037
40
0.0643574
50
228.3900124
51
236.2513602
0
ARC
8
side4_labelLayer
10
6.5732419
20
2.1896314
40
0.0936444
50
236.115187
51
240.8746748
0
ARC
8
side4_labelLayer
10
6.5902543
20
2.2213216
40
0.1296092
50
241.1235688
51
245.0643553
0
ARC
8
side4_labelLayer
10
6.6646409
20
2.3795007
40
0.3044056
50
244.920535
51
247.0987784
0
ARC
8
side4_labelLayer
10
6.7736174
20
2.63613
40
0.5832144
50
247.0475914
51
248.4056012
0
ARC
8
side4_labelLayer
10
6.9184247
20
3.0009557
40
0.975728
50
248.3835549
51
249.3131754
0
ARC
8
side4_labelLayer
10
7.0485455
20
3.3436282
40
1.3422734
50
249.2841931
51
249.5327798
0
ARC
8
side4_labelLayer
10
6.4368682
20
1.6924697
40
0.4185596
50
66.5795382
51
70.1213258
0
ARC
8
side4_labelLayer
10
6.5021246
20
1.8423117
40
0.255125
50
61.5697207
51
66.6517461
0
ARC
8
side4_labelLayer
10
6.5568956
20
1.9426115
40
0.1408463
50
53.6805233
51
61.7380609
0
ARC
8
side4_labelLayer
10
6.595141
20
1.9947364
40
0.0761957
50
44.0477702
51
53.6372565
0
ARC
8
side4_labelLayer
10
6.6020041
20
2.0021061
40
0.0661408
50
3.250205
51
43.5926066
0
ARC
8
side4_labelLayer
10
6.5804099
20
1.9991974
40
0.0878812
50
359.9601464
51
4.3453727
0
LINE
8
side4_labelLayer
10
6.7853017
20
2.21303
11
6.7853017
21
1.9188926
0
LINE
8
side4_labelLayer
10
6.7853017
20
1.9188926
11
6.7407517
21
1.9188926
0
LINE
8
side4_labelLayer
10
6.7407517
20
1.9188926
11
6.7407517
21
2.21303
0
LINE
8
side4_labelLayer
10
6.7407517
20
2.21303
11
6.7853017
21
2.21303
0
ARC
8
side4_labelLayer
10
6.7863535
20
2.2930423
40
0.0493599
50
170.8437952
51
180.3543949
0
ARC
8
side4_labelLayer
10
6.7678844
20
2.2961304
40
0.0306351
50
155.9683148
51
171.0493948
0
ARC
8
side4_labelLayer
10
6.7589276
20
2.3001038
40
0.0208367
50
133.7873832
51
155.917132
0
ARC
8
side4_labelLayer
10
6.7622334
20
2.2964494
40
0.0257629
50
92.6455235
51
133.4708247
0
ARC
8
side4_labelLayer
10
6.7632799
20
2.2881741
40
0.034084
50
89.9745415
51
93.7608885
0
ARC
8
side4_labelLayer
10
6.7637017
20
2.2960129
40
0.0262482
50
46.3705138
51
90.8875903
0
ARC
8
side4_labelLayer
10
6.7663146
20
2.2987096
40
0.0224936
50
17.7258401
51
46.4483532
0
ARC
8
side4_labelLayer
10
6.7541359
20
2.2945151
40
0.0353722
50
4.9428108
51
18.1914672
0
ARC
8
side4_labelLayer
10
6.7386178
20
2.2928394
40
0.050978
50
359.8848403
51
5.316391
0
ARC
8
side4_labelLayer
10
6.7434955
20
2.292424
40
0.0461013
50
349.8361354
51
0.3889989
0
ARC
8
side4_labelLayer
10
6.7602844
20
2.2892932
40
0.0290235
50
332.632378
51
350.071119
0
ARC
8
side4_labelLayer
10
6.7668147
20
2.286069
40
0.0217423
50
313.6153334
51
332.2670366
0
ARC
8
side4_labelLayer
10
6.7636679
20
2.2889338
40
0.0259889
50
269.1780874
51
314.281214
0
ARC
8
side4_labelLayer
10
6.7629998
20
2.2912453
40
0.0282994
50
250.5003529
51
270.5978619
0
ARC
8
side4_labelLayer
10
6.7621438
20
2.2880435
40
0.0249968
50
225.1309853
51
249.9000055
0
ARC
8
side4_labelLayer
10
6.7608015
20
2.2865605
40
0.0229989
50
197.7922051
51
224.8945146
0
ARC
8
side4_labelLayer
10
6.7733522
20
2.2908625
40
0.0362648
50
184.9934392
51
198.2049323
0
ARC
8
side4_labelLayer
10
6.7895537
20
2.2926253
40
0.0525593
50
179.8782638
51
185.3704755
0
LINE
8
side4_labelLayer
10
7.0858801
20
1.9188926
11
7.0799759
21
1.9583435
0
LINE
8
side4_labelLayer
10
7.0799759
20
1.9583435
11
7.0775605
21
1.9583435
0
LINE
8
side4_labelLayer
10
7.0770238
20
2.174921
11
7.0805126
21
2.174921
0
LINE
8
side4_labelLayer
10
7.0805126
20
2.174921
11
7.078634
21
2.1961225
0
LINE
8
side4_labelLayer
10
7.078634
20
2.1961225
11
7.0775605
21
2.2167872
0
LINE
8
side4_labelLayer
10
7.0775605
20
2.2167872
11
7.0775605
21
2.3364818
0
LINE
8
side4_labelLayer
10
7.0775605
20
2.3364818
11
7.1221105
21
2.3364818
0
LINE
8
side4_labelLayer
10
7.1221105
20
2.3364818
11
7.1221105
21
1.9188926
0
LINE
8
side4_labelLayer
10
7.1221105
20
1.9188926
11
7.0858801
21
1.9188926
0
LINE
8
side4_labelLayer
10
7.0775605
20
2.0557631
11
7.0775605
21
2.0651562
0
ARC
8
side4_labelLayer
10
6.9944473
20
2.014511
40
0.1003124
50
275.418509
51
325.9493733
0
ARC
8
side4_labelLayer
10
6.9855874
20
2.0638523
40
0.1503274
50
269.8675962
51
277.0046567
0
ARC
8
side4_labelLayer
10
6.9838689
20
2.048531
40
0.1350128
50
253.8531811
51
270.5818704
0
ARC
8
side4_labelLayer
10
6.9750701
20
2.0166246
40
0.1019189
50
218.6456387
51
253.6162772
0
ARC
8
side4_labelLayer
10
6.9974571
20
2.0340868
40
0.1303093
50
196.606925
51
218.4951066
0
ARC
8
side4_labelLayer
10
7.0659097
20
2.0555975
40
0.2020573
50
184.8789805
51
196.904496
0
ARC
8
side4_labelLayer
10
7.1525279
20
2.064582
40
0.28913
50
179.886217
51
185.193068
0
ARC
8
side4_labelLayer
10
7.1277469
20
2.0666953
40
0.264353
50
170.759275
51
180.3335988
0
ARC
8
side4_labelLayer
10
7.0352237
20
2.0822769
40
0.1705292
50
156.0194785
51
170.9345678
0
ARC
8
side4_labelLayer
10
6.9941027
20
2.0998838
40
0.1258031
50
141.5329198
51
155.7345828
0
ARC
8
side4_labelLayer
10
6.9778922
20
2.113003
40
0.1049499
50
94.0774908
51
141.6354932
0
ARC
8
side4_labelLayer
10
6.9850368
20
2.0678527
40
0.150545
50
89.9226675
51
95.5680925
0
ARC
8
side4_labelLayer
10
6.9866535
20
2.0872034
40
0.1312017
50
73.1655197
51
90.6172925
0
ARC
8
side4_labelLayer
10
6.9946047
20
2.116066
40
0.101276
50
35.5304069
51
72.7421056
0
ARC
8
side4_labelLayer
10
6.9918004
20
2.0831318
40
0.1323059
50
269.5996045
51
280.1671917
0
ARC
8
side4_labelLayer
10
7.001054
20
2.0336054
40
0.0819248
50
279.9113635
51
297.5415737
0
ARC
8
side4_labelLayer
10
7.0109205
20
2.013964
40
0.059948
50
297.8604518
51
320.278215
0
ARC
8
side4_labelLayer
10
6.9995101
20
2.0218794
40
0.0737926
50
321.2129237
51
340.6509385
0
ARC
8
side4_labelLayer
10
6.9497882
20
2.0400883
40
0.1267411
50
340.3315532
51
351.639813
0
ARC
8
side4_labelLayer
10
6.866416
20
2.0529721
40
0.2111016
50
351.4702054
51
358.8760949
0
ARC
8
side4_labelLayer
10
6.7952064
20
2.0557103
40
0.2823543
50
358.6039912
51
0.0107167
0
ARC
8
side4_labelLayer
10
6.7803159
20
2.0663255
40
0.2972469
50
359.7746062
51
5.6999826
0
ARC
8
side4_labelLayer
10
6.8982718
20
2.0784672
40
0.1786686
50
5.5825064
51
14.2112588
0
ARC
8
side4_labelLayer
10
6.9736142
20
2.0980358
40
0.100829
50
13.942264
51
28.1044883
0
ARC
8
side4_labelLayer
10
7.0039447
20
2.1135177
40
0.0667847
50
28.6464469
51
37.7347464
0
ARC
8
side4_labelLayer
10
7.0057246
20
2.1140247
40
0.0650704
50
38.3408646
51
73.8125747
0
ARC
8
side4_labelLayer
10
6.9938091
20
2.0772227
40
0.103742
50
73.158965
51
86.845111
0
ARC
8
side4_labelLayer
10
6.990463
20
2.0377161
40
0.1433776
50
86.3788488
51
90.0495151
0
ARC
8
side4_labelLayer
10
6.9893674
20
2.1011737
40
0.0799258
50
89.303402
51
108.831175
0
ARC
8
side4_labelLayer
10
6.9859754
20
2.1142528
40
0.0664595
50
109.7030045
51
146.8107063
0
ARC
8
side4_labelLayer
10
7.0176681
20
2.0923523
40
0.1049751
50
146.2763615
51
163.7412484
0
ARC
8
side4_labelLayer
10
7.0755705
20
2.074772
40
0.1654854
50
163.510682
51
174.0981689
0
ARC
8
side4_labelLayer
10
7.1580332
20
2.0654049
40
0.2484757
50
173.9048827
51
180.1811229
0
ARC
8
side4_labelLayer
10
7.15577
20
2.0635064
40
0.2462139
50
179.740992
51
186.9783395
0
ARC
8
side4_labelLayer
10
7.0642855
20
2.0519546
40
0.1540041
50
186.8476001
51
197.4722014
0
ARC
8
side4_labelLayer
10
7.007118
20
2.0334949
40
0.0939327
50
197.2014431
51
215.053832
0
ARC
8
side4_labelLayer
10
6.9849766
20
2.0183738
40
0.0671237
50
215.342766
51
264.7643862
0
ARC
8
side4_labelLayer
10
6.9906597
20
2.0506002
40
0.0997713
50
263.2029262
51
270.1241168
0
LINE
8
side4_labelLayer
10
7.4489895
20
2.0860893
11
7.4489895
21
2.0579101
0
LINE
8
side4_labelLayer
10
7.4489895
20
2.0579101
11
7.2463675
21
2.0579101
0
LINE
8
side4_labelLayer
10
7.4363759
20
1.9722989
11
7.4363759
21
1.9325797
0
LINE
8
side4_labelLayer
10
7.247441
20
2.0941405
11
7.401219
21
2.0941405
0
ARC
8
side4_labelLayer
10
7.3393693
20
2.0866303
40
0.1731113
50
256.0084037
51
270.4850894
0
ARC
8
side4_labelLayer
10
7.3267635
20
2.0376967
40
0.1225824
50
223.5464298
51
256.1956907
0
ARC
8
side4_labelLayer
10
7.3337199
20
2.0427529
40
0.1311129
50
194.0879926
51
223.0536068
0
ARC
8
side4_labelLayer
10
7.3974501
20
2.0601785
40
0.1971728
50
181.3577575
51
194.4915802
0
ARC
8
side4_labelLayer
10
7.4551582
20
2.063502
40
0.254951
50
179.9901316
51
181.7971505
0
ARC
8
side4_labelLayer
10
7.434128
20
2.065115
40
0.2339261
50
168.953664
51
180.3843264
0
ARC
8
side4_labelLayer
10
7.3577339
20
2.0806712
40
0.1559681
50
149.4072465
51
169.1853086
0
ARC
8
side4_labelLayer
10
7.3364427
20
2.0919206
40
0.1319203
50
140.1054759
51
148.9068383
0
ARC
8
side4_labelLayer
10
7.3233676
20
2.1039762
40
0.1141599
50
92.4760968
51
140.5387427
0
ARC
8
side4_labelLayer
10
7.3291954
20
2.0609278
40
0.1574697
50
89.9637998
51
93.9180377
0
ARC
8
side4_labelLayer
10
7.3305866
20
2.0826824
40
0.1357212
50
74.2122013
51
90.5452997
0
ARC
8
side4_labelLayer
10
7.3390865
20
2.1139972
40
0.1032757
50
41.2067013
51
74.0231944
0
ARC
8
side4_labelLayer
10
7.3229875
20
2.1000649
40
0.1245659
50
11.599634
51
41.1497211
0
ARC
8
side4_labelLayer
10
7.2676712
20
2.0873093
40
0.1813222
50
359.6145075
51
12.0333654
0
ARC
8
side4_labelLayer
10
7.4251402
20
2.0614818
40
0.1788084
50
181.1445572
51
190.8004989
0
ARC
8
side4_labelLayer
10
7.3620517
20
2.0490387
40
0.1145064
50
190.60008
51
206.0279049
0
ARC
8
side4_labelLayer
10
7.3341515
20
2.0358489
40
0.0836489
50
206.2955473
51
222.555577
0
ARC
8
side4_labelLayer
10
7.3316753
20
2.0345514
40
0.0809506
50
223.064451
51
258.1402539
0
ARC
8
side4_labelLayer
10
7.3415205
20
2.075085
40
0.1226493
50
257.530707
51
270.431956
0
ARC
8
side4_labelLayer
10
7.341631
20
2.1877303
40
0.2352925
50
270.1982622
51
292.2089766
0
ARC
8
side4_labelLayer
10
7.3304743
20
2.2198448
40
0.2692474
50
291.8238389
51
293.1615263
0
ARC
8
side4_labelLayer
10
7.3297866
20
2.1778852
40
0.2674623
50
287.9021582
51
293.4857438
0
ARC
8
side4_labelLayer
10
7.349202
20
2.1179733
40
0.2044832
50
281.9929185
51
287.8856579
0
ARC
8
side4_labelLayer
10
7.3538935
20
2.101114
40
0.1870202
50
275.905312
51
281.6602395
0
ARC
8
side4_labelLayer
10
7.3444745
20
2.1890525
40
0.2754614
50
271.9126248
51
275.9721757
0
ARC
8
side4_labelLayer
10
7.34105
20
2.2763853
40
0.3628601
50
269.966048
51
271.9928199
0
ARC
8
side4_labelLayer
10
7.3279026
20
2.0932842
40
0.0878135
50
89.4417442
51
106.2094223
0
ARC
8
side4_labelLayer
10
7.3226206
20
2.1125421
40
0.0678474
50
106.4659902
51
137.9175184
0
ARC
8
side4_labelLayer
10
7.3377676
20
2.0992409
40
0.0880042
50
138.0995713
51
160.5866388
0
ARC
8
side4_labelLayer
10
7.3767036
20
2.0849165
40
0.1294889
50
160.3351337
51
172.5312696
0
ARC
8
side4_labelLayer
10
7.4151448
20
2.0787629
40
0.1684074
50
172.1554604
51
174.7609071
0
ARC
8
side4_labelLayer
10
7.2494256
20
2.095004
40
0.1517958
50
359.6740914
51
8.9229284
0
ARC
8
side4_labelLayer
10
7.3036557
20
2.1038413
40
0.0968519
50
8.7342413
51
23.277122
0
ARC
8
side4_labelLayer
10
7.3294129
20
2.1146539
40
0.0689188
50
23.4817673
51
39.7079464
0
ARC
8
side4_labelLayer
10
7.3357344
20
2.1193849
40
0.0610344
50
40.0825524
51
80.6243933
0
ARC
8
side4_labelLayer
10
7.3292232
20
2.0895455
40
0.0915493
50
79.6460164
51
90.2910513
0
LINE
8
side4_labelLayer
10
7.7809676
20
2.0495905
11
7.7809676
21
2.0090661
0
LINE
8
side4_labelLayer
10
7.7809676
20
2.0090661
11
7.7227305
21
2.0090661
0
LINE
8
side4_labelLayer
10
7.7227305
20
2.0090661
11
7.7227305
21
1.9188926
0
LINE
8
side4_labelLayer
10
7.7227305
20
1.9188926
11
7.6800591
21
1.9188926
0
LINE
8
side4_labelLayer
10
7.6800591
20
1.9188926
11
7.6800591
21
2.0090661
0
LINE
8
side4_labelLayer
10
7.6800591
20
2.0090661
11
7.4892455
21
2.0090661
0
LINE
8
side4_labelLayer
10
7.4892455
20
2.0090661
11
7.4892455
21
2.0479803
0
LINE
8
side4_labelLayer
10
7.4892455
20
2.0479803
11
7.6754968
21
2.3134017
0
LINE
8
side4_labelLayer
10
7.6754968
20
2.3134017
11
7.7227305
21
2.3134017
0
LINE
8
side4_labelLayer
10
7.7227305
20
2.3134017
11
7.7227305
21
2.0495905
0
LINE
8
side4_labelLayer
10
7.7227305
20
2.0495905
11
7.7809676
21
2.0495905
0
LINE
8
side4_labelLayer
10
7.5337955
20
2.0495905
11
7.6800591
21
2.0495905
0
LINE
8
side4_labelLayer
10
7.6800591
20
2.0495905
11
7.6800591
21
2.1800201
0
LINE
8
side4_labelLayer
10
7.6827429
20
2.2667047
11
7.6805959
21
2.2667047
0
LINE
8
side4_labelLayer
10
7.6564422
20
2.2240333
11
7.5337955
21
2.0495905
0
ARC
8
side4_labelLayer
10
8.9893472
20
2.1788758
40
1.3092885
50
178.2797194
51
179.9499273
0
ARC
8
side4_labelLayer
10
9.4943913
20
2.1640187
40
1.814551
50
176.9573862
51
178.2895413
0
ARC
8
side4_labelLayer
10
9.8907413
20
2.1441001
40
2.2113998
50
176.8217724
51
176.9871081
0
ARC
8
side4_labelLayer
10
7.1849605
20
2.513887
40
0.5538533
50
331.3841306
51
333.4937406
0
ARC
8
side4_labelLayer
10
7.3402185
20
2.4289868
40
0.3768984
50
328.5690362
51
331.4101575
0
ARC
8
side4_labelLayer
10
7.4351293
20
2.3712929
40
0.2658284
50
326.3605742
51
328.5119577
0
LINE
8
top_outsideCutPath
10
2.1612598
20
12.4859604
11
2.9077657
21
11.9435922
0
LINE
8
top_outsideCutPath
10
2.9077657
20
11.9435922
11
2.838407
21
11.8481282
0
LINE
8
top_outsideCutPath
10
2.838407
20
11.8481282
11
3.5066551
21
11.3626175
0
LINE
8
top_outsideCutPath
10
3.5066551
20
11.3626175
11
3.5760137
21
11.4580816
0
LINE
8
top_outsideCutPath
10
3.5760137
20
11.4580816
11
4.2442618
21
10.9725709
0
LINE
8
top_outsideCutPath
10
4.2442618
20
10.9725709
11
4.3225196
21
10.9157133
0
LINE
8
top_outsideCutPath
10
4.3225196
20
10.9157133
11
4.0373797
21
10.038143
0
LINE
8
top_outsideCutPath
10
4.0373797
20
10.038143
11
3.9251551
21
10.074607
0
LINE
8
top_outsideCutPath
10
3.9251551
20
10.074607
11
3.669907
21
9.2890343
0
LINE
8
top_outsideCutPath
10
3.669907
20
9.2890343
11
3.7821317
21
9.2525703
0
LINE
8
top_outsideCutPath
10
3.7821317
20
9.2525703
11
3.5268837
21
8.4669976
0
LINE
8
top_outsideCutPath
10
3.5268837
20
8.4669976
11
3.4969918
21
8.375
0
LINE
8
top_outsideCutPath
10
3.4969918
20
8.375
11
2.5742598
21
8.375
0
LINE
8
top_outsideCutPath
10
2.5742598
20
8.375
11
2.5742598
21
8.493
0
LINE
8
top_outsideCutPath
10
2.5742598
20
8.493
11
1.7482598
21
8.493
0
LINE
8
top_outsideCutPath
10
1.7482598
20
8.493
11
1.7482598
21
8.375
0
LINE
8
top_outsideCutPath
10
1.7482598
20
8.375
11
0.9222598
21
8.375
0
LINE
8
top_outsideCutPath
10
0.9222598
20
8.375
11
0.8255278
21
8.375
0
LINE
8
top_outsideCutPath
10
0.8255278
20
8.375
11
0.5403879
21
9.2525703
0
LINE
8
top_outsideCutPath
10
0.5403879
20
9.2525703
11
0.6526126
21
9.2890343
0
LINE
8
top_outsideCutPath
10
0.6526126
20
9.2890343
11
0.3973645
21
10.074607
0
LINE
8
top_outsideCutPath
10
0.3973645
20
10.074607
11
0.2851399
21
10.038143
0
LINE
8
top_outsideCutPath
10
0.2851399
20
10.038143
11
0.0298918
21
10.8237157
0
LINE
8
top_outsideCutPath
10
0.0298918
20
10.8237157
11
0
21
10.9157133
0
LINE
8
top_outsideCutPath
10
0
20
10.9157133
11
0.7465059
21
11.4580816
0
LINE
8
top_outsideCutPath
10
0.7465059
20
11.4580816
11
0.8158645
21
11.3626175
0
LINE
8
top_outsideCutPath
10
0.8158645
20
11.3626175
11
1.4841126
21
11.8481282
0
LINE
8
top_outsideCutPath
10
1.4841126
20
11.8481282
11
1.4147539
21
11.9435922
0
LINE
8
top_outsideCutPath
10
1.4147539
20
11.9435922
11
2.083002
21
12.4291028
0
LINE
8
top_outsideCutPath
10
2.083002
20
12.4291028
11
2.1612598
21
12.4859604
0
LINE
8
top_labelLayer
10
1.805562
20
10.0962508
11
1.805562
21
10.0452652
0
LINE
8
top_labelLayer
10
1.6080432
20
10.1677108
11
1.6080432
21
10.4294634
0
LINE
8
top_labelLayer
10
1.6080432
20
10.4294634
11
1.5450138
21
10.4294634
0
LINE
8
top_labelLayer
10
1.5450138
20
10.4294634
11
1.5450138
21
10.4615803
0
LINE
8
top_labelLayer
10
1.5450138
20
10.4615803
11
1.6080432
21
10.4892811
0
LINE
8
top_labelLayer
10
1.6080432
20
10.4892811
11
1.6361454
21
10.583223
0
LINE
8
top_labelLayer
10
1.6361454
20
10.583223
11
1.6746857
21
10.583223
0
LINE
8
top_labelLayer
10
1.6746857
20
10.583223
11
1.6746857
21
10.4812519
0
LINE
8
top_labelLayer
10
1.6746857
20
10.4812519
11
1.8023503
21
10.4812519
0
LINE
8
top_labelLayer
10
1.8023503
20
10.4812519
11
1.8023503
21
10.4294634
0
LINE
8
top_labelLayer
10
1.8023503
20
10.4294634
11
1.6746857
21
10.4294634
0
LINE
8
top_labelLayer
10
1.6746857
20
10.4294634
11
1.6746857
21
10.1705211
0
ARC
8
top_labelLayer
10
1.7457998
20
10.3070762
40
0.2188551
50
269.8803651
51
278.3031507
0
ARC
8
top_labelLayer
10
1.7483233
20
10.2871867
40
0.1988101
50
278.4112823
51
279.0125321
0
ARC
8
top_labelLayer
10
1.7233184
20
10.4469668
40
0.3605348
50
278.9595465
51
280.5108805
0
ARC
8
top_labelLayer
10
1.7467157
20
10.3214345
40
0.2328408
50
280.4850812
51
282.6265017
0
ARC
8
top_labelLayer
10
1.7672445
20
10.2302234
40
0.1393481
50
282.587833
51
285.5786752
0
ARC
8
top_labelLayer
10
1.7777403
20
10.1916454
40
0.0993689
50
285.722997
51
286.2592167
0
ARC
8
top_labelLayer
10
1.7775473
20
10.1045173
40
0.065541
50
287.9880102
51
295.3050015
0
ARC
8
top_labelLayer
10
1.76175
20
10.1522951
40
0.1158623
50
283.3062502
51
288.1218121
0
ARC
8
top_labelLayer
10
1.7450346
20
10.222013
40
0.1875558
50
280.0069007
51
283.3736633
0
ARC
8
top_labelLayer
10
1.7337249
20
10.2834209
40
0.2499951
50
279.1887182
51
280.1139163
0
ARC
8
top_labelLayer
10
1.7270069
20
10.3216085
40
0.288766
50
275.5256726
51
279.2946274
0
ARC
8
top_labelLayer
10
1.7347318
20
10.2408757
40
0.2076643
50
270.8923102
51
275.5490983
0
ARC
8
top_labelLayer
10
1.7356829
20
10.2069142
40
0.1736927
50
270.0081902
51
270.7530515
0
ARC
8
top_labelLayer
10
1.7330179
20
10.2072572
40
0.1740565
50
253.7846264
51
270.8854799
0
ARC
8
top_labelLayer
10
1.7123971
20
10.1369339
40
0.1007726
50
190.3817845
51
253.8772119
0
ARC
8
top_labelLayer
10
1.8175008
20
10.1653532
40
0.209471
50
179.3551113
51
192.8480227
0
ARC
8
top_labelLayer
10
1.8088733
20
10.1696818
40
0.1341902
50
179.6416314
51
189.7509967
0
ARC
8
top_labelLayer
10
1.7615055
20
10.1612318
40
0.0860762
50
189.5477409
51
205.7871323
0
ARC
8
top_labelLayer
10
1.7420397
20
10.1522572
40
0.0646458
50
206.1303833
51
221.4083772
0
ARC
8
top_labelLayer
10
1.7398538
20
10.150598
40
0.0619094
50
221.5947844
51
262.3503905
0
ARC
8
top_labelLayer
10
1.7450466
20
10.1773097
40
0.0890887
50
261.3271824
51
270.1904933
0
ARC
8
top_labelLayer
10
1.9290368
20
10.2593311
40
0.3442351
50
349.1763249
51
0.3864279
0
ARC
8
top_labelLayer
10
2.0449355
20
10.2362267
40
0.2260612
50
330.2505401
51
349.411793
0
ARC
8
top_labelLayer
10
2.080608
20
10.2176834
40
0.1858958
50
318.1435608
51
329.7568921
0
ARC
8
top_labelLayer
10
2.0870368
20
10.21253
40
0.1776695
50
278.895825
51
317.9980066
0
ARC
8
top_labelLayer
10
2.0704508
20
10.2919887
40
0.2587697
50
269.750038
51
279.8034771
0
ARC
8
top_labelLayer
10
2.0677596
20
10.2472267
40
0.214011
50
253.5439348
51
270.4182407
0
ARC
8
top_labelLayer
10
2.0606338
20
10.2196635
40
0.1855607
50
238.8115751
51
253.2431306
0
ARC
8
top_labelLayer
10
2.058337
20
10.2150433
40
0.1804192
50
207.7947308
51
238.6757398
0
ARC
8
top_labelLayer
10
2.091284
20
10.2352292
40
0.2189919
50
205.6564365
51
208.4471494
0
ARC
8
top_labelLayer
10
2.1167357
20
10.2458349
40
0.2465304
50
188.9100476
51
205.3171519
0
ARC
8
top_labelLayer
10
2.202384
20
10.2603404
40
0.3333937
50
179.7744766
51
189.0930645
0
ARC
8
top_labelLayer
10
2.2150009
20
10.2639964
40
0.346016
50
169.2440588
51
180.3880843
0
ARC
8
top_labelLayer
10
2.0974997
20
10.2872242
40
0.2262462
50
150.7111101
51
169.469678
0
ARC
8
top_labelLayer
10
2.0599925
20
10.3064855
40
0.1841173
50
138.1761679
51
150.2287623
0
ARC
8
top_labelLayer
10
2.0537497
20
10.3112759
40
0.1762717
50
99.1758963
51
137.9833635
0
ARC
8
top_labelLayer
10
2.0709253
20
10.2304484
40
0.2588356
50
89.7328649
51
100.0761015
0
ARC
8
top_labelLayer
10
2.0743574
20
10.2653566
40
0.2239356
50
73.5224063
51
90.569379
0
ARC
8
top_labelLayer
10
2.0874893
20
10.3130701
40
0.1744592
50
41.1445857
51
73.2133847
0
ARC
8
top_labelLayer
10
2.0624198
20
10.2915236
40
0.2075148
50
13.5014777
51
41.0702952
0
ARC
8
top_labelLayer
10
1.9655718
20
10.2661787
40
0.3076103
50
1.1277166
51
13.8801949
0
ARC
8
top_labelLayer
10
1.882061
20
10.261708
40
0.391203
50
359.9919063
51
1.541663
0
ARC
8
top_labelLayer
10
2.2754981
20
10.2599195
40
0.3374584
50
179.7057229
51
187.9162773
0
ARC
8
top_labelLayer
10
2.1517423
20
10.2421417
40
0.2124343
50
187.7641458
51
200.0977731
0
ARC
8
top_labelLayer
10
2.0835494
20
10.2171553
40
0.139808
50
200.0845989
51
216.9135795
0
ARC
8
top_labelLayer
10
2.058653
20
10.1993775
40
0.1092274
50
217.301138
51
261.7099005
0
ARC
8
top_labelLayer
10
2.0702111
20
10.2545363
40
0.1655132
50
260.5036793
51
270.2480708
0
ARC
8
top_labelLayer
10
2.0724192
20
10.2438091
40
0.1547918
50
269.4479191
51
284.7254962
0
ARC
8
top_labelLayer
10
2.0846725
20
10.1983644
40
0.1077254
50
284.5662846
51
322.6333815
0
ARC
8
top_labelLayer
10
2.0560191
20
10.2190647
40
0.1430646
50
323.009135
51
342.6388134
0
ARC
8
top_labelLayer
10
1.9740789
20
10.2458447
40
0.2292655
50
342.3615507
51
353.7539462
0
ARC
8
top_labelLayer
10
1.8531717
20
10.2604202
40
0.3510433
50
353.5361309
51
0.2011663
0
ARC
8
top_labelLayer
10
1.8716926
20
10.2633486
40
0.3325244
50
359.7077935
51
7.8973384
0
ARC
8
top_labelLayer
10
1.9934799
20
10.280809
40
0.209494
50
7.7437967
51
20.06904
0
ARC
8
top_labelLayer
10
2.0613345
20
10.3057088
40
0.1372151
50
20.0258515
51
37.4350334
0
ARC
8
top_labelLayer
10
2.0838509
20
10.3216865
40
0.1096285
50
37.9575948
51
80.4006557
0
ARC
8
top_labelLayer
10
2.0710561
20
10.2645957
40
0.168082
50
79.345457
51
90.3174694
0
ARC
8
top_labelLayer
10
2.0686862
20
10.2740892
40
0.1585924
50
89.4802903
51
103.8810235
0
ARC
8
top_labelLayer
10
2.0553612
20
10.3248268
40
0.1061426
50
103.4688325
51
142.3117087
0
ARC
8
top_labelLayer
10
2.0812708
20
10.3066067
40
0.1377927
50
142.902892
51
162.374924
0
ARC
8
top_labelLayer
10
2.1629026
20
10.2794035
40
0.2238327
50
162.0654076
51
173.167685
0
ARC
8
top_labelLayer
10
2.2902001
20
10.2631671
40
0.3521593
50
173.0086791
51
180.2463817
0
LINE
8
top_labelLayer
10
2.4567317
20
10.0978566
11
2.4519142
21
10.0978566
0
LINE
8
top_labelLayer
10
2.4567317
20
10.0247907
11
2.4567317
21
9.8437318
0
LINE
8
top_labelLayer
10
2.4567317
20
9.8437318
11
2.3900892
21
9.8437318
0
LINE
8
top_labelLayer
10
2.3900892
20
9.8437318
11
2.3900892
21
10.4812519
0
LINE
8
top_labelLayer
10
2.3900892
20
10.4812519
11
2.4442864
21
10.4812519
0
LINE
8
top_labelLayer
10
2.4442864
20
10.4812519
11
2.45352
21
10.4210327
0
LINE
8
top_labelLayer
10
2.45352
20
10.4210327
11
2.4567317
21
10.4210327
0
LINE
8
top_labelLayer
10
2.4567317
20
10.2765068
11
2.4567317
21
10.2616527
0
ARC
8
top_labelLayer
10
2.5937104
20
10.2353599
40
0.2021416
50
255.7755684
51
270.3185473
0
ARC
8
top_labelLayer
10
2.5879425
20
10.2097304
40
0.1758819
50
245.9799671
51
255.5453775
0
ARC
8
top_labelLayer
10
2.576769
20
10.1837475
40
0.1476015
50
215.5850407
51
245.8361234
0
ARC
8
top_labelLayer
10
1.8261234
20
10.0187818
40
0.6307669
50
2.9505162
51
7.2017228
0
ARC
8
top_labelLayer
10
1.9280317
20
10.024493
40
0.5287
50
0.0322639
51
2.9008699
0
ARC
8
top_labelLayer
10
2.6035278
20
10.3179375
40
0.1793815
50
132.3561388
51
144.9195604
0
ARC
8
top_labelLayer
10
2.5760526
20
10.3479141
40
0.1387188
50
115.4008698
51
132.3119052
0
ARC
8
top_labelLayer
10
2.5867706
20
10.3218194
40
0.1668951
50
97.7065797
51
114.8819981
0
ARC
8
top_labelLayer
10
2.5942554
20
10.2732754
40
0.2160064
50
89.8464553
51
97.9472744
0
ARC
8
top_labelLayer
10
2.5968962
20
10.2850109
40
0.2042806
50
74.1925
51
90.5783324
0
ARC
8
top_labelLayer
10
2.6110321
20
10.336399
40
0.1509857
50
38.0521601
51
74.0418095
0
ARC
8
top_labelLayer
10
2.5720481
20
10.3065183
40
0.2001022
50
16.3353806
51
37.9091717
0
ARC
8
top_labelLayer
10
2.4696317
20
10.2749716
40
0.3072606
50
4.57668
51
16.6090622
0
ARC
8
top_labelLayer
10
2.3435081
20
10.2624076
40
0.4339914
50
359.9003377
51
4.9014634
0
ARC
8
top_labelLayer
10
2.3867724
20
10.2593474
40
0.3907334
50
350.6561139
51
0.3380428
0
ARC
8
top_labelLayer
10
2.5229946
20
10.2361749
40
0.2525576
50
335.830264
51
350.8258224
0
ARC
8
top_labelLayer
10
2.5829024
20
10.2103169
40
0.1873165
50
321.3161454
51
335.5434809
0
ARC
8
top_labelLayer
10
2.6058117
20
10.1916494
40
0.157766
50
274.0639965
51
321.4080932
0
ARC
8
top_labelLayer
10
2.5951418
20
10.2592211
40
0.2259998
50
269.9220379
51
275.5483422
0
ARC
8
top_labelLayer
10
2.5838276
20
10.2406529
40
0.1920271
50
89.5907388
51
100.3502512
0
ARC
8
top_labelLayer
10
2.5701326
20
10.3125936
40
0.1187979
50
100.0865058
51
118.1920452
0
ARC
8
top_labelLayer
10
2.5561076
20
10.3399459
40
0.0880664
50
118.556894
51
141.0239009
0
ARC
8
top_labelLayer
10
2.577482
20
10.3248696
40
0.1141788
50
141.8890039
51
160.5971275
0
ARC
8
top_labelLayer
10
2.65262
20
10.2973019
40
0.1942103
50
160.2901652
51
171.2447003
0
ARC
8
top_labelLayer
10
2.776115
20
10.2773927
40
0.319298
50
171.0868856
51
178.324621
0
ARC
8
top_labelLayer
10
2.8799388
20
10.2724361
40
0.4232266
50
178.0648332
51
179.4489148
0
ARC
8
top_labelLayer
10
2.8973434
20
10.2599303
40
0.4406151
50
179.7760286
51
185.7075546
0
ARC
8
top_labelLayer
10
2.7236329
20
10.2420318
40
0.2659862
50
185.5925039
51
194.2052079
0
ARC
8
top_labelLayer
10
2.6123537
20
10.213151
40
0.151024
50
193.9433108
51
208.0216444
0
ARC
8
top_labelLayer
10
2.5673113
20
10.1902351
40
0.1005003
50
208.5527956
51
217.560823
0
ARC
8
top_labelLayer
10
2.5636531
20
10.1887164
40
0.0966799
50
218.1690056
51
253.8048082
0
ARC
8
top_labelLayer
10
2.5815852
20
10.2439997
40
0.1547813
50
253.1379292
51
266.8483657
0
ARC
8
top_labelLayer
10
2.5866141
20
10.3033255
40
0.2143011
50
266.3778996
51
270.051039
0
ARC
8
top_labelLayer
10
2.5883229
20
10.2013038
40
0.1122896
50
269.2254671
51
292.0429313
0
ARC
8
top_labelLayer
10
2.5898379
20
10.1922748
40
0.1033709
50
293.1429276
51
324.1354976
0
ARC
8
top_labelLayer
10
2.5671187
20
10.2114823
40
0.1330549
50
323.1642311
51
325.0143962
0
ARC
8
top_labelLayer
10
2.5432258
20
10.2262789
40
0.161122
50
325.5750839
51
344.1505374
0
ARC
8
top_labelLayer
10
2.459848
20
10.2509273
40
0.2480634
50
343.9334397
51
355.1137302
0
ARC
8
top_labelLayer
10
2.3534167
20
10.2617257
40
0.3550316
50
354.8404213
51
0.1178013
0
ARC
8
top_labelLayer
10
2.3721505
20
10.2641528
40
0.3363015
50
359.7108465
51
7.8609725
0
ARC
8
top_labelLayer
10
2.4944335
20
10.2815829
40
0.2127844
50
7.7151294
51
19.8862201
0
ARC
8
top_labelLayer
10
2.5616823
20
10.3058752
40
0.1412827
50
19.8988734
51
35.8978902
0
ARC
8
top_labelLayer
10
2.591678
20
10.3285912
40
0.103668
50
35.4481367
51
85.2267042
0
ARC
8
top_labelLayer
10
2.5854132
20
10.2893241
40
0.1433512
50
84.0373592
51
90.0855367
0
LINE
8
bottom_outsideCutPath
10
6.6087794
20
12.4859604
11
7.3552853
21
11.9435922
0
LINE
8
bottom_outsideCutPath
10
7.3552853
20
11.9435922
11
7.2859266
21
11.8481282
0
LINE
8
bottom_outsideCutPath
10
7.2859266
20
11.8481282
11
7.9541747
21
11.3626175
0
LINE
8
bottom_outsideCutPath
10
7.9541747
20
11.3626175
11
8.0235333
21
11.4580816
0
LINE
8
bottom_outsideCutPath
10
8.0235333
20
11.4580816
11
8.6917814
21
10.9725709
0
LINE
8
bottom_outsideCutPath
10
8.6917814
20
10.9725709
11
8.7700392
21
10.9157133
0
LINE
8
bottom_outsideCutPath
10
8.7700392
20
10.9157133
11
8.4848993
21
10.038143
0
LINE
8
bottom_outsideCutPath
10
8.4848993
20
10.038143
11
8.3726747
21
10.074607
0
LINE
8
bottom_outsideCutPath
10
8.3726747
20
10.074607
11
8.1174266
21
9.2890343
0
LINE
8
bottom_outsideCutPath
10
8.1174266
20
9.2890343
11
8.2296513
21
9.2525703
0
LINE
8
bottom_outsideCutPath
10
8.2296513
20
9.2525703
11
7.9744033
21
8.4669976
0
LINE
8
bottom_outsideCutPath
10
7.9744033
20
8.4669976
11
7.9445114
21
8.375
0
LINE
8
bottom_outsideCutPath
10
7.9445114
20
8.375
11
7.0217794
21
8.375
0
LINE
8
bottom_outsideCutPath
10
7.0217794
20
8.375
11
7.0217794
21
8.493
0
LINE
8
bottom_outsideCutPath
10
7.0217794
20
8.493
11
6.1957794
21
8.493
0
LINE
8
bottom_outsideCutPath
10
6.1957794
20
8.493
11
6.1957794
21
8.375
0
LINE
8
bottom_outsideCutPath
10
6.1957794
20
8.375
11
5.3697794
21
8.375
0
LINE
8
bottom_outsideCutPath
10
5.3697794
20
8.375
11
5.2730474
21
8.375
0
LINE
8
bottom_outsideCutPath
10
5.2730474
20
8.375
11
4.9879075
21
9.2525703
0
LINE
8
bottom_outsideCutPath
10
4.9879075
20
9.2525703
11
5.1001322
21
9.2890343
0
LINE
8
bottom_outsideCutPath
10
5.1001322
20
9.2890343
11
4.8448842
21
10.074607
0
LINE
8
bottom_outsideCutPath
10
4.8448842
20
10.074607
11
4.7326595
21
10.038143
0
LINE
8
bottom_outsideCutPath
10
4.7326595
20
10.038143
11
4.4774114
21
10.8237157
0
LINE
8
bottom_outsideCutPath
10
4.4774114
20
10.8237157
11
4.4475196
21
10.9157133
0
LINE
8
bottom_outsideCutPath
10
4.4475196
20
10.9157133
11
5.1940255
21
11.4580816
0
LINE
8
bottom_outsideCutPath
10
5.1940255
20
11.4580816
11
5.2633842
21
11.3626175
0
LINE
8
bottom_outsideCutPath
10
5.2633842
20
11.3626175
11
5.9316322
21
11.8481282
0
LINE
8
bottom_outsideCutPath
10
5.9316322
20
11.8481282
11
5.8622735
21
11.9435922
0
LINE
8
bottom_outsideCutPath
10
5.8622735
20
11.9435922
11
6.5305216
21
12.4291028
0
LINE
8
bottom_outsideCutPath
10
6.5305216
20
12.4291028
11
6.6087794
21
12.4859604
0
LINE
8
bottom_labelLayer
10
5.322898
20
9.9617718
11
5.3180804
21
9.9617718
0
LINE
8
bottom_labelLayer
10
5.3180804
20
9.9617718
11
5.3040293
21
9.9051658
0
LINE
8
bottom_labelLayer
10
5.3040293
20
9.9051658
11
5.2562554
21
9.9051658
0
LINE
8
bottom_labelLayer
10
5.2562554
20
9.9051658
11
5.2562554
21
10.529839
0
LINE
8
bottom_labelLayer
10
5.2562554
20
10.529839
11
5.322898
21
10.529839
0
LINE
8
bottom_labelLayer
10
5.322898
20
10.529839
11
5.322898
21
10.3780868
0
LINE
8
bottom_labelLayer
10
5.3196863
20
10.2865537
11
5.322898
21
10.2865537
0
ARC
8
bottom_labelLayer
10
5.4629991
20
10.1487187
40
0.2036844
50
74.2393033
51
90.5622071
0
ARC
8
bottom_labelLayer
10
5.4764676
20
10.1981285
40
0.1524747
50
38.5632168
51
74.0669753
0
ARC
8
bottom_labelLayer
10
5.4418073
20
10.1711785
40
0.196377
50
16.4710172
51
38.4074967
0
ARC
8
bottom_labelLayer
10
5.3419511
20
10.1398681
40
0.3010177
50
5.1339378
51
16.797133
0
ARC
8
bottom_labelLayer
10
5.2159004
20
10.1264791
40
0.4277658
50
359.8779415
51
5.4092835
0
ARC
8
bottom_labelLayer
10
5.2529387
20
10.1232625
40
0.3907334
50
350.6561139
51
0.3380428
0
ARC
8
bottom_labelLayer
10
5.3891608
20
10.10009
40
0.2525576
50
335.830264
51
350.8258224
0
ARC
8
bottom_labelLayer
10
5.4490687
20
10.074232
40
0.1873165
50
321.3161454
51
335.5434809
0
ARC
8
bottom_labelLayer
10
5.471978
20
10.0555645
40
0.157766
50
274.0639965
51
321.4080932
0
ARC
8
bottom_labelLayer
10
5.4613081
20
10.1231362
40
0.2259998
50
269.9220379
51
275.5483422
0
ARC
8
bottom_labelLayer
10
5.4598767
20
10.099275
40
0.2021416
50
255.7755684
51
270.3185473
0
ARC
8
bottom_labelLayer
10
5.4541088
20
10.0736455
40
0.1758819
50
245.9799671
51
255.5453775
0
ARC
8
bottom_labelLayer
10
5.4429353
20
10.0476626
40
0.1476015
50
215.5850407
51
245.8361234
0
ARC
8
bottom_labelLayer
10
3.9335927
20
10.3769122
40
1.3893057
50
358.1121301
51
0.0484404
0
ARC
8
bottom_labelLayer
10
4.3200555
20
10.3639326
40
1.0026252
50
355.724121
51
358.1259084
0
ARC
8
bottom_labelLayer
10
4.4619202
20
10.354424
40
0.8604471
50
355.4759279
51
355.6511985
0
ARC
8
bottom_labelLayer
10
5.4471832
20
10.1998864
40
0.1515191
50
95.1834624
51
145.1109392
0
ARC
8
bottom_labelLayer
10
5.4604998
20
10.1248088
40
0.227585
50
89.8739362
51
96.8148695
0
ARC
8
bottom_labelLayer
10
5.4499693
20
10.1093328
40
0.1872626
50
89.5728229
51
100.7326214
0
ARC
8
bottom_labelLayer
10
5.4361057
20
10.1793698
40
0.1158704
50
100.4466053
51
119.6703292
0
ARC
8
bottom_labelLayer
10
5.4232509
20
10.203402
40
0.0886288
50
120.1402127
51
142.4250753
0
ARC
8
bottom_labelLayer
10
5.4445224
20
10.1893303
40
0.1140832
50
143.3384987
51
161.2558006
0
ARC
8
bottom_labelLayer
10
5.5334519
20
10.1577566
40
0.2084463
50
160.8923595
51
171.2335503
0
ARC
8
bottom_labelLayer
10
5.6819326
20
10.1338024
40
0.3588447
50
171.0667292
51
177.8456738
0
ARC
8
bottom_labelLayer
10
5.8363802
20
10.1259444
40
0.5134825
50
177.6173145
51
180.0420202
0
ARC
8
bottom_labelLayer
10
5.7635097
20
10.1238455
40
0.4406151
50
179.7760286
51
185.7075546
0
ARC
8
bottom_labelLayer
10
5.5897992
20
10.105947
40
0.2659862
50
185.5925039
51
194.2052079
0
ARC
8
bottom_labelLayer
10
5.47852
20
10.0770661
40
0.151024
50
193.9433108
51
208.0216444
0
ARC
8
bottom_labelLayer
10
5.4334776
20
10.0541502
40
0.1005003
50
208.5527956
51
217.560823
0
ARC
8
bottom_labelLayer
10
5.4298193
20
10.0526315
40
0.0966799
50
218.1690056
51
253.8048082
0
ARC
8
bottom_labelLayer
10
5.4477515
20
10.1079148
40
0.1547813
50
253.1379292
51
266.8483657
0
ARC
8
bottom_labelLayer
10
5.4527804
20
10.1672407
40
0.2143011
50
266.3778996
51
270.051039
0
ARC
8
bottom_labelLayer
10
5.4543923
20
10.0857843
40
0.1328523
50
269.3871593
51
285.8631945
0
ARC
8
bottom_labelLayer
10
5.4642624
20
10.0501123
40
0.0958413
50
286.0164908
51
326.8495935
0
ARC
8
bottom_labelLayer
10
5.4166276
20
10.0816692
40
0.15298
50
326.7102565
51
343.6662122
0
ARC
8
bottom_labelLayer
10
5.3274519
20
10.108919
40
0.2462223
50
343.4170046
51
353.6368601
0
ARC
8
bottom_labelLayer
10
5.192771
20
10.1249009
40
0.3818459
50
353.4932837
51
0.2205449
0
ARC
8
bottom_labelLayer
10
5.1808706
20
10.1279645
40
0.3937466
50
359.7680815
51
6.3092464
0
ARC
8
bottom_labelLayer
10
5.3291775
20
10.1449797
40
0.2444688
50
6.1653495
51
16.0393067
0
ARC
8
bottom_labelLayer
10
5.4246585
20
10.1731087
40
0.1449341
50
15.7811932
51
31.9756271
0
ARC
8
bottom_labelLayer
10
5.4543821
20
10.1900995
40
0.1107308
50
32.6625633
51
35.5226232
0
ARC
8
bottom_labelLayer
10
5.465425
20
10.1979451
40
0.0971847
50
35.5407859
51
79.8011042
0
ARC
8
bottom_labelLayer
10
5.4523742
20
10.1424583
40
0.1541351
50
78.6784912
51
90.3749686
0
ARC
8
bottom_labelLayer
10
5.7956438
20
10.1232462
40
0.3442351
50
349.1763249
51
0.3864279
0
ARC
8
bottom_labelLayer
10
5.9115425
20
10.1001418
40
0.2260612
50
330.2505401
51
349.411793
0
ARC
8
bottom_labelLayer
10
5.947215
20
10.0815985
40
0.1858958
50
318.1435608
51
329.7568921
0
ARC
8
bottom_labelLayer
10
5.9536438
20
10.0764451
40
0.1776695
50
278.895825
51
317.9980066
0
ARC
8
bottom_labelLayer
10
5.9370578
20
10.1559038
40
0.2587697
50
269.750038
51
279.8034771
0
ARC
8
bottom_labelLayer
10
5.9343667
20
10.1111418
40
0.214011
50
253.5439348
51
270.4182407
0
ARC
8
bottom_labelLayer
10
5.9272409
20
10.0835786
40
0.1855607
50
238.8115751
51
253.2431306
0
ARC
8
bottom_labelLayer
10
5.9249441
20
10.0789584
40
0.1804192
50
207.7947308
51
238.6757398
0
ARC
8
bottom_labelLayer
10
5.957891
20
10.0991443
40
0.2189919
50
205.6564365
51
208.4471494
0
ARC
8
bottom_labelLayer
10
5.9833427
20
10.1097501
40
0.2465304
50
188.9100476
51
205.3171519
0
ARC
8
bottom_labelLayer
10
6.0689911
20
10.1242556
40
0.3333937
50
179.7744766
51
189.0930645
0
ARC
8
bottom_labelLayer
10
6.0816079
20
10.1279115
40
0.346016
50
169.2440588
51
180.3880843
0
ARC
8
bottom_labelLayer
10
5.9641067
20
10.1511393
40
0.2262462
50
150.7111101
51
169.469678
0
ARC
8
bottom_labelLayer
10
5.9265995
20
10.1704006
40
0.1841173
50
138.1761679
51
150.2287623
0
ARC
8
bottom_labelLayer
10
5.9203568
20
10.175191
40
0.1762717
50
99.1758963
51
137.9833635
0
ARC
8
bottom_labelLayer
10
5.9375323
20
10.0943635
40
0.2588356
50
89.7328649
51
100.0761015
0
ARC
8
bottom_labelLayer
10
5.9409644
20
10.1292717
40
0.2239356
50
73.5224063
51
90.569379
0
ARC
8
bottom_labelLayer
10
5.9540963
20
10.1769853
40
0.1744592
50
41.1445857
51
73.2133847
0
ARC
8
bottom_labelLayer
10
5.9290268
20
10.1554387
40
0.2075148
50
13.5014777
51
41.0702952
0
ARC
8
bottom_labelLayer
10
5.8321788
20
10.1300939
40
0.3076103
50
1.1277166
51
13.8801949
0
ARC
8
bottom_labelLayer
10
5.748668
20
10.1256231
40
0.391203
50
359.9919063
51
1.541663
0
ARC
8
bottom_labelLayer
10
6.1421051
20
10.1238346
40
0.3374584
50
179.7057229
51
187.9162773
0
ARC
8
bottom_labelLayer
10
6.0183494
20
10.1060568
40
0.2124343
50
187.7641458
51
200.0977731
0
ARC
8
bottom_labelLayer
10
5.9501564
20
10.0810705
40
0.139808
50
200.0845989
51
216.9135795
0
ARC
8
bottom_labelLayer
10
5.92526
20
10.0632926
40
0.1092274
50
217.301138
51
261.7099005
0
ARC
8
bottom_labelLayer
10
5.9368181
20
10.1184514
40
0.1655132
50
260.5036793
51
270.2480708
0
ARC
8
bottom_labelLayer
10
5.9390262
20
10.1077242
40
0.1547918
50
269.4479191
51
284.7254962
0
ARC
8
bottom_labelLayer
10
5.9512795
20
10.0622796
40
0.1077254
50
284.5662846
51
322.6333815
0
ARC
8
bottom_labelLayer
10
5.9226261
20
10.0829798
40
0.1430646
50
323.009135
51
342.6388134
0
ARC
8
bottom_labelLayer
10
5.8406859
20
10.1097598
40
0.2292655
50
342.3615507
51
353.7539462
0
ARC
8
bottom_labelLayer
10
5.7197788
20
10.1243353
40
0.3510433
50
353.5361309
51
0.2011663
0
ARC
8
bottom_labelLayer
10
5.7382996
20
10.1272637
40
0.3325244
50
359.7077935
51
7.8973384
0
ARC
8
bottom_labelLayer
10
5.860087
20
10.1447241
40
0.209494
50
7.7437967
51
20.06904
0
ARC
8
bottom_labelLayer
10
5.9279416
20
10.1696239
40
0.1372151
50
20.0258515
51
37.4350334
0
ARC
8
bottom_labelLayer
10
5.9504579
20
10.1856016
40
0.1096285
50
37.9575948
51
80.4006557
0
ARC
8
bottom_labelLayer
10
5.9376631
20
10.1285108
40
0.168082
50
79.345457
51
90.3174694
0
ARC
8
bottom_labelLayer
10
5.9352933
20
10.1380044
40
0.1585924
50
89.4802903
51
103.8810235
0
ARC
8
bottom_labelLayer
10
5.9219683
20
10.1887419
40
0.1061426
50
103.4688325
51
142.3117087
0
ARC
8
bottom_labelLayer
10
5.9478778
20
10.1705218
40
0.1377927
50
142.902892
51
162.374924
0
ARC
8
bottom_labelLayer
10
6.0295097
20
10.1433186
40
0.2238327
50
162.0654076
51
173.167685
0
ARC
8
bottom_labelLayer
10
6.1568072
20
10.1270822
40
0.3521593
50
173.0086791
51
180.2463817
0
LINE
8
bottom_labelLayer
10
6.4590325
20
9.9601659
11
6.4590325
21
9.9091804
0
LINE
8
bottom_labelLayer
10
6.2615137
20
10.031626
11
6.2615137
21
10.2933785
0
LINE
8
bottom_labelLayer
10
6.2615137
20
10.2933785
11
6.1984844
21
10.2933785
0
LINE
8
bottom_labelLayer
10
6.1984844
20
10.2933785
11
6.1984844
21
10.3254954
0
LINE
8
bottom_labelLayer
10
6.1984844
20
10.3254954
11
6.2615137
21
10.3531962
0
LINE
8
bottom_labelLayer
10
6.2615137
20
10.3531962
11
6.289616
21
10.4471381
0
LINE
8
bottom_labelLayer
10
6.289616
20
10.4471381
11
6.3281563
21
10.4471381
0
LINE
8
bottom_labelLayer
10
6.3281563
20
10.4471381
11
6.3281563
21
10.345167
0
LINE
8
bottom_labelLayer
10
6.3281563
20
10.345167
11
6.4558208
21
10.345167
0
LINE
8
bottom_labelLayer
10
6.4558208
20
10.345167
11
6.4558208
21
10.2933785
0
LINE
8
bottom_labelLayer
10
6.4558208
20
10.2933785
11
6.3281563
21
10.2933785
0
LINE
8
bottom_labelLayer
10
6.3281563
20
10.2933785
11
6.3281563
21
10.0344362
0
ARC
8
bottom_labelLayer
10
6.3992704
20
10.1709913
40
0.2188551
50
269.8803651
51
278.3031507
0
ARC
8
bottom_labelLayer
10
6.4017939
20
10.1511018
40
0.1988101
50
278.4112823
51
279.0125321
0
ARC
8
bottom_labelLayer
10
6.3767889
20
10.310882
40
0.3605348
50
278.9595465
51
280.5108805
0
ARC
8
bottom_labelLayer
10
6.4001863
20
10.1853496
40
0.2328408
50
280.4850812
51
282.6265017
0
ARC
8
bottom_labelLayer
10
6.4207151
20
10.0941385
40
0.1393481
50
282.587833
51
285.5786752
0
ARC
8
bottom_labelLayer
10
6.4312109
20
10.0555606
40
0.0993689
50
285.722997
51
286.2592167
0
ARC
8
bottom_labelLayer
10
6.4310179
20
9.9684324
40
0.065541
50
287.9880102
51
295.3050015
0
ARC
8
bottom_labelLayer
10
6.4152205
20
10.0162102
40
0.1158623
50
283.3062502
51
288.1218121
0
ARC
8
bottom_labelLayer
10
6.3985051
20
10.0859281
40
0.1875558
50
280.0069007
51
283.3736633
0
ARC
8
bottom_labelLayer
10
6.3871955
20
10.147336
40
0.2499951
50
279.1887182
51
280.1139163
0
ARC
8
bottom_labelLayer
10
6.3804774
20
10.1855237
40
0.288766
50
275.5256726
51
279.2946274
0
ARC
8
bottom_labelLayer
10
6.3882023
20
10.1047908
40
0.2076643
50
270.8923102
51
275.5490983
0
ARC
8
bottom_labelLayer
10
6.3891535
20
10.0708293
40
0.1736927
50
270.0081902
51
270.7530515
0
ARC
8
bottom_labelLayer
10
6.3864885
20
10.0711723
40
0.1740565
50
253.7846264
51
270.8854799
0
ARC
8
bottom_labelLayer
10
6.3658676
20
10.000849
40
0.1007726
50
190.3817845
51
253.8772119
0
ARC
8
bottom_labelLayer
10
6.4709714
20
10.0292683
40
0.209471
50
179.3551113
51
192.8480227
0
ARC
8
bottom_labelLayer
10
6.4623438
20
10.0335969
40
0.1341902
50
179.6416314
51
189.7509967
0
ARC
8
bottom_labelLayer
10
6.414976
20
10.0251469
40
0.0860762
50
189.5477409
51
205.7871323
0
ARC
8
bottom_labelLayer
10
6.3955103
20
10.0161723
40
0.0646458
50
206.1303833
51
221.4083772
0
ARC
8
bottom_labelLayer
10
6.3933244
20
10.0145132
40
0.0619094
50
221.5947844
51
262.3503905
0
ARC
8
bottom_labelLayer
10
6.3985172
20
10.0412249
40
0.0890887
50
261.3271824
51
270.1904933
0
LINE
8
bottom_labelLayer
10
6.7492888
20
9.9601659
11
6.7492888
21
9.9091804
0
LINE
8
bottom_labelLayer
10
6.55177
20
10.031626
11
6.55177
21
10.2933785
0
LINE
8
bottom_labelLayer
10
6.55177
20
10.2933785
11
6.4887406
21
10.2933785
0
LINE
8
bottom_labelLayer
10
6.4887406
20
10.2933785
11
6.4887406
21
10.3254954
0
LINE
8
bottom_labelLayer
10
6.4887406
20
10.3254954
11
6.55177
21
10.3531962
0
LINE
8
bottom_labelLayer
10
6.55177
20
10.3531962
11
6.5798723
21
10.4471381
0
LINE
8
bottom_labelLayer
10
6.5798723
20
10.4471381
11
6.6184125
21
10.4471381
0
LINE
8
bottom_labelLayer
10
6.6184125
20
10.4471381
11
6.6184125
21
10.345167
0
LINE
8
bottom_labelLayer
10
6.6184125
20
10.345167
11
6.7460771
21
10.345167
0
LINE
8
bottom_labelLayer
10
6.7460771
20
10.345167
11
6.7460771
21
10.2933785
0
LINE
8
bottom_labelLayer
10
6.7460771
20
10.2933785
11
6.6184125
21
10.2933785
0
LINE
8
bottom_labelLayer
10
6.6184125
20
10.2933785
11
6.6184125
21
10.0344362
0
ARC
8
bottom_labelLayer
10
6.6895266
20
10.1709913
40
0.2188551
50
269.8803651
51
278.3031507
0
ARC
8
bottom_labelLayer
10
6.6920502
20
10.1511018
40
0.1988101
50
278.4112823
51
279.0125321
0
ARC
8
bottom_labelLayer
10
6.6670452
20
10.310882
40
0.3605348
50
278.9595465
51
280.5108805
0
ARC
8
bottom_labelLayer
10
6.6904426
20
10.1853496
40
0.2328408
50
280.4850812
51
282.6265017
0
ARC
8
bottom_labelLayer
10
6.7109713
20
10.0941385
40
0.1393481
50
282.587833
51
285.5786752
0
ARC
8
bottom_labelLayer
10
6.7214672
20
10.0555606
40
0.0993689
50
285.722997
51
286.2592167
0
ARC
8
bottom_labelLayer
10
6.7212742
20
9.9684324
40
0.065541
50
287.9880102
51
295.3050015
0
ARC
8
bottom_labelLayer
10
6.7054768
20
10.0162102
40
0.1158623
50
283.3062502
51
288.1218121
0
ARC
8
bottom_labelLayer
10
6.6887614
20
10.0859281
40
0.1875558
50
280.0069007
51
283.3736633
0
ARC
8
bottom_labelLayer
10
6.6774518
20
10.147336
40
0.2499951
50
279.1887182
51
280.1139163
0
ARC
8
bottom_labelLayer
10
6.6707337
20
10.1855237
40
0.288766
50
275.5256726
51
279.2946274
0
ARC
8
bottom_labelLayer
10
6.6784586
20
10.1047908
40
0.2076643
50
270.8923102
51
275.5490983
0
ARC
8
bottom_labelLayer
10
6.6794098
20
10.0708293
40
0.1736927
50
270.0081902
51
270.7530515
0
ARC
8
bottom_labelLayer
10
6.6767448
20
10.0711723
40
0.1740565
50
253.7846264
51
270.8854799
0
ARC
8
bottom_labelLayer
10
6.6561239
20
10.000849
40
0.1007726
50
190.3817845
51
253.8772119
0
ARC
8
bottom_labelLayer
10
6.7612276
20
10.0292683
40
0.209471
50
179.3551113
51
192.8480227
0
ARC
8
bottom_labelLayer
10
6.7526001
20
10.0335969
40
0.1341902
50
179.6416314
51
189.7509967
0
ARC
8
bottom_labelLayer
10
6.7052323
20
10.0251469
40
0.0860762
50
189.5477409
51
205.7871323
0
ARC
8
bottom_labelLayer
10
6.6857666
20
10.0161723
40
0.0646458
50
206.1303833
51
221.4083772
0
ARC
8
bottom_labelLayer
10
6.6835807
20
10.0145132
40
0.0619094
50
221.5947844
51
262.3503905
0
ARC
8
bottom_labelLayer
10
6.6887735
20
10.0412249
40
0.0890887
50
261.3271824
51
270.1904933
0
ARC
8
bottom_labelLayer
10
6.8727636
20
10.1232462
40
0.3442351
50
349.1763249
51
0.3864279
0
ARC
8
bottom_labelLayer
10
6.9886624
20
10.1001418
40
0.2260612
50
330.2505401
51
349.411793
0
ARC
8
bottom_labelLayer
10
7.0243348
20
10.0815985
40
0.1858958
50
318.1435608
51
329.7568921
0
ARC
8
bottom_labelLayer
10
7.0307636
20
10.0764451
40
0.1776695
50
278.895825
51
317.9980066
0
ARC
8
bottom_labelLayer
10
7.0141776
20
10.1559038
40
0.2587697
50
269.750038
51
279.8034771
0
ARC
8
bottom_labelLayer
10
7.0114865
20
10.1111418
40
0.214011
50
253.5439348
51
270.4182407
0
ARC
8
bottom_labelLayer
10
7.0043607
20
10.0835786
40
0.1855607
50
238.8115751
51
253.2431306
0
ARC
8
bottom_labelLayer
10
7.0020639
20
10.0789584
40
0.1804192
50
207.7947308
51
238.6757398
0
ARC
8
bottom_labelLayer
10
7.0350108
20
10.0991443
40
0.2189919
50
205.6564365
51
208.4471494
0
ARC
8
bottom_labelLayer
10
7.0604625
20
10.1097501
40
0.2465304
50
188.9100476
51
205.3171519
0
ARC
8
bottom_labelLayer
10
7.1461109
20
10.1242556
40
0.3333937
50
179.7744766
51
189.0930645
0
ARC
8
bottom_labelLayer
10
7.1587277
20
10.1279115
40
0.346016
50
169.2440588
51
180.3880843
0
ARC
8
bottom_labelLayer
10
7.0412266
20
10.1511393
40
0.2262462
50
150.7111101
51
169.469678
0
ARC
8
bottom_labelLayer
10
7.0037194
20
10.1704006
40
0.1841173
50
138.1761679
51
150.2287623
0
ARC
8
bottom_labelLayer
10
6.9974766
20
10.175191
40
0.1762717
50
99.1758963
51
137.9833635
0
ARC
8
bottom_labelLayer
10
7.0146521
20
10.0943635
40
0.2588356
50
89.7328649
51
100.0761015
0
ARC
8
bottom_labelLayer
10
7.0180842
20
10.1292717
40
0.2239356
50
73.5224063
51
90.569379
0
ARC
8
bottom_labelLayer
10
7.0312161
20
10.1769853
40
0.1744592
50
41.1445857
51
73.2133847
0
ARC
8
bottom_labelLayer
10
7.0061467
20
10.1554387
40
0.2075148
50
13.5014777
51
41.0702952
0
ARC
8
bottom_labelLayer
10
6.9092986
20
10.1300939
40
0.3076103
50
1.1277166
51
13.8801949
0
ARC
8
bottom_labelLayer
10
6.8257878
20
10.1256231
40
0.391203
50
359.9919063
51
1.541663
0
ARC
8
bottom_labelLayer
10
7.2192249
20
10.1238346
40
0.3374584
50
179.7057229
51
187.9162773
0
ARC
8
bottom_labelLayer
10
7.0954692
20
10.1060568
40
0.2124343
50
187.7641458
51
200.0977731
0
ARC
8
bottom_labelLayer
10
7.0272762
20
10.0810705
40
0.139808
50
200.0845989
51
216.9135795
0
ARC
8
bottom_labelLayer
10
7.0023798
20
10.0632926
40
0.1092274
50
217.301138
51
261.7099005
0
ARC
8
bottom_labelLayer
10
7.0139379
20
10.1184514
40
0.1655132
50
260.5036793
51
270.2480708
0
ARC
8
bottom_labelLayer
10
7.016146
20
10.1077242
40
0.1547918
50
269.4479191
51
284.7254962
0
ARC
8
bottom_labelLayer
10
7.0283993
20
10.0622796
40
0.1077254
50
284.5662846
51
322.6333815
0
ARC
8
bottom_labelLayer
10
6.9997459
20
10.0829798
40
0.1430646
50
323.009135
51
342.6388134
0
ARC
8
bottom_labelLayer
10
6.9178057
20
10.1097598
40
0.2292655
50
342.3615507
51
353.7539462
0
ARC
8
bottom_labelLayer
10
6.7968986
20
10.1243353
40
0.3510433
50
353.5361309
51
0.2011663
0
ARC
8
bottom_labelLayer
10
6.8154195
20
10.1272637
40
0.3325244
50
359.7077935
51
7.8973384
0
ARC
8
bottom_labelLayer
10
6.9372068
20
10.1447241
40
0.209494
50
7.7437967
51
20.06904
0
ARC
8
bottom_labelLayer
10
7.0050614
20
10.1696239
40
0.1372151
50
20.0258515
51
37.4350334
0
ARC
8
bottom_labelLayer
10
7.0275777
20
10.1856016
40
0.1096285
50
37.9575948
51
80.4006557
0
ARC
8
bottom_labelLayer
10
7.0147829
20
10.1285108
40
0.168082
50
79.345457
51
90.3174694
0
ARC
8
bottom_labelLayer
10
7.0124131
20
10.1380044
40
0.1585924
50
89.4802903
51
103.8810235
0
ARC
8
bottom_labelLayer
10
6.9990881
20
10.1887419
40
0.1061426
50
103.4688325
51
142.3117087
0
ARC
8
bottom_labelLayer
10
7.0249976
20
10.1705218
40
0.1377927
50
142.902892
51
162.374924
0
ARC
8
bottom_labelLayer
10
7.1066295
20
10.1433186
40
0.2238327
50
162.0654076
51
173.167685
0
ARC
8
bottom_labelLayer
10
7.233927
20
10.1270822
40
0.3521593
50
173.0086791
51
180.2463817
0
LINE
8
bottom_labelLayer
10
7.9612995
20
9.9051658
11
7.894657
21
9.9051658
0
LINE
8
bottom_labelLayer
10
7.894657
20
9.9051658
11
7.894657
21
10.1914074
0
LINE
8
bottom_labelLayer
10
7.6806783
20
10.1508599
11
7.6806783
21
9.9051658
0
LINE
8
bottom_labelLayer
10
7.6806783
20
9.9051658
11
7.6140358
21
9.9051658
0
LINE
8
bottom_labelLayer
10
7.6140358
20
9.9051658
11
7.6140358
21
10.1914074
0
LINE
8
bottom_labelLayer
10
7.4004585
20
10.1360058
11
7.4004585
21
9.9051658
0
LINE
8
bottom_labelLayer
10
7.4004585
20
9.9051658
11
7.333816
21
9.9051658
0
LINE
8
bottom_labelLayer
10
7.333816
20
9.9051658
11
7.333816
21
10.345167
0
LINE
8
bottom_labelLayer
10
7.333816
20
10.345167
11
7.3880132
21
10.345167
0
LINE
8
bottom_labelLayer
10
7.3880132
20
10.345167
11
7.3988527
21
10.2849478
0
LINE
8
bottom_labelLayer
10
7.3988527
20
10.2849478
11
7.4020644
21
10.2849478
0
LINE
8
bottom_labelLayer
10
7.6670286
20
10.2785245
11
7.6702403
21
10.2785245
0
LINE
8
bottom_labelLayer
10
7.9612995
20
10.1922104
11
7.9612995
21
9.9051658
0
ARC
8
bottom_labelLayer
10
7.6980394
20
10.1924533
40
0.1966203
50
359.6952226
51
8.1466956
0
ARC
8
bottom_labelLayer
10
7.7704694
20
10.2031698
40
0.1234031
50
7.9867924
51
20.7948725
0
ARC
8
bottom_labelLayer
10
7.8105025
20
10.2185045
40
0.0805338
50
20.7072722
51
40.0220633
0
ARC
8
bottom_labelLayer
10
7.819282
20
10.2242484
40
0.070128
50
41.0412119
51
73.1787448
0
ARC
8
bottom_labelLayer
10
7.8065755
20
10.1858115
40
0.1106022
50
72.6401075
51
86.2564452
0
ARC
8
bottom_labelLayer
10
7.8025035
20
10.1418721
40
0.1547183
50
85.8141251
51
90.0676004
0
ARC
8
bottom_labelLayer
10
7.8010096
20
10.125123
40
0.1714722
50
89.5618153
51
101.2965003
0
ARC
8
bottom_labelLayer
10
7.788095
20
10.1869436
40
0.108321
50
101.0031601
51
121.7838538
0
ARC
8
bottom_labelLayer
10
7.778276
20
10.2044742
40
0.0882518
50
122.3598135
51
140.2885509
0
ARC
8
bottom_labelLayer
10
7.7959447
20
10.1915191
40
0.110129
50
140.9767789
51
161.1695045
0
ARC
8
bottom_labelLayer
10
7.8624791
20
10.1678408
40
0.1807474
50
160.8728938
51
172.5277399
0
ARC
8
bottom_labelLayer
10
7.9736934
20
10.1524799
40
0.2930159
50
172.3776829
51
180.1829825
0
ARC
8
bottom_labelLayer
10
8.2650256
20
10.1506897
40
0.5843473
50
179.9162248
51
179.9833156
0
ARC
8
bottom_labelLayer
10
7.4174182
20
10.1924533
40
0.1966203
50
359.6952226
51
8.1466956
0
ARC
8
bottom_labelLayer
10
7.4898482
20
10.2031698
40
0.1234031
50
7.9867924
51
20.7948725
0
ARC
8
bottom_labelLayer
10
7.5298813
20
10.2185045
40
0.0805338
50
20.7072722
51
40.0220633
0
ARC
8
bottom_labelLayer
10
7.5388445
20
10.2243762
40
0.0699055
50
41.0610669
51
72.899352
0
ARC
8
bottom_labelLayer
10
7.5258963
20
10.1858297
40
0.1105602
50
72.3598145
51
85.9557392
0
ARC
8
bottom_labelLayer
10
7.521512
20
10.1404535
40
0.1561368
50
85.5252081
51
90.0784071
0
ARC
8
bottom_labelLayer
10
7.5200186
20
10.1310795
40
0.1655156
50
89.5570078
51
101.4832838
0
ARC
8
bottom_labelLayer
10
7.5073149
20
10.1905971
40
0.1046621
50
101.1545412
51
123.0655566
0
ARC
8
bottom_labelLayer
10
7.498681
20
10.2056385
40
0.0873514
50
123.7024211
51
142.3021647
0
ARC
8
bottom_labelLayer
10
7.5189092
20
10.1919152
40
0.1117589
50
143.0768302
51
161.390979
0
ARC
8
bottom_labelLayer
10
7.600454
20
10.1631166
40
0.1982342
50
161.023536
51
171.4466848
0
ARC
8
bottom_labelLayer
10
7.735402
20
10.141976
40
0.3348265
50
171.3038512
51
178.3505425
0
ARC
8
bottom_labelLayer
10
7.8645962
20
10.1362051
40
0.4641379
50
178.0975159
51
180.024603
0
ARC
8
bottom_labelLayer
10
7.5149675
20
10.2185543
40
0.1309779
50
117.1212459
51
149.5420398
0
ARC
8
bottom_labelLayer
10
7.5283337
20
10.194796
40
0.1582208
50
93.8345484
51
117.5071573
0
ARC
8
bottom_labelLayer
10
7.532025
20
10.1620674
40
0.1911288
50
89.9661933
51
94.2824881
0
ARC
8
bottom_labelLayer
10
7.5342379
20
10.1350197
40
0.2181866
50
77.5573559
51
90.551519
0
ARC
8
bottom_labelLayer
10
7.5544826
20
10.2220983
40
0.1287951
50
52.7025545
51
78.0053367
0
ARC
8
bottom_labelLayer
10
7.5616962
20
10.2355184
40
0.1137736
50
22.2096484
51
51.4971028
0
ARC
8
bottom_labelLayer
10
7.7909667
20
10.209336
40
0.1391471
50
119.4043321
51
150.1829053
0
ARC
8
bottom_labelLayer
10
7.8061989
20
10.186226
40
0.1667695
50
118.2561813
51
120.0652272
0
ARC
8
bottom_labelLayer
10
7.8063538
20
10.1841538
40
0.1686702
50
95.8633866
51
117.9692823
0
ARC
8
bottom_labelLayer
10
7.8120609
20
10.1429147
40
0.2102818
50
89.9191951
51
96.262409
0
ARC
8
bottom_labelLayer
10
7.8138954
20
10.121547
40
0.2316544
50
79.9361664
51
90.3803782
0
ARC
8
bottom_labelLayer
10
7.8293304
20
10.2051426
40
0.1466489
50
62.9725365
51
80.1664965
0
ARC
8
bottom_labelLayer
10
7.8454672
20
10.2382504
40
0.1098259
50
44.2286495
51
62.6228672
0
ARC
8
bottom_labelLayer
10
7.8406656
20
10.2361274
40
0.1147621
50
19.5615207
51
43.3160139
0
ARC
8
bottom_labelLayer
10
7.7709587
20
10.2099474
40
0.1892159
50
7.5044865
51
19.9641753
0
ARC
8
bottom_labelLayer
10
7.6556345
20
10.1937536
40
0.3056689
50
359.7107285
51
7.6906785
0
ENDSEC
0
EOF