0
SECTION
2
HEADER
9
$INSUNITS
70
4
0
ENDSEC
0
SECTION
2
TABLES
0
TABLE
2
LTYPE
0
LTYPE
72
65
70
64
2
CONTINUOUS
3
______
73
0
40
0
0
ENDTAB
0
TABLE
2
LAYER
0
ENDTAB
0
ENDSEC
0
SECTION
2
ENTITIES
0
LINE
8
side1_outsideCutPath
10
4.1291458
20
130
11
4.1291458
21
116.75
0
LINE
8
side1_outsideCutPath
10
4.1291458
20
116.75
11
0
21
116.75
0
LINE
8
side1_outsideCutPath
10
0
20
116.75
11
0
21
97.25
0
LINE
8
side1_outsideCutPath
10
0
20
97.25
11
4.1291458
21
97.25
0
LINE
8
side1_outsideCutPath
10
4.1291458
20
97.25
11
4.1291458
21
77.75
0
LINE
8
side1_outsideCutPath
10
4.1291458
20
77.75
11
0
21
77.75
0
LINE
8
side1_outsideCutPath
10
0
20
77.75
11
0
21
58.25
0
LINE
8
side1_outsideCutPath
10
0
20
58.25
11
4.1291458
21
58.25
0
LINE
8
side1_outsideCutPath
10
4.1291458
20
58.25
11
4.1291458
21
38.75
0
LINE
8
side1_outsideCutPath
10
4.1291458
20
38.75
11
0
21
38.75
0
LINE
8
side1_outsideCutPath
10
0
20
38.75
11
0
21
19.25
0
LINE
8
side1_outsideCutPath
10
0
20
19.25
11
4.1291458
21
19.25
0
LINE
8
side1_outsideCutPath
10
4.1291458
20
19.25
11
4.1291458
21
6
0
LINE
8
side1_outsideCutPath
10
4.1291458
20
6
11
23.4043867
21
6
0
LINE
8
side1_outsideCutPath
10
23.4043867
20
6
11
23.4043867
21
3
0
LINE
8
side1_outsideCutPath
10
23.4043867
20
3
11
42.9043867
21
3
0
LINE
8
side1_outsideCutPath
10
42.9043867
20
3
11
42.9043867
21
6
0
LINE
8
side1_outsideCutPath
10
42.9043867
20
6
11
62.4043867
21
6
0
LINE
8
side1_outsideCutPath
10
62.4043867
20
6
11
66.3087733
21
6
0
LINE
8
side1_outsideCutPath
10
66.3087733
20
6
11
66.3087733
21
19.25
0
LINE
8
side1_outsideCutPath
10
66.3087733
20
19.25
11
62.1796276
21
19.25
0
LINE
8
side1_outsideCutPath
10
62.1796276
20
19.25
11
62.1796276
21
38.75
0
LINE
8
side1_outsideCutPath
10
62.1796276
20
38.75
11
66.3087733
21
38.75
0
LINE
8
side1_outsideCutPath
10
66.3087733
20
38.75
11
66.3087733
21
58.25
0
LINE
8
side1_outsideCutPath
10
66.3087733
20
58.25
11
62.1796276
21
58.25
0
LINE
8
side1_outsideCutPath
10
62.1796276
20
58.25
11
62.1796276
21
77.75
0
LINE
8
side1_outsideCutPath
10
62.1796276
20
77.75
11
66.3087733
21
77.75
0
LINE
8
side1_outsideCutPath
10
66.3087733
20
77.75
11
66.3087733
21
97.25
0
LINE
8
side1_outsideCutPath
10
66.3087733
20
97.25
11
62.1796276
21
97.25
0
LINE
8
side1_outsideCutPath
10
62.1796276
20
97.25
11
62.1796276
21
116.75
0
LINE
8
side1_outsideCutPath
10
62.1796276
20
116.75
11
66.3087733
21
116.75
0
LINE
8
side1_outsideCutPath
10
66.3087733
20
116.75
11
66.3087733
21
130
0
LINE
8
side1_outsideCutPath
10
66.3087733
20
130
11
42.9043867
21
130
0
LINE
8
side1_outsideCutPath
10
42.9043867
20
130
11
42.9043867
21
133
0
LINE
8
side1_outsideCutPath
10
42.9043867
20
133
11
23.4043867
21
133
0
LINE
8
side1_outsideCutPath
10
23.4043867
20
133
11
23.4043867
21
130
0
LINE
8
side1_outsideCutPath
10
23.4043867
20
130
11
4.1291458
21
130
0
LINE
8
side3_outsideCutPath
10
73.4379191
20
130
11
73.4379191
21
116.75
0
LINE
8
side3_outsideCutPath
10
73.4379191
20
116.75
11
69.3087733
21
116.75
0
LINE
8
side3_outsideCutPath
10
69.3087733
20
116.75
11
69.3087733
21
97.25
0
LINE
8
side3_outsideCutPath
10
69.3087733
20
97.25
11
73.4379191
21
97.25
0
LINE
8
side3_outsideCutPath
10
73.4379191
20
97.25
11
73.4379191
21
77.75
0
LINE
8
side3_outsideCutPath
10
73.4379191
20
77.75
11
69.3087733
21
77.75
0
LINE
8
side3_outsideCutPath
10
69.3087733
20
77.75
11
69.3087733
21
58.25
0
LINE
8
side3_outsideCutPath
10
69.3087733
20
58.25
11
73.4379191
21
58.25
0
LINE
8
side3_outsideCutPath
10
73.4379191
20
58.25
11
73.4379191
21
38.75
0
LINE
8
side3_outsideCutPath
10
73.4379191
20
38.75
11
69.3087733
21
38.75
0
LINE
8
side3_outsideCutPath
10
69.3087733
20
38.75
11
69.3087733
21
19.25
0
LINE
8
side3_outsideCutPath
10
69.3087733
20
19.25
11
73.4379191
21
19.25
0
LINE
8
side3_outsideCutPath
10
73.4379191
20
19.25
11
73.4379191
21
6
0
LINE
8
side3_outsideCutPath
10
73.4379191
20
6
11
92.71316
21
6
0
LINE
8
side3_outsideCutPath
10
92.71316
20
6
11
92.71316
21
3
0
LINE
8
side3_outsideCutPath
10
92.71316
20
3
11
112.21316
21
3
0
LINE
8
side3_outsideCutPath
10
112.21316
20
3
11
112.21316
21
6
0
LINE
8
side3_outsideCutPath
10
112.21316
20
6
11
131.71316
21
6
0
LINE
8
side3_outsideCutPath
10
131.71316
20
6
11
135.6175467
21
6
0
LINE
8
side3_outsideCutPath
10
135.6175467
20
6
11
135.6175467
21
19.25
0
LINE
8
side3_outsideCutPath
10
135.6175467
20
19.25
11
131.4884009
21
19.25
0
LINE
8
side3_outsideCutPath
10
131.4884009
20
19.25
11
131.4884009
21
38.75
0
LINE
8
side3_outsideCutPath
10
131.4884009
20
38.75
11
135.6175467
21
38.75
0
LINE
8
side3_outsideCutPath
10
135.6175467
20
38.75
11
135.6175467
21
58.25
0
LINE
8
side3_outsideCutPath
10
135.6175467
20
58.25
11
131.4884009
21
58.25
0
LINE
8
side3_outsideCutPath
10
131.4884009
20
58.25
11
131.4884009
21
77.75
0
LINE
8
side3_outsideCutPath
10
131.4884009
20
77.75
11
135.6175467
21
77.75
0
LINE
8
side3_outsideCutPath
10
135.6175467
20
77.75
11
135.6175467
21
97.25
0
LINE
8
side3_outsideCutPath
10
135.6175467
20
97.25
11
131.4884009
21
97.25
0
LINE
8
side3_outsideCutPath
10
131.4884009
20
97.25
11
131.4884009
21
116.75
0
LINE
8
side3_outsideCutPath
10
131.4884009
20
116.75
11
135.6175467
21
116.75
0
LINE
8
side3_outsideCutPath
10
135.6175467
20
116.75
11
135.6175467
21
130
0
LINE
8
side3_outsideCutPath
10
135.6175467
20
130
11
112.21316
21
130
0
LINE
8
side3_outsideCutPath
10
112.21316
20
130
11
112.21316
21
133
0
LINE
8
side3_outsideCutPath
10
112.21316
20
133
11
92.71316
21
133
0
LINE
8
side3_outsideCutPath
10
92.71316
20
133
11
92.71316
21
130
0
LINE
8
side3_outsideCutPath
10
92.71316
20
130
11
73.4379191
21
130
0
LINE
8
side0_outsideCutPath
10
4.1291458
20
263
11
4.1291458
21
249.75
0
LINE
8
side0_outsideCutPath
10
4.1291458
20
249.75
11
0
21
249.75
0
LINE
8
side0_outsideCutPath
10
0
20
249.75
11
0
21
230.25
0
LINE
8
side0_outsideCutPath
10
0
20
230.25
11
4.1291458
21
230.25
0
LINE
8
side0_outsideCutPath
10
4.1291458
20
230.25
11
4.1291458
21
210.75
0
LINE
8
side0_outsideCutPath
10
4.1291458
20
210.75
11
0
21
210.75
0
LINE
8
side0_outsideCutPath
10
0
20
210.75
11
0
21
191.25
0
LINE
8
side0_outsideCutPath
10
0
20
191.25
11
4.1291458
21
191.25
0
LINE
8
side0_outsideCutPath
10
4.1291458
20
191.25
11
4.1291458
21
171.75
0
LINE
8
side0_outsideCutPath
10
4.1291458
20
171.75
11
0
21
171.75
0
LINE
8
side0_outsideCutPath
10
0
20
171.75
11
0
21
152.25
0
LINE
8
side0_outsideCutPath
10
0
20
152.25
11
4.1291458
21
152.25
0
LINE
8
side0_outsideCutPath
10
4.1291458
20
152.25
11
4.1291458
21
139
0
LINE
8
side0_outsideCutPath
10
4.1291458
20
139
11
23.4043867
21
139
0
LINE
8
side0_outsideCutPath
10
23.4043867
20
139
11
23.4043867
21
136
0
LINE
8
side0_outsideCutPath
10
23.4043867
20
136
11
42.9043867
21
136
0
LINE
8
side0_outsideCutPath
10
42.9043867
20
136
11
42.9043867
21
139
0
LINE
8
side0_outsideCutPath
10
42.9043867
20
139
11
62.4043867
21
139
0
LINE
8
side0_outsideCutPath
10
62.4043867
20
139
11
66.3087733
21
139
0
LINE
8
side0_outsideCutPath
10
66.3087733
20
139
11
66.3087733
21
152.25
0
LINE
8
side0_outsideCutPath
10
66.3087733
20
152.25
11
62.1796276
21
152.25
0
LINE
8
side0_outsideCutPath
10
62.1796276
20
152.25
11
62.1796276
21
171.75
0
LINE
8
side0_outsideCutPath
10
62.1796276
20
171.75
11
66.3087733
21
171.75
0
LINE
8
side0_outsideCutPath
10
66.3087733
20
171.75
11
66.3087733
21
191.25
0
LINE
8
side0_outsideCutPath
10
66.3087733
20
191.25
11
62.1796276
21
191.25
0
LINE
8
side0_outsideCutPath
10
62.1796276
20
191.25
11
62.1796276
21
210.75
0
LINE
8
side0_outsideCutPath
10
62.1796276
20
210.75
11
66.3087733
21
210.75
0
LINE
8
side0_outsideCutPath
10
66.3087733
20
210.75
11
66.3087733
21
230.25
0
LINE
8
side0_outsideCutPath
10
66.3087733
20
230.25
11
62.1796276
21
230.25
0
LINE
8
side0_outsideCutPath
10
62.1796276
20
230.25
11
62.1796276
21
249.75
0
LINE
8
side0_outsideCutPath
10
62.1796276
20
249.75
11
66.3087733
21
249.75
0
LINE
8
side0_outsideCutPath
10
66.3087733
20
249.75
11
66.3087733
21
263
0
LINE
8
side0_outsideCutPath
10
66.3087733
20
263
11
42.9043867
21
263
0
LINE
8
side0_outsideCutPath
10
42.9043867
20
263
11
42.9043867
21
266
0
LINE
8
side0_outsideCutPath
10
42.9043867
20
266
11
23.4043867
21
266
0
LINE
8
side0_outsideCutPath
10
23.4043867
20
266
11
23.4043867
21
263
0
LINE
8
side0_outsideCutPath
10
23.4043867
20
263
11
4.1291458
21
263
0
LINE
8
side2_outsideCutPath
10
73.4379191
20
263
11
73.4379191
21
249.75
0
LINE
8
side2_outsideCutPath
10
73.4379191
20
249.75
11
69.3087733
21
249.75
0
LINE
8
side2_outsideCutPath
10
69.3087733
20
249.75
11
69.3087733
21
230.25
0
LINE
8
side2_outsideCutPath
10
69.3087733
20
230.25
11
73.4379191
21
230.25
0
LINE
8
side2_outsideCutPath
10
73.4379191
20
230.25
11
73.4379191
21
210.75
0
LINE
8
side2_outsideCutPath
10
73.4379191
20
210.75
11
69.3087733
21
210.75
0
LINE
8
side2_outsideCutPath
10
69.3087733
20
210.75
11
69.3087733
21
191.25
0
LINE
8
side2_outsideCutPath
10
69.3087733
20
191.25
11
73.4379191
21
191.25
0
LINE
8
side2_outsideCutPath
10
73.4379191
20
191.25
11
73.4379191
21
171.75
0
LINE
8
side2_outsideCutPath
10
73.4379191
20
171.75
11
69.3087733
21
171.75
0
LINE
8
side2_outsideCutPath
10
69.3087733
20
171.75
11
69.3087733
21
152.25
0
LINE
8
side2_outsideCutPath
10
69.3087733
20
152.25
11
73.4379191
21
152.25
0
LINE
8
side2_outsideCutPath
10
73.4379191
20
152.25
11
73.4379191
21
139
0
LINE
8
side2_outsideCutPath
10
73.4379191
20
139
11
92.71316
21
139
0
LINE
8
side2_outsideCutPath
10
92.71316
20
139
11
92.71316
21
136
0
LINE
8
side2_outsideCutPath
10
92.71316
20
136
11
112.21316
21
136
0
LINE
8
side2_outsideCutPath
10
112.21316
20
136
11
112.21316
21
139
0
LINE
8
side2_outsideCutPath
10
112.21316
20
139
11
131.71316
21
139
0
LINE
8
side2_outsideCutPath
10
131.71316
20
139
11
135.6175467
21
139
0
LINE
8
side2_outsideCutPath
10
135.6175467
20
139
11
135.6175467
21
152.25
0
LINE
8
side2_outsideCutPath
10
135.6175467
20
152.25
11
131.4884009
21
152.25
0
LINE
8
side2_outsideCutPath
10
131.4884009
20
152.25
11
131.4884009
21
171.75
0
LINE
8
side2_outsideCutPath
10
131.4884009
20
171.75
11
135.6175467
21
171.75
0
LINE
8
side2_outsideCutPath
10
135.6175467
20
171.75
11
135.6175467
21
191.25
0
LINE
8
side2_outsideCutPath
10
135.6175467
20
191.25
11
131.4884009
21
191.25
0
LINE
8
side2_outsideCutPath
10
131.4884009
20
191.25
11
131.4884009
21
210.75
0
LINE
8
side2_outsideCutPath
10
131.4884009
20
210.75
11
135.6175467
21
210.75
0
LINE
8
side2_outsideCutPath
10
135.6175467
20
210.75
11
135.6175467
21
230.25
0
LINE
8
side2_outsideCutPath
10
135.6175467
20
230.25
11
131.4884009
21
230.25
0
LINE
8
side2_outsideCutPath
10
131.4884009
20
230.25
11
131.4884009
21
249.75
0
LINE
8
side2_outsideCutPath
10
131.4884009
20
249.75
11
135.6175467
21
249.75
0
LINE
8
side2_outsideCutPath
10
135.6175467
20
249.75
11
135.6175467
21
263
0
LINE
8
side2_outsideCutPath
10
135.6175467
20
263
11
112.21316
21
263
0
LINE
8
side2_outsideCutPath
10
112.21316
20
263
11
112.21316
21
266
0
LINE
8
side2_outsideCutPath
10
112.21316
20
266
11
92.71316
21
266
0
LINE
8
side2_outsideCutPath
10
92.71316
20
266
11
92.71316
21
263
0
LINE
8
side2_outsideCutPath
10
92.71316
20
263
11
73.4379191
21
263
0
LINE
8
side4_outsideCutPath
10
142.7466925
20
130
11
142.7466925
21
116.75
0
LINE
8
side4_outsideCutPath
10
142.7466925
20
116.75
11
138.6175467
21
116.75
0
LINE
8
side4_outsideCutPath
10
138.6175467
20
116.75
11
138.6175467
21
97.25
0
LINE
8
side4_outsideCutPath
10
138.6175467
20
97.25
11
142.7466925
21
97.25
0
LINE
8
side4_outsideCutPath
10
142.7466925
20
97.25
11
142.7466925
21
77.75
0
LINE
8
side4_outsideCutPath
10
142.7466925
20
77.75
11
138.6175467
21
77.75
0
LINE
8
side4_outsideCutPath
10
138.6175467
20
77.75
11
138.6175467
21
58.25
0
LINE
8
side4_outsideCutPath
10
138.6175467
20
58.25
11
142.7466925
21
58.25
0
LINE
8
side4_outsideCutPath
10
142.7466925
20
58.25
11
142.7466925
21
38.75
0
LINE
8
side4_outsideCutPath
10
142.7466925
20
38.75
11
138.6175467
21
38.75
0
LINE
8
side4_outsideCutPath
10
138.6175467
20
38.75
11
138.6175467
21
19.25
0
LINE
8
side4_outsideCutPath
10
138.6175467
20
19.25
11
142.7466925
21
19.25
0
LINE
8
side4_outsideCutPath
10
142.7466925
20
19.25
11
142.7466925
21
6
0
LINE
8
side4_outsideCutPath
10
142.7466925
20
6
11
162.0219334
21
6
0
LINE
8
side4_outsideCutPath
10
162.0219334
20
6
11
162.0219334
21
3
0
LINE
8
side4_outsideCutPath
10
162.0219334
20
3
11
181.5219334
21
3
0
LINE
8
side4_outsideCutPath
10
181.5219334
20
3
11
181.5219334
21
6
0
LINE
8
side4_outsideCutPath
10
181.5219334
20
6
11
201.0219334
21
6
0
LINE
8
side4_outsideCutPath
10
201.0219334
20
6
11
204.92632
21
6
0
LINE
8
side4_outsideCutPath
10
204.92632
20
6
11
204.92632
21
19.25
0
LINE
8
side4_outsideCutPath
10
204.92632
20
19.25
11
200.7971743
21
19.25
0
LINE
8
side4_outsideCutPath
10
200.7971743
20
19.25
11
200.7971743
21
38.75
0
LINE
8
side4_outsideCutPath
10
200.7971743
20
38.75
11
204.92632
21
38.75
0
LINE
8
side4_outsideCutPath
10
204.92632
20
38.75
11
204.92632
21
58.25
0
LINE
8
side4_outsideCutPath
10
204.92632
20
58.25
11
200.7971743
21
58.25
0
LINE
8
side4_outsideCutPath
10
200.7971743
20
58.25
11
200.7971743
21
77.75
0
LINE
8
side4_outsideCutPath
10
200.7971743
20
77.75
11
204.92632
21
77.75
0
LINE
8
side4_outsideCutPath
10
204.92632
20
77.75
11
204.92632
21
97.25
0
LINE
8
side4_outsideCutPath
10
204.92632
20
97.25
11
200.7971743
21
97.25
0
LINE
8
side4_outsideCutPath
10
200.7971743
20
97.25
11
200.7971743
21
116.75
0
LINE
8
side4_outsideCutPath
10
200.7971743
20
116.75
11
204.92632
21
116.75
0
LINE
8
side4_outsideCutPath
10
204.92632
20
116.75
11
204.92632
21
130
0
LINE
8
side4_outsideCutPath
10
204.92632
20
130
11
181.5219334
21
130
0
LINE
8
side4_outsideCutPath
10
181.5219334
20
130
11
181.5219334
21
133
0
LINE
8
side4_outsideCutPath
10
181.5219334
20
133
11
162.0219334
21
133
0
LINE
8
side4_outsideCutPath
10
162.0219334
20
133
11
162.0219334
21
130
0
LINE
8
side4_outsideCutPath
10
162.0219334
20
130
11
142.7466925
21
130
0
LINE
8
top_outsideCutPath
10
52.0677312
20
368.03871
11
70.2136811
21
354.8549057
0
LINE
8
top_outsideCutPath
10
70.2136811
20
354.8549057
11
68.4503253
21
352.4278548
0
LINE
8
top_outsideCutPath
10
68.4503253
20
352.4278548
11
84.2261567
21
340.9660423
0
LINE
8
top_outsideCutPath
10
84.2261567
20
340.9660423
11
85.9895125
21
343.3930933
0
LINE
8
top_outsideCutPath
10
85.9895125
20
343.3930933
11
101.7653438
21
331.9312809
0
LINE
8
top_outsideCutPath
10
101.7653438
20
331.9312809
11
104.1354624
21
330.209289
0
LINE
8
top_outsideCutPath
10
104.1354624
20
330.209289
11
97.2043263
21
308.8774455
0
LINE
8
top_outsideCutPath
10
97.2043263
20
308.8774455
11
94.3511567
21
309.8044965
0
LINE
8
top_outsideCutPath
10
94.3511567
20
309.8044965
11
88.3253253
21
291.2588945
0
LINE
8
top_outsideCutPath
10
88.3253253
20
291.2588945
11
91.1784949
21
290.3318435
0
LINE
8
top_outsideCutPath
10
91.1784949
20
290.3318435
11
85.1526635
21
271.7862414
0
LINE
8
top_outsideCutPath
10
85.1526635
20
271.7862414
11
84.2473588
21
269
0
LINE
8
top_outsideCutPath
10
84.2473588
20
269
11
61.8177312
21
269
0
LINE
8
top_outsideCutPath
10
61.8177312
20
269
11
61.8177312
21
272
0
LINE
8
top_outsideCutPath
10
61.8177312
20
272
11
42.3177312
21
272
0
LINE
8
top_outsideCutPath
10
42.3177312
20
272
11
42.3177312
21
269
0
LINE
8
top_outsideCutPath
10
42.3177312
20
269
11
22.8177312
21
269
0
LINE
8
top_outsideCutPath
10
22.8177312
20
269
11
19.8881036
21
269
0
LINE
8
top_outsideCutPath
10
19.8881036
20
269
11
12.9569675
21
290.3318435
0
LINE
8
top_outsideCutPath
10
12.9569675
20
290.3318435
11
15.810137
21
291.2588945
0
LINE
8
top_outsideCutPath
10
15.810137
20
291.2588945
11
9.7843056
21
309.8044965
0
LINE
8
top_outsideCutPath
10
9.7843056
20
309.8044965
11
6.9311361
21
308.8774455
0
LINE
8
top_outsideCutPath
10
6.9311361
20
308.8774455
11
0.9053047
21
327.4230476
0
LINE
8
top_outsideCutPath
10
0.9053047
20
327.4230476
11
0
21
330.209289
0
LINE
8
top_outsideCutPath
10
0
20
330.209289
11
18.1459499
21
343.3930933
0
LINE
8
top_outsideCutPath
10
18.1459499
20
343.3930933
11
19.9093056
21
340.9660423
0
LINE
8
top_outsideCutPath
10
19.9093056
20
340.9660423
11
35.685137
21
352.4278548
0
LINE
8
top_outsideCutPath
10
35.685137
20
352.4278548
11
33.9217813
21
354.8549057
0
LINE
8
top_outsideCutPath
10
33.9217813
20
354.8549057
11
49.6976127
21
366.3167182
0
LINE
8
top_outsideCutPath
10
49.6976127
20
366.3167182
11
52.0677312
21
368.03871
0
LINE
8
bottom_outsideCutPath
10
159.2031935
20
368.03871
11
177.3491434
21
354.8549057
0
LINE
8
bottom_outsideCutPath
10
177.3491434
20
354.8549057
11
175.5857877
21
352.4278548
0
LINE
8
bottom_outsideCutPath
10
175.5857877
20
352.4278548
11
191.3616191
21
340.9660423
0
LINE
8
bottom_outsideCutPath
10
191.3616191
20
340.9660423
11
193.1249748
21
343.3930933
0
LINE
8
bottom_outsideCutPath
10
193.1249748
20
343.3930933
11
208.9008062
21
331.9312809
0
LINE
8
bottom_outsideCutPath
10
208.9008062
20
331.9312809
11
211.2709247
21
330.209289
0
LINE
8
bottom_outsideCutPath
10
211.2709247
20
330.209289
11
204.3397886
21
308.8774455
0
LINE
8
bottom_outsideCutPath
10
204.3397886
20
308.8774455
11
201.4866191
21
309.8044965
0
LINE
8
bottom_outsideCutPath
10
201.4866191
20
309.8044965
11
195.4607877
21
291.2588945
0
LINE
8
bottom_outsideCutPath
10
195.4607877
20
291.2588945
11
198.3139572
21
290.3318435
0
LINE
8
bottom_outsideCutPath
10
198.3139572
20
290.3318435
11
192.2881258
21
271.7862414
0
LINE
8
bottom_outsideCutPath
10
192.2881258
20
271.7862414
11
191.3828211
21
269
0
LINE
8
bottom_outsideCutPath
10
191.3828211
20
269
11
168.9531935
21
269
0
LINE
8
bottom_outsideCutPath
10
168.9531935
20
269
11
168.9531935
21
272
0
LINE
8
bottom_outsideCutPath
10
168.9531935
20
272
11
149.4531935
21
272
0
LINE
8
bottom_outsideCutPath
10
149.4531935
20
272
11
149.4531935
21
269
0
LINE
8
bottom_outsideCutPath
10
149.4531935
20
269
11
129.9531935
21
269
0
LINE
8
bottom_outsideCutPath
10
129.9531935
20
269
11
127.0235659
21
269
0
LINE
8
bottom_outsideCutPath
10
127.0235659
20
269
11
120.0924298
21
290.3318435
0
LINE
8
bottom_outsideCutPath
10
120.0924298
20
290.3318435
11
122.9455994
21
291.2588945
0
LINE
8
bottom_outsideCutPath
10
122.9455994
20
291.2588945
11
116.919768
21
309.8044965
0
LINE
8
bottom_outsideCutPath
10
116.919768
20
309.8044965
11
114.0665985
21
308.8774455
0
LINE
8
bottom_outsideCutPath
10
114.0665985
20
308.8774455
11
108.0407671
21
327.4230476
0
LINE
8
bottom_outsideCutPath
10
108.0407671
20
327.4230476
11
107.1354624
21
330.209289
0
LINE
8
bottom_outsideCutPath
10
107.1354624
20
330.209289
11
125.2814122
21
343.3930933
0
LINE
8
bottom_outsideCutPath
10
125.2814122
20
343.3930933
11
127.044768
21
340.9660423
0
LINE
8
bottom_outsideCutPath
10
127.044768
20
340.9660423
11
142.8205994
21
352.4278548
0
LINE
8
bottom_outsideCutPath
10
142.8205994
20
352.4278548
11
141.0572436
21
354.8549057
0
LINE
8
bottom_outsideCutPath
10
141.0572436
20
354.8549057
11
156.833075
21
366.3167182
0
LINE
8
bottom_outsideCutPath
10
156.833075
20
366.3167182
11
159.2031935
21
368.03871
0
ENDSEC
0
EOF